<?xml version="1.0" encoding="utf-8"?>
<!-- Generator: Adobe Illustrator 18.0.0, SVG Export Plug-In . SVG Version: 6.00 Build 0)  -->
<!DOCTYPE svg PUBLIC "-//W3C//DTD SVG 1.1//EN" "http://www.w3.org/Graphics/SVG/1.1/DTD/svg11.dtd">
<svg version="1.1" id="Layer_1" xmlns="http://www.w3.org/2000/svg" xmlns:xlink="http://www.w3.org/1999/xlink" x="0px" y="0px"
	 viewBox="0 0 461.7 75.5" enable-background="new 0 0 461.7 75.5" xml:space="preserve">
<g>
	<g>
		<g>
			<g>
				<path fill="#33CCCC" d="M29.3,75.5c-1.5,0-3.7-0.4-5.7-2.5c-1-1-1.8-2.2-2.3-3.5c-1-2.3-1.4-4.7-1.6-6.2l0-0.1
					c-0.2-1.3-0.3-2.6-0.4-3.9c0,0-0.6,1.2-0.6,1.2L18,61.7c-0.5,1.1-1.1,2-1.5,2.5C15,65.9,12.9,67,10.5,67c-1.7,0-3.4-0.6-4.7-1.7
					c-4.3-3.4-4.9-8.9-5.2-12.9c-0.1-0.7-0.1-1.3-0.2-1.9c-0.6-3.6-0.3-7-0.1-10.3c0.1-1.5,0.2-2.9,0.2-4.3c0.1-2.3,0.3-4.5,0.6-6.6
					l0.2-1.4c0.3-2.6,0.5-5.5,0.6-8.1c0-1.9,0.5-3.5,1.1-4.8l0.2-0.6c0.9-2.3,2.8-3.9,5.2-4.3l0.1,0l0.4-0.1c0.5-0.1,1-0.2,1.8-0.2
					c2.1,0,3.9,0.8,5.2,2.2c2.5,2.7,2.1,6.5,1.9,8.8l0,0.5c-0.2,2.1-0.2,4.4-0.3,6.6c1.6-4.3,3.6-8.5,6.2-12.3
					c0.4-1.2,0.9-2.2,1.7-3.2c1.7-2.8,3.9-3.4,5.5-3.4c1,0,1.8,0.2,2.4,0.5c2,0.9,3.9,2.9,4,6.4c0.3,2.5,0.1,4.9-0.1,7.1
					C37.1,23.5,37,24.3,37,25c-0.1,2.7-0.2,5.4-0.3,8.1c0,0,0,0,0,0c0.5-1.2,1-2.6,1.5-4l1.6-4.2l2.1-5.4c1.5-4,3.4-8.8,5.6-13.5
					l0.1-0.3l0-0.1c0.4-1,1.1-2.5,2.5-3.9C51.4,0.7,53,0,54.6,0c1.5,0,3,0.6,4.1,1.6l0.4,0.4l0.3,0.4c1,1.4,1.5,3,1.4,4.5
					c-0.1,1.1-0.4,2.2-1,3.2c-0.8,1.3-1.4,2.7-2.1,4.2l-0.1,0.1l-0.3,0.6c-1.4,3.1-2.8,6.6-4.4,10.8l0,0.1c-0.5,1.4-1.1,2.8-1.6,4.1
					l-0.1,0.1l-0.6,1.5c-1,2.5-2,5.2-3.1,8c-1,2.5-1.9,5.3-2.9,8.3l-0.1,0.2l-0.1,0.2c-0.1,0.3-0.2,0.6-0.3,0.9
					c-0.1,0.4-0.3,0.7-0.4,1.1c-0.7,2.2-1.6,5.1-2.8,7.8c-0.8,2-1.6,4.1-2.3,6.2l-0.3,1l-1.2,3.5l-0.2,0.4l0,0
					c-0.2,0.7-0.6,1.7-1.3,2.7L35.8,72l-0.1,0.1C34.1,74.3,31.7,75.5,29.3,75.5z"/>
			</g>
			<g>
				<path fill="#33CCCC" d="M57.4,68.5c-1.9,0-3.4-0.4-4.7-0.7l-0.1,0c-2.8-0.8-5-2.8-6.4-5.6l-0.1-0.2c-1.4-3.2-2.7-6.7-2.4-10.9
					l0-0.2c0.3-2.5,0.7-4.7,1.3-6.5l0.1-0.2l0.3-0.6c0.4-1.2,0.8-2.4,1.2-3.5l0.1-0.2c1.5-3.4,3.8-6.5,6.6-8.8
					c1.7-1.4,3.4-2,4.9-2.3l0,0l0.5-0.1c0.5-0.1,1-0.2,1.5-0.2c0.2,0,0.5,0,0.7,0h0.3l0.4,0.1c3.8,0.6,7.7,4.2,8.5,7.9l0,0.2l0,0.2
					c0.1,0.6,0.2,1.5,0.1,2.6v0.3l-0.2,0.8c-0.2,0.6-0.4,1.3-0.6,2c0.5-0.1,1.1-0.2,1.7-0.2c0.6,0,1.3,0.1,1.9,0.3
					c1.8,0.5,3.2,1.9,3.9,3.7c0.7,1.9,0.6,4-0.4,5.7c-1.7,2.8-3.5,5.8-5.7,8.5c-0.3,0.4-0.7,0.9-1.2,1.4c-0.3,0.3-0.6,0.6-0.8,0.9
					l-0.1,0.1c-1.7,2.2-3.7,3.5-5.6,4.5l-0.2,0.1l-0.4,0.2c-1.3,0.7-2.8,1.1-4.4,1.1H57.4z"/>
			</g>
			<g>
				<path fill="#33CCCC" d="M77.4,68.5c-1.9,0-3.4-0.4-4.7-0.7l-0.1,0c-2.8-0.8-5-2.8-6.4-5.6L66,61.8c-1.4-3.2-2.7-6.7-2.4-10.9
					l0-0.2c0.3-2.5,0.7-4.7,1.3-6.5l0.1-0.2l0.3-0.6c0.4-1.2,0.8-2.4,1.2-3.5l0.1-0.2c1.5-3.4,3.8-6.5,6.6-8.8
					c1.7-1.4,3.4-2,4.9-2.3l0,0l0.5-0.1c0.5-0.1,1-0.2,1.5-0.2c0.2,0,0.5,0,0.7,0h0.3l0.4,0.1c3.8,0.6,7.7,4.2,8.5,7.9l0,0.2l0,0.2
					c0.1,0.6,0.2,1.5,0.1,2.6v0.3l-0.2,0.8c-0.2,0.6-0.4,1.3-0.6,2c0.5-0.1,1.1-0.2,1.7-0.2c0.6,0,1.3,0.1,1.9,0.3
					c1.8,0.5,3.2,1.9,3.9,3.7c0.7,1.9,0.6,4-0.4,5.7c-1.7,2.8-3.5,5.8-5.7,8.5c-0.3,0.4-0.7,0.9-1.2,1.4c-0.3,0.3-0.6,0.6-0.8,0.9
					l-0.1,0.1c-1.7,2.2-3.7,3.5-5.6,4.5l-0.2,0.1l-0.4,0.2c-1.3,0.7-2.8,1.1-4.4,1.1H77.4z"/>
			</g>
			<g>
				<path fill="#33CCCC" d="M90.8,68.4c-1.4,0-4.1-0.5-6-3.6c-1-1.6-1.4-3.6-1.3-5.4l0-0.1l0.1-1c0.1-1.4,0.2-2.8,0.4-4.2l0-0.2
					c0.1-0.5,0.2-1,0.3-1.6c0.1-0.5,0.2-1,0.2-1.5l0-0.1l0-0.1c0.3-1.4,0.5-2.8,0.7-4.2c0.1-0.8,0.2-1.6,0.4-2.2
					c0-0.2,0.1-0.4,0.1-0.6l0.1-0.3c0.2-1,0.3-1.8,0.3-2.5c0-0.4,0-1.1,0.2-1.9l0.6-2.7c0.4-1.6,0.7-3.1,1-4.5l0-0.2l0.1-0.2
					c0.1-0.5,0.3-1.3,0.4-2c0.2-1.7,0.6-3.1,0.9-4.3l0.1-0.2c0.2-0.7,0.4-1.4,0.5-2.1c0.5-3.1,1.5-5.8,2.6-8.5l0.3-0.8
					c1.5-4.3,5.1-4.6,6.1-4.6c0.8,0,1.6,0.1,2.4,0.4c0.2,0.1,0.5,0.1,0.7,0.2l0.1,0l0.4,0.1l0.3,0.1c3,1.3,4.5,3.7,4.2,6.9
					c-0.1,1.9-0.5,4-1.1,6.1c1-0.4,2-0.6,3-0.6c0.6,0,1.3,0.1,1.9,0.2c2.8,0.6,4.8,2.8,5.2,5.6c0,0.2,0.1,0.4,0.1,0.6
					c0.1,0.7,0.2,1.8-0.1,3.1c-0.4,2.3-1,5-2.9,7.6l-0.1,0.2c-2.2,2.9-4.4,6-7,8.8c0.4,0.7,0.7,1.4,0.9,2.1c0.2-0.4,0.3-0.7,0.5-1
					l0.1-0.1c0.4-0.7,0.8-1.5,0.9-2.1l0-0.1c0.8-2.7,3.2-4.5,6-4.5c0.4,0,0.9,0,1.3,0.1c1.6,0.3,2.9,1.1,3.8,2.4l0.4,0.5l0.2,0.6
					c0.4,1,0.7,2.5,0.2,4.5l-0.1,0.3l-0.3,0.7c-0.2,0.6-0.5,1.2-0.9,1.9l-0.9,1.7l0,0.1c-0.4,0.7-0.8,1.4-1.1,2.1
					c-1.2,2.6-2.6,4.6-3.8,6.2c-0.6,0.8-1.3,1.6-2.2,2.3c-2.3,2-4.6,2.5-6.2,2.5c-1.1,0-2.1-0.2-3.2-0.6c-1.7-0.6-3.1-1.6-4.1-2.9
					c-1.1,2.2-3.1,3.1-4.8,3.4l-0.1,0C92.2,68.3,91.6,68.4,90.8,68.4z"/>
			</g>
			<g>
				<path fill="#33CCCC" d="M121.6,68.5c-1.9,0-3.4-0.4-4.7-0.7l-0.1,0c-2.8-0.8-5-2.8-6.4-5.6l-0.1-0.2c-1.4-3.2-2.7-6.7-2.4-10.9
					l0-0.2c0.3-2.5,0.7-4.7,1.3-6.5l0.1-0.2l0.3-0.6c0.4-1.2,0.8-2.4,1.2-3.5l0.1-0.2c1.5-3.4,3.8-6.5,6.6-8.8
					c1.7-1.4,3.4-2,4.9-2.3l0,0l0.5-0.1c0.5-0.1,1-0.2,1.5-0.2c0.2,0,0.5,0,0.7,0h0.3l0.4,0.1c3.8,0.6,7.7,4.2,8.5,7.9l0,0.2l0,0.2
					c0.1,0.6,0.2,1.5,0.1,2.6v0.3l-0.2,0.8c-0.2,0.6-0.4,1.3-0.6,2c0.5-0.1,1.1-0.2,1.7-0.2c0.6,0,1.3,0.1,1.9,0.3
					c1.8,0.5,3.2,1.9,3.9,3.7c0.7,1.9,0.6,4-0.4,5.7c-1.7,2.8-3.5,5.8-5.7,8.5c-0.3,0.4-0.7,0.9-1.2,1.4c-0.3,0.3-0.6,0.6-0.8,0.9
					l-0.1,0.1c-1.7,2.2-3.7,3.5-5.6,4.5l-0.2,0.1l-0.4,0.2c-1.3,0.7-2.8,1.1-4.4,1.1H121.6z"/>
			</g>
			<g>
				<path fill="#33CCCC" d="M151.5,71.5c-1.7,0-4.8-0.6-7.2-4.4l-0.1-0.1c-0.8-1.5-1.5-3-2.1-4.5c-1.3,2.3-3.7,3.7-6.3,3.7
					c-1.9,0-3.6-0.6-4.9-1.8c-2.1-1.8-2.7-4-2.9-5.3l-0.2-0.7v-0.2c-0.2-1-0.2-1.8-0.1-2.4l0-0.7l0.1-0.4c0.1-0.3,0.1-0.5,0.1-0.6
					v-0.3l0.1-0.5c0-0.4,0.1-0.6,0.1-0.8v-0.1l0-0.1c0.1-1.5,0.2-3,0.4-4.4c0.1-1.1,0.3-2.2,0.3-3.2c0-0.8,0.1-1.6,0.3-2.5
					c0-0.1,0-0.3,0-0.4c0-0.3,0.1-0.7,0.1-0.8l0-0.2l0-0.2c0-1.3,0.4-2.4,0.7-3.2l0.2-0.6c0.5-1.2,1.9-4.8,6.9-4.8h1l0.2,0
					c1.2,0.1,3.8,0.2,5.7,2.5c0.6,0.7,1,1.4,1.2,2.1c1.3-0.8,2.7-1.3,4.2-1.3c3.2,0,5.9,2,7.2,5.3l0.1,0.1l0,0.1
					c1.1,3.3,1.3,6.1,0.8,8.8c0,0,0,0.4,0,0.5l0.1,1.9c0.4-0.7,0.7-1.3,1.1-2l0.1-0.1c0.1-0.1,0.1-0.3,0.2-0.5
					c0.1-0.2,0.1-0.4,0.2-0.5c0-0.1,0.1-0.3,0.1-0.4V48l0.2-0.3l0.2-0.7l0.3-0.2l0.1-0.2l0.2-0.3c1.1-2.1,3.2-3.4,5.5-3.4h0.5
					l0.4,0.1c2.1,0.3,3.9,1.6,4.8,3.5l0.1,0.2l0.1,0.2c0.6,1.5,0.5,3,0,4.6l-0.1,0.2l-0.1,0.2l-0.5,1.1l-0.9,2
					c-1.6,3.4-3.5,6.6-5.3,9.7c-2.1,3.5-5.5,5.7-9.6,6.3l-0.4,0.1H154C153.2,71.4,152.4,71.5,151.5,71.5z"/>
			</g>
			<g>
				<path fill="#33CCCC" d="M182.2,67.7c-2.4,0-4.7-0.9-6.5-2.7c-1.8,1.5-3.8,2.2-5.9,2.2c-2.3,0-4.4-0.9-6.3-2.5
					c-4.5-4.1-6-9.8-4.2-15.6c0.9-3.1,1.9-5.8,3.2-8.2l0.1-0.1l0.1-0.1c0.2-0.4,0.5-0.8,0.8-1.1c0.1-0.2,0.3-0.3,0.4-0.5l0.1-0.2
					l0.8-1c0.2-0.3,0.4-0.5,0.6-0.8l0.4-3.2l1,1.9c0.8-0.6,1.6-1,2.1-1.2l0.1,0c0.2-0.1,0.5-0.2,0.7-0.3c0.2-2.2,0.7-4.7,1.4-7.7
					c0.2-0.9,0.4-1.7,0.5-2.6c0.1-0.5,0.2-0.9,0.3-1.4l0.4-2.2c0.7-3.5,2-6.6,3.8-9.3c1.7-2.7,4.3-4.2,7.3-4.2c0.6,0,1.3,0.1,2,0.2
					c2,0.5,3.3,1.4,4.4,2.4l0.3,0.2c2.3,1.9,2.6,4.4,2.7,5.5l0,0.2c0.1,1.1,0.1,2.2,0,3.2c0,0.5,0,0.9,0,1.2l0,0.2l0,0.2
					c0.1,2.1-0.2,3.8-0.5,5.4l-0.2,0.8c0,0.2-0.1,0.4-0.2,0.7c-0.1,0.3-0.2,0.7-0.2,0.8l0,0.2l0,0.2c0,0.1,0,0.2,0,0.3
					c0,0.3,0,0.6-0.1,0.9c0,0.1,0,0.3,0,0.4c0,0.5-0.1,1.2-0.3,2l-0.9,3.9l-0.7,3.3l-0.2,0.8l-0.2,0.9c-0.7,3-1.6,5.8-3.1,8.7
					l-0.1,0.1l-0.1,0.1c1.4-2.1,2.8-4.5,4.2-7.6c0.2-0.6,0.6-1.4,1.3-2.1c1.2-1.3,2.8-2.1,4.6-2.1c1.3,0,2.5,0.4,3.5,1.1
					c2.5,1.8,3.4,4.9,2.1,7.7c-0.1,0.2-0.2,0.4-0.3,0.6l-0.1,0.2l-0.1,0.2l-0.8,1.5c-1.7,3.5-3.5,6.6-5.5,9.4
					c-0.5,0.7-0.9,1.3-1.4,2l-0.6,0.9c-1.6,2.5-4,4.4-7,5.5C184.7,67.5,183.5,67.7,182.2,67.7z"/>
			</g>
			<g>
				<path fill="#33CCCC" d="M234.3,67.3c-1.3,0-2.4-0.3-3.5-1c-1.3-0.7-3-1.8-4.2-3.7c-1.1-1.6-2.1-3.4-2.8-5.2
					c-1.4,1.3-3.1,2.4-4.9,3.2c-1.1,0.5-2.3,0.7-3.6,0.7c-4.1,0-7.8-2.8-8.9-6.7l0-0.1c-0.2-0.7-0.4-1.6-0.5-2.8l0-0.2l0-2.4
					c0.1-3.1,0.5-5.6,1.5-8.8c0.2-0.8,0.4-1.6,0.6-2.6l0.1-0.7c0.2-1.2,0.5-2.2,1.1-3.2c1.2-2.2,3.4-3.6,5.9-3.6
					c0.8,0,1.7,0.2,2.5,0.4l0,0l0.4,0.1c1.6,0.3,3.3,1.1,4.3,2.8c2.3-4.2,5.3-7.5,9.8-7.5c0,0,0,0,0,0c1.3,0,2.3,0.4,2.9,0.7
					c2.3,1.2,3.7,3.6,3.7,6.4c0,0,0,1.7,0,1.7c0.3-0.5,0.5-1.1,0.9-1.7l1-1.8c0.4-0.8,0.9-1.7,1.5-2.7l0.1-0.3l0.6-1
					c1.6-2.5,3.3-5.2,6.2-7.5c1-0.8,2.4-1.3,3.7-1.3c2.2,0,4.1,1.2,5.2,3l0.1,0.1l0.1,0.1c1.1,2.3,0.7,5.1-1.1,6.9l-0.1,0.1
					l-0.1,0.1c-1.5,1.3-2.6,3.2-3.9,5.4l0,0.1c-0.4,0.7-0.8,1.4-1.1,2l-0.4,0.7c-1.3,2.1-2.2,4.4-3.2,7.3l-0.1,0.2
					c-0.3,0.6-0.6,1.6-0.7,2.3l0,0.2c-0.4,2.3-1.1,4.3-1.9,6.1l-0.4,0.9c-0.5,1.3-1.2,2.9-1.6,4.4c-0.8,3.7-2.8,6.4-5.7,7.8
					C237.2,66.7,235.9,67.3,234.3,67.3z"/>
			</g>
			<g>
				<path fill="#33CCCC" d="M265.9,67.6c-0.5,0-1-0.1-1.4-0.2c-2.4-0.3-4.2-1.4-5.6-3.1c-0.3-0.4-0.6-0.7-0.8-1.1
					c-1.7,0.9-3.5,1.4-5.6,1.4l-0.2,0c-2.3,0-4.4-0.9-5.9-2.4c-2.1-2.1-3.3-4.6-3.4-7.4l0-0.2c0-1.4,0.1-2.7,0.5-4.3l0.1-0.4
					c0.7-3.2,1.8-6.5,3.5-10.5c1.8-3.9,4.7-6.8,8.5-8.3c1.2-0.5,2.4-0.7,3.6-0.7c2.4,0,4.6,1,6.3,2.7c0.6-0.2,1.3-0.3,2.1-0.3
					c0.4,0,1.2,0,2.1,0.2l0.5,0.1l0.1,0.1c3,0.8,4.5,2.6,5.1,4.1c0.8,1.7,0.8,3.5,0.5,5.1c0.9,0.1,1.8,0.4,2.5,0.9
					c1.7,1.1,2.8,3.1,2.8,5.2c0,0.8-0.1,2-0.8,3.2c-1.4,3-3,5.5-4.9,7.9l-0.2,0.2l-0.1,0.1l0,0.1c-1.1,1.7-2.3,3.6-4.4,5.1
					C269,67.3,267,67.6,265.9,67.6z"/>
			</g>
			<g>
				<path fill="#33CCCC" d="M291.3,71.5c-1.7,0-4.8-0.6-7.2-4.4l-0.1-0.1c-0.8-1.5-1.5-3-2.1-4.5c-1.3,2.3-3.7,3.7-6.3,3.7
					c-1.9,0-3.6-0.6-4.9-1.8c-2.1-1.8-2.7-4-2.9-5.3l-0.2-0.7v-0.2c-0.2-1-0.2-1.8-0.1-2.4l0-0.7l0.1-0.4c0.1-0.3,0.1-0.5,0.1-0.6
					v-0.3l0.1-0.5c0-0.4,0.1-0.6,0.1-0.8v-0.1l0-0.1c0.1-1.5,0.2-3,0.4-4.4c0.1-1.1,0.3-2.2,0.3-3.2c0-0.8,0.1-1.6,0.3-2.5
					c0-0.1,0-0.3,0-0.4c0-0.3,0.1-0.7,0.1-0.8l0-0.2l0-0.2c0-1.3,0.4-2.4,0.7-3.2l0.2-0.6c0.5-1.2,1.9-4.8,6.9-4.8h1l0.2,0
					c1.2,0.1,3.8,0.2,5.7,2.5c0.6,0.7,1,1.4,1.2,2.1c1.3-0.8,2.7-1.3,4.2-1.3c3.2,0,5.9,2,7.2,5.3l0.1,0.1l0,0.1
					c1.1,3.3,1.3,6.1,0.8,8.8c0,0,0,0.4,0,0.5l0.1,1.9c0.4-0.7,0.7-1.3,1.1-2l0.1-0.1c0.1-0.1,0.1-0.3,0.2-0.5
					c0.1-0.2,0.1-0.4,0.2-0.5c0-0.1,0.1-0.3,0.1-0.4V48l0.2-0.3l0.2-0.7l0.3-0.2l0.1-0.2l0.2-0.3c1.1-2.1,3.2-3.4,5.5-3.4h0.5
					l0.4,0.1c2.1,0.3,3.9,1.6,4.8,3.5l0.1,0.2l0.1,0.2c0.6,1.5,0.5,3,0,4.6l-0.1,0.2l-0.1,0.2l-0.5,1.1l-0.9,2
					c-1.6,3.4-3.5,6.6-5.3,9.7c-2.1,3.5-5.5,5.7-9.6,6.3l-0.4,0.1h-0.5C293,71.4,292.2,71.5,291.3,71.5z"/>
			</g>
			<g>
				<path fill="#33CCCC" d="M322,67.7c-2.4,0-4.7-0.9-6.5-2.7c-1.8,1.5-3.8,2.2-5.9,2.2c-2.3,0-4.4-0.9-6.3-2.5
					c-4.5-4.1-6-9.8-4.2-15.6c0.9-3.1,1.9-5.8,3.2-8.2l0.1-0.1l0.1-0.1c0.2-0.4,0.5-0.8,0.8-1.1c0.1-0.2,0.3-0.3,0.4-0.5l0.1-0.2
					l0.8-1c0.2-0.3,0.4-0.5,0.6-0.8l0.4-3.2l1,1.9c0.8-0.6,1.6-1,2.1-1.2l0.1,0c0.2-0.1,0.5-0.2,0.7-0.3c0.2-2.2,0.7-4.7,1.4-7.7
					c0.2-0.9,0.4-1.7,0.5-2.6c0.1-0.5,0.2-0.9,0.3-1.4l0.4-2.1l0-0.1c0.7-3.5,2-6.6,3.8-9.3c1.7-2.7,4.3-4.2,7.3-4.2
					c0.6,0,1.3,0.1,2,0.2c2,0.5,3.3,1.4,4.4,2.4l0.3,0.2c2.3,1.9,2.6,4.4,2.7,5.5l0,0.2c0.1,1.1,0.1,2.2,0,3.2c0,0.5,0,0.9,0,1.2
					l0,0.2l0,0.2c0.1,2.1-0.2,3.8-0.5,5.4l-0.2,0.8c0,0.2-0.1,0.4-0.2,0.6c-0.1,0.3-0.2,0.7-0.2,0.9l0,0.2l0,0.2c0,0.1,0,0.2,0,0.3
					c0,0.3,0,0.6-0.1,0.9c0,0.1,0,0.3,0,0.4c0,0.5-0.1,1.2-0.3,2l-0.9,3.9l-0.7,3.3l-0.2,0.8l-0.2,1c-0.6,2.9-1.6,5.7-3.1,8.6
					l-0.1,0.1l-0.1,0.1c1.4-2.1,2.8-4.5,4.2-7.6c0.2-0.6,0.6-1.4,1.3-2.1c1.2-1.3,2.8-2.1,4.6-2.1c1.3,0,2.5,0.4,3.5,1.1
					c2.5,1.8,3.4,4.9,2.1,7.6c-0.1,0.2-0.2,0.4-0.3,0.6l-0.1,0.2l-0.1,0.2l-0.1,0.2l-0.7,1.3c-1.7,3.5-3.5,6.6-5.5,9.4
					c-0.5,0.7-0.9,1.3-1.4,2l-0.6,0.9c-1.6,2.5-4,4.4-7,5.5C324.5,67.5,323.4,67.7,322,67.7z"/>
			</g>
			<g>
				<path fill="#33CCCC" d="M341.6,68.5c-1.9,0-3.4-0.4-4.7-0.7l-0.1,0c-2.8-0.8-5-2.8-6.4-5.6l-0.1-0.2c-1.4-3.2-2.7-6.7-2.4-10.9
					l0-0.2c0.3-2.5,0.7-4.7,1.3-6.5l0.1-0.2l0.3-0.6c0.4-1.3,0.8-2.4,1.3-3.5l0.1-0.1c1.5-3.4,3.8-6.5,6.6-8.8
					c1.7-1.4,3.4-2,4.9-2.3l0,0l0.5-0.1c0.5-0.1,1-0.2,1.5-0.2c0.2,0,0.5,0,0.7,0h0.3l0.4,0.1c3.8,0.6,7.7,4.3,8.5,7.9l0,0.2l0,0.2
					c0.1,0.6,0.2,1.5,0.1,2.6v0.3l-0.2,0.8c-0.2,0.6-0.4,1.3-0.6,2c0.5-0.1,1.1-0.2,1.7-0.2c0.6,0,1.3,0.1,1.9,0.3
					c1.8,0.5,3.2,1.9,3.9,3.7c0.7,1.8,0.6,4-0.4,5.6c-1.7,2.8-3.5,5.8-5.7,8.5c-0.3,0.4-0.7,0.9-1.2,1.4c-0.3,0.3-0.6,0.6-0.8,0.9
					l-0.1,0.1c-1.7,2.2-3.7,3.5-5.6,4.5l-0.2,0.1l-0.4,0.2c-1.3,0.7-2.8,1.1-4.4,1.1H341.6z"/>
			</g>
			<g>
				<path fill="#33CCCC" d="M367.7,70.9c-2.2,0-4.4-0.7-6.2-2c-1.8-1.3-5.6-4-6.6-9.1c-0.4-1.9-0.6-3.9-0.2-6.1c0-0.7,0-1.3,0-2
					c-2.5-1.5-4.6-3.6-6.2-6.2c-1.8-2.9-2.3-6-2.5-8.6l0-0.2v-2.7l0.1-0.2c0.1-2.3,1-4.1,1.6-5.2c0.1-0.3,0.3-0.6,0.5-0.9
					c1.9-3.7,3.6-4.9,7.9-5.7l0.1,0c0.4-0.1,0.8-0.1,1.2-0.1c3.2,0,6.3,1.8,7.8,4.6l0.1,0.1c0.6,1.2,2.1,4.2,1.6,7.9
					c-0.2,1.6-0.6,3.6-1.4,5.6l-0.1,0.2c-0.1,0.2-0.1,0.4-0.2,0.6c0,0,0,0,0,0.1l0.6,0.2l0.2,0.1c3.1,1.4,5.1,3.8,5.7,6.7
					c0,0,0-0.1,0-0.1c0.1-0.5,0.3-1.4,0.8-2.4c1-2,3.2-3.3,5.6-3.3c0.3,0,0.6,0,0.8,0.1l0.5,0.1l0.5,0.2c2.3,0.8,3.9,2.7,4.1,5.1
					c0.1,0.6,0.1,1.2,0.1,1.6v0c0.2,2.9-0.7,5.1-1.4,6.8l-0.1,0.2l-0.4,1c-0.9,2.1-1.8,4.3-2.9,6.2c-1.8,3.1-4.3,4.8-5.9,5.8
					l-0.4,0.2c-1,0.6-2.8,1.6-5,1.6H367.7z"/>
			</g>
			<g>
				<path fill="#33CCCC" d="M384.8,69.4c-1.6,0-3.3-0.4-4.9-1.3l-0.9-0.5c-0.3-0.1-0.6-0.3-0.9-0.4c-1-0.4-1.8-1.1-2.4-1.9
					c-1.5-1.8-3-3.7-4-6.3c-1.4-3.6-1.2-7.2-1-10l0-0.2l0.1-0.5c0-0.2,0-0.6,0-0.7c-0.3-1.8-0.1-3.5,0-4.9c0-0.7,0.1-1.3,0.2-1.8
					c0.1-1.5,0.2-3.3,0.5-5.2l0.2-1.9l0.3-2c0.6-4,1.3-8.1,2.4-12.2l0-0.2c0.4-1.2,0.6-2.2,0.8-3.1l0-0.2c0.3-1.5,0.8-2.9,1.6-4.3
					l0-0.1l1.1-1.7c0.2-0.2,0.3-0.4,0.4-0.6c0.3-0.7,0.7-1.4,1.2-2.1c1.7-2.7,4.2-4.9,7.1-6.1c1.4-0.5,2.6-0.7,3.6-0.8l0.9-0.1h0.2
					l0.1,0l0.4,0c0.2,0,0.4,0,0.6,0c1.7,0,3.4,0.6,4.9,1.7C399,3.2,400,5,400.3,7l0,0.2l0,0.2c0.1,1.9,0.1,3.5-0.2,5.1
					c-0.6,4.1-1.6,8-3,11.7c-1,2.6-2.1,5.6-4.1,8.4c-0.4,0.7-0.8,1.6-1.1,2.3l-0.1,0.2c-0.6,1.4-1.4,2.9-2.3,4.4l-0.1,0.1
					c-0.2,0.3-0.4,0.6-0.5,0.8c-0.3,0.5-0.6,1.1-1,1.5l-0.2,0.4l-0.3,0.3c-0.1,0.1-0.3,0.3-0.5,0.4c-0.1,1.3-0.1,2.7,0,4l0,0.3
					l-0.1,1.3c0,0.2,0,0.5,0,0.8c0,0.4,0,0.8-0.1,1.1c0,1,0,1.8,0,2.6c0.7-1.1,1.2-2.2,1.5-3.4l0.1-0.2c0.3-1,0.7-2.6,1.8-4.1
					c1.1-1.8,3-2.9,5.1-2.9c0.4,0,1.5,0,2.7,0.6c2.5,1.3,3.8,3.8,3.4,6.6c0,0.1,0,0.2,0,0.3v0.6l-0.6,1.1c-0.5,0.9-0.8,2-1.1,3
					c-0.2,0.7-0.4,1.4-0.8,2l-0.1,0.2c-1,2.1-2.2,3.9-3.3,5.6l-0.3,0.5c-1.3,1.8-2.7,3.3-4.3,4.3C388.9,68.7,386.9,69.4,384.8,69.4z
					"/>
			</g>
			<g>
				<path fill="#33CCCC" d="M414.3,68c-1.1,0-2-0.3-2.6-0.4l-0.4-0.1l-0.2-0.1c-2.9-1.2-4.9-3.1-6-5.7c-1.5,0.8-3.1,1.2-4.7,1.2h0
					c-6.6,0-11.6-6.6-12.1-12.7c-0.2-2.3-0.3-5.3,0.7-8.4c0.3-1.2,0.8-2.3,1.2-3.1l0.3-0.8l0.1-0.2c1.1-2.3,3.4-3.7,5.8-3.7
					c0.7,0,1.4,0.1,2,0.3c0.2,0,0.3,0.1,0.4,0.1c2.9,0.6,4.4,2.1,5.2,3.3c1.2,1.8,1.4,3.9,1.3,5.7c0.2-0.4,0.4-0.9,0.6-1.5
					c1.1-3,3-8,8.2-9.2l0.5-0.1l0.3,0c0.3,0,0.6-0.1,0.9-0.1c2.3,0,4.3,1.3,5.5,3.4c1.1,1.9,1.5,4,1.2,6.1c0,0.2,0,0.4-0.1,0.6
					c0.3,0,0.6-0.1,0.8-0.1c0.6,0,1.1,0.1,1.7,0.2c3,0.8,4.8,3.6,4.4,6.6l0,0.3l-0.3,1.4l-0.1,0.2c-0.7,2.1-1.5,4.2-2.4,6.3
					l-0.7,1.6c-0.1,0.2-0.2,0.4-0.3,0.6c-0.3,1-0.7,1.8-1.4,2.6l-0.1,0.1c-1.5,1.8-3.5,3.4-5.6,4.6l-0.2,0.1
					C416.7,67.7,415.5,68,414.3,68z"/>
			</g>
			<g>
				<path fill="#33CCCC" d="M428.1,70.8c-1.7,0-3.2-0.3-4.5-0.8c-1.3-0.4-2.4-1.1-3.2-1.5l-0.9-0.6l-0.1-0.1l-0.3-0.2l-0.4-0.3
					c-0.9-0.8-1.7-1.8-2.2-2.9l-0.1-0.3c-0.5-1-1-2.1-1.5-3.4c-0.7-2.2-0.7-4.5,0-6.9c0.8-5.9,4.6-6.8,6.2-6.9l-1.6-1.6h4
					c-0.2-0.4-0.4-0.8-0.6-1.2l-1.1-2c-0.6-1.1-1.3-2.4-1.9-3.8l-0.1-0.1c-1.2-3.3-1.4-6.5-0.6-9.6l0.1-0.2l0.1-0.2
					c0.3-0.7,0.6-1.6,1.2-2.4c1.5-2.5,3.3-4.2,5.6-5.3c1.4-0.7,2.9-1.1,4.4-1.1c1.9,0,3.7,0.6,5.4,1.7c1.2,0.7,2.3,1.7,3.2,2.8
					c1.2,1.5,1.8,3.3,2,5.4c0.2,2.8-0.6,5.6-2.4,8.1l-0.2,0.2c-0.4,0.5-0.9,1-1.5,1.3c0.1,0.2,0.2,0.3,0.3,0.5l0.3,0.4
					c0.3,0.3,0.6,0.8,0.9,1.3c1.4,2,2.7,4.3,4,6.8c0.9,1.9,1,3.7,1.1,4.9l0,0.3c0.1,3.1-0.5,5.9-1.9,8.5l-0.1,0.2
					c-0.1,0.4-0.3,0.8-0.4,1l-0.1,0.3c-0.8,1.5-3.2,6.2-8.9,7.5C430.6,70.6,429.3,70.8,428.1,70.8z"/>
			</g>
			<g>
				<path fill="#33CCCC" d="M446.3,65.9c-1.6,0-3.3-0.4-4.9-1.1c-1.3-0.6-2.4-1.5-3.2-2.5c-2.8-3.5-4.1-7.3-3.8-11.4l0-0.2
					c0-0.2,0-0.4,0-0.6c-0.1-0.5-0.1-1-0.1-1.3c0-2.6,0.4-5,0.7-7.3l0.1-0.9l0.4-2.7l0.1-0.4c-1.5-0.5-2.7-1.5-3.4-3l-0.1-0.3
					l-0.1-0.3c-0.9-2.7-0.2-5.4,2-7.3l0,0c1-0.9,2.3-2.1,4-3c1-4.1,1.7-7.2,2.5-10.1l0-0.2l1.5-5l0.3-1l0-0.1c0.4-1.1,0.9-2,1.1-2.5
					c1.4-2.4,3.9-3.9,6.7-3.9c1.2,0,2.4,0.3,3.5,0.8c2.2,1.1,3.6,3.2,3.7,5.6c0.1,1.4,0,2.7-0.3,3.9c-0.1,0.6-0.3,1.1-0.5,1.7
					c-0.1,0.3-0.2,0.6-0.3,0.9c-0.3,1-0.5,1.9-0.8,2.9c-0.1,0.2-0.1,0.5-0.2,0.7c1.9,0,3.7,0.9,4.9,2.5c1.6,2.1,1.6,5,0,7.2
					c-0.9,1.2-2,1.9-2.8,2.4l-0.2,0.1l-0.3,0.1c-0.2,0.1-0.3,0.2-0.5,0.3l-0.7,0.4c-1.1,0.6-2.3,1.3-3.8,1.9l-0.1,0.9
					c-0.1,0.8-0.2,1.5-0.4,2.2c-0.3,1.4-0.5,2.9-0.7,4.3l0,0.2c-0.3,1.7-0.5,3.3-0.8,4.9c1.1-1.2,2.7-1.9,4.4-1.9
					c0.9,0,1.9,0.2,2.7,0.6c2.1,1,3.4,3.2,3.4,5.5c0,1-0.2,1.9-0.5,2.6c-0.2,0.7-0.6,1.6-1.3,2.8c-0.3,0.6-0.7,1.5-0.9,1.8l-0.1,0.3
					l-0.1,0.2c-0.2,0.6-0.6,1.4-1.2,2.3l-0.1,0.1c0,0,0,0.1,0,0.1l-0.1,0.2l-0.2,0.3C454.3,63.6,450.6,65.9,446.3,65.9z"/>
			</g>
		</g>
	</g>
	<g>
		<path fill="#FFFFFF" d="M27.1,69.5c-0.5-0.5-0.9-1.1-1.2-1.9c-0.8-1.7-1.1-3.6-1.3-5c-0.6-4.5-0.6-8.9-0.4-13.4
			c0.1-4.7-0.1-9.4,0.5-14c0.1-1.2,0.2-2.3,0.2-3.5c0-0.3,0-0.6,0.1-0.9c-0.3,0.6-0.5,1.2-0.7,1.8c-0.8,2-1.5,4-2.2,6l-1.2,3.3
			l-0.9,2.3c-0.6,1.7-1.3,3.4-1.9,5c-1,3.2-2.4,6.1-3.8,9l-0.7,1.3c-0.2,0.6-0.5,1-0.9,1.4c-0.9,1.2-2.6,1.4-3.7,0.4
			c-3.2-2.5-3.1-7.9-3.6-11.7c-0.7-4.6,0.1-9.2,0.2-13.8c0.1-2.4,0.4-5,0.7-7.6c0.3-2.7,0.6-5.8,0.6-8.6c0-1.2,0.4-2.2,0.7-3.1
			l0.2-0.6c0.3-0.7,0.9-1.2,1.6-1.3c0.5-0.1,0.9-0.1,1.3-0.1h0.1c2.9,0,2.2,4.3,2,6.2c-0.3,3.7-0.3,7.6-0.4,11.4
			c-0.1,5.1-0.6,10.3-0.6,15.3v3.9c-0.1,0.4,0.1,0.7,0.1,1.2s0.8,2.5,0.6,2.9c0.9-1.7,1.6-3.5,2.3-5.3c0.1-0.5,0.4-1,0.6-1.5
			c4.1-10.1,6.3-21.5,12.4-30.5c0.2-0.3,0.4-0.7,0.6-1.2c0.2-0.6,0.5-1.3,1-1.9l0.1-0.2c0.2-0.4,0.6-1.1,1.3-1.1
			c0.1,0,0.2,0,0.3,0.1c1,0.3,1.1,1.4,1.1,1.9v0.3c0.4,2.8-0.1,5.8-0.2,8.6c-0.1,3.1-0.2,6.3-0.3,9.4c0,6.2,0.1,12.4-0.1,18.6
			c-0.1,2.7-0.1,5.4-0.1,8v2.1l3.9-10.9c0.7-1.9,1.4-3.8,2-5.8c1.2-3.6,2.5-7.4,4-11c0.6-1.4,1.1-2.8,1.6-4.2l1.5-4
			c0.7-1.8,1.4-3.6,2.2-5.4c1.7-4.4,3.5-8.9,5.5-13.2l0.1-0.4c0.4-0.8,0.8-1.7,1.5-2.4c0.4-0.5,1.2-0.4,1.7,0
			c0.2,0.3,0.4,0.7,0.4,1.2c0,0.3-0.1,0.6-0.3,1c-0.9,1.5-1.7,3.2-2.4,4.8l-0.3,0.6c-1.7,3.7-3.2,7.5-4.5,11.2
			c-0.6,1.4-1.2,2.9-1.7,4.3l-0.6,1.4C45,32.4,44,35.2,42.9,38c-1.1,2.9-2.1,5.8-3,8.5c-0.3,0.7-0.5,1.4-0.8,2.2
			c-0.8,2.5-1.7,5.1-2.7,7.6c-1,2.4-1.9,5-2.7,7.4l-1.1,3.2l-0.1,0.3c-0.2,0.6-0.4,1.3-0.9,1.9c-0.9,1.2-1.8,1.4-2.4,1.4
			C28.5,70.5,27.8,70.2,27.1,69.5z M27.2,66.6c-0.1-0.8-0.1-1.7-0.3-2.4c-0.5-2.8-0.7-5.3-0.6-7.8c0.1-0.7,0.1-1.6,0.1-2.4l-0.2-4
			c-0.1-1.2-0.1-2.5-0.3-3.8c0-0.2-0.1-0.4-0.2-0.7c-0.1,0.2-0.1,0.2-0.2,0.3c-0.1,0,0,0.4-0.1,0.4c0.1,1.7,0.1,3.5,0.1,5.2
			c0,2.1,0.1,4.1,0.3,6.1c0.1,2,0.3,3.8,0.6,5.8c0.1,0.3,0.1,0.6,0.1,0.9l0.3,2.5l0.4,0.6C27.2,67,27.2,66.7,27.2,66.6z"/>
		<path fill="#FFFFFF" d="M54,62.9c-1.4-0.4-2.6-1.5-3.4-3.1c-1-2.2-2.2-5.2-2-8.5c0.2-2.1,0.6-4,1.1-5.5L50,45
			c0.3-1.1,0.7-2.2,1.2-3.2c1.2-2.8,3-5.2,5.2-7c1.1-0.9,2.2-1.2,3.4-1.4l0.1-0.1c0.3-0.1,0.6,0,0.9,0c1.7,0.3,4,2.4,4.4,4
			c0.1,0.5,0.1,0.9,0,1.3v0.1c-0.4,1.3-0.7,2.7-1.5,3.9c-3.5,5.5-10.2,7.8-7.3,15c0.4,1,2.1,2.3,3.5,2.4c0.2,0,0.4-0.1,0.6-0.1
			c0.6-0.1,1.1-0.5,1.5-1l0.6-0.6c0.4-0.5,0.9-1,1.4-1.6c1.7-2,3.5-4.3,5-6.8l0.6-1.3c0.1-0.4,0.3-0.6,0.4-1
			c0.3-0.6,0.9-0.9,1.6-0.6c0.3,0.1,0.6,0.4,0.7,0.7c0.1,0.4,0.1,0.9-0.1,1.2c-1.7,2.9-3.4,5.5-5.3,7.9c-0.3,0.4-0.6,0.7-0.9,1
			c-0.5,0.5-0.9,1-1.3,1.5c-1.1,1.4-2.5,2.3-4,3.1l-0.5,0.2c-0.6,0.4-1.4,0.6-2.1,0.6h-0.4h-0.1C56.2,63.5,55.1,63.2,54,62.9z
			 M56.2,47.5c2.4-1.9,4.2-3.9,5.5-6c0.5-0.8,0.8-1.7,1.1-2.6l0.1-0.7c-0.1-1.3-0.6-1.3-0.7-1.3s-0.4,0.1-0.6,0.2
			c-0.6,0.3-1.1,0.6-1.4,1.1c-0.8,1.1-1.6,2.3-2.4,4c-0.8,1.7-1.4,3.5-1.9,5.5C56,47.7,56.1,47.6,56.2,47.5z"/>
		<path fill="#FFFFFF" d="M74,62.9c-1.4-0.4-2.6-1.5-3.4-3.1c-1-2.2-2.2-5.2-2-8.5c0.2-2.1,0.6-4,1.1-5.5l0.3-0.7
			c0.3-1.1,0.7-2.2,1.2-3.2c1.2-2.8,3-5.2,5.2-7c1.1-0.9,2.2-1.2,3.4-1.4l0.1-0.1c0.3-0.1,0.6,0,0.9,0c1.7,0.3,4,2.4,4.4,4
			c0.1,0.5,0.1,0.9,0,1.3v0.1c-0.4,1.3-0.7,2.7-1.5,3.9c-3.5,5.5-10.2,7.8-7.3,15c0.4,1,2.1,2.3,3.5,2.4c0.2,0,0.4-0.1,0.6-0.1
			c0.6-0.1,1.1-0.5,1.5-1l0.6-0.6c0.4-0.5,0.9-1,1.4-1.6c1.7-2,3.5-4.3,5-6.8l0.6-1.3c0.1-0.4,0.3-0.6,0.4-1
			c0.3-0.6,0.9-0.9,1.6-0.6c0.3,0.1,0.6,0.4,0.7,0.7c0.1,0.4,0.1,0.9-0.1,1.2c-1.7,2.9-3.4,5.5-5.3,7.9c-0.3,0.4-0.6,0.7-0.9,1
			c-0.5,0.5-0.9,1-1.3,1.5c-1.1,1.4-2.5,2.3-4,3.1L80,62.9c-0.6,0.4-1.4,0.6-2.1,0.6h-0.4h-0.1C76.1,63.5,75.1,63.2,74,62.9z
			 M76.1,47.5c2.4-1.9,4.2-3.9,5.5-6c0.5-0.8,0.8-1.7,1.1-2.6l0.1-0.7c-0.1-1.3-0.6-1.3-0.7-1.3s-0.4,0.1-0.6,0.2
			c-0.6,0.3-1.1,0.6-1.4,1.1c-0.8,1.1-1.6,2.3-2.4,4c-0.8,1.7-1.4,3.5-1.9,5.5C76,47.7,76.1,47.6,76.1,47.5z"/>
		<path fill="#FFFFFF" d="M89.1,62.2c-0.4-0.7-0.6-1.6-0.6-2.4l0.1-1.1c0.1-1.4,0.2-2.7,0.4-4.1c0.1-1,0.4-2,0.5-3.1
			c0.3-1.5,0.6-3.1,0.7-4.7c0.1-0.8,0.3-1.7,0.4-2.4c0.2-1.3,0.4-2.4,0.4-3.7c0-0.3,0-0.5,0.1-0.7l0.6-2.8c0.4-1.6,0.7-3.2,1-4.8
			c0.2-0.8,0.4-1.7,0.5-2.7c0.1-1.2,0.4-2.4,0.8-3.6c0.4-1.1,0.6-2,0.7-3c0.4-2.6,1.4-5,2.3-7.4l0.4-0.9c0.1-0.4,0.4-1.3,1.4-1.3
			c0.3,0,0.6,0.1,0.9,0.2c0.4,0.1,0.7,0.2,1,0.3c1,0.4,1.3,0.9,1.2,2c-0.1,1.9-0.6,4-1.2,5.9c-0.4,1.4-0.7,2.6-0.9,3.6
			c-0.5,2.6-1.1,5.1-1.7,7.7l-0.9,3.8c-0.6,2.7-1.2,5.5-1.6,8.2l0.3-0.6c0.6-1.2,1.2-2.3,1.8-3.5c0.7-1.2,1.3-2.4,1.7-3.7
			c0.2-0.5,0.5-1,0.8-1.4l0.2-0.4l0.4-0.8c0.3-0.4,0.5-0.8,0.7-1.2c0.7-1.5,1.8-2.7,2.8-4c0.2-0.3,0.4-0.5,0.6-0.7
			c0.6-0.7,1.3-1.2,2-1.6l0.4-0.2c0.6-0.3,1.2-0.4,2-0.2c0.8,0.1,1.3,0.7,1.4,1.4c0,0.1,0.1,0.3,0.1,0.4c0.1,0.5,0.1,1,0,1.5
			c-0.4,2.2-0.8,4-2,5.6c-3,4-5.8,7.8-9.4,11.2l-0.3,0.3c0.1,0.1,0.1,0.1,0.3,0.1c0.1,0.1,0.4,0.3,0.5,0.5c1.7,2.4,2.6,4.5,2.7,6.8
			l0.2,2.4c0,0.5,0.1,1.1,0.1,1.6c0.1,0.5,0.1,0.9,0.4,1.2c0.6,0.9,1.7,1,2.4,0.4c0.4-0.4,0.9-0.8,1.3-1.3l1.1-1.6
			c1-1.5,2.1-3,2.8-4.7c0.2-0.6,0.5-1.2,0.8-1.7c0.6-1.1,1.1-2.1,1.4-3.2c0.2-0.7,0.8-1.1,1.5-0.9c0.4,0.1,0.6,0.2,0.8,0.5
			c0.1,0.4,0.1,0.8,0,1.3c-0.3,0.6-0.6,1.4-0.9,2l-0.9,1.7c-0.4,0.8-0.9,1.7-1.2,2.4c-1,2.2-2.3,4-3.3,5.3c-0.4,0.6-0.9,1.1-1.4,1.5
			c-1.4,1.2-2.8,1.5-4.5,0.9c-1.2-0.4-2-1.2-2.5-2.4c-0.1-0.4-0.3-1-0.3-1.5c-0.1-1.8-0.6-3.5-1.2-5.3l-0.6-2.3
			c-0.1-0.2-0.2-0.4-0.4-0.6c-0.4-0.6-0.5-0.6-0.5-0.6c-0.1,0-0.2,0-0.6,0.5l-0.3,0.4c-0.3,0.4-0.6,0.9-1,1.2
			c-0.3,0.3-0.4,0.6-0.6,1.1c-0.3,1.5-0.8,3-1.3,4.4c-0.4,1.1-0.6,2.3-0.8,3.7c-0.1,1.2-0.3,1.5-1.4,1.7c-0.4,0.1-0.6,0.1-0.9,0.1
			C90,63.4,89.5,63,89.1,62.2z M95.6,29.3c0.1-0.5,0.4-0.9,0.4-1.4c0.3-0.7,0.5-1.4,0.6-2.2c0.2-0.6,0.1-1.2,0.3-1.9
			c0.2-0.8,0.8-1.7,0.6-2.4c-0.3-1.2,0.5-1.3,0.9-2.4c-0.6-0.3-0.3-1.7-0.2-1.9c0.2-0.6,0.8-0.1,0.3-0.6c-0.3,0.4-0.6,0.6-0.7,0.9
			c-0.6,2.4-1.1,3.9-1.7,6.3c-0.4,1.9-1,3.7-1.5,5.6c-0.1,0.8-0.1,1.7-0.3,2.5C95.2,31.1,95.4,30.2,95.6,29.3z M97.5,32.6
			c0.1-1.4,0.1-2.8,0.2-4.2c-0.3,1.3-0.6,2.7-0.9,4.1c0,0.1,0.2,0.3,0.3,0.4C97.2,32.7,97.5,32.6,97.5,32.6z M101.1,41.6
			c1.9-2.4,3.4-4.9,4.6-7.6c0.5-1.1,0.8-2,1-3c-1.2,1.2-2.1,2.3-2.7,3.5c-0.4,0.7-0.7,1.3-1.2,1.9c-0.4,0.7-0.9,1.4-1.2,2.2
			c-0.6,1.4-1.3,3-2.1,4.5C100.2,42.7,100.7,42.2,101.1,41.6z"/>
		<path fill="#FFFFFF" d="M118.2,62.9c-1.4-0.4-2.6-1.5-3.4-3.1c-1-2.2-2.2-5.2-2-8.5c0.2-2.1,0.6-4,1.1-5.5l0.3-0.7
			c0.3-1.1,0.7-2.2,1.2-3.2c1.2-2.8,3-5.2,5.2-7c1.1-0.9,2.2-1.2,3.4-1.4l0.1-0.1c0.3-0.1,0.6,0,0.9,0c1.7,0.3,4,2.4,4.4,4
			c0.1,0.5,0.1,0.9,0,1.3v0.1c-0.4,1.3-0.7,2.7-1.5,3.9c-3.5,5.5-10.2,7.8-7.3,15c0.4,1,2.1,2.3,3.5,2.4c0.2,0,0.4-0.1,0.6-0.1
			c0.6-0.1,1.1-0.5,1.5-1l0.6-0.6c0.4-0.5,0.9-1,1.4-1.6c1.7-2,3.5-4.3,5-6.8l0.6-1.3c0.1-0.4,0.3-0.6,0.4-1
			c0.3-0.6,0.9-0.9,1.6-0.6c0.3,0.1,0.6,0.4,0.7,0.7c0.1,0.4,0.1,0.9-0.1,1.2c-1.7,2.9-3.4,5.5-5.3,7.9c-0.3,0.4-0.6,0.7-0.9,1
			c-0.5,0.5-0.9,1-1.3,1.5c-1.1,1.4-2.5,2.3-4,3.1l-0.5,0.2c-0.6,0.4-1.4,0.6-2.1,0.6h-0.4h-0.1C120.3,63.5,119.3,63.2,118.2,62.9z
			 M120.3,47.5c2.4-1.9,4.2-3.9,5.5-6c0.5-0.8,0.8-1.7,1.1-2.6l0.1-0.7c-0.1-1.3-0.6-1.3-0.7-1.3s-0.4,0.1-0.6,0.2
			c-0.6,0.3-1.1,0.6-1.4,1.1c-0.8,1.1-1.6,2.3-2.4,4c-0.8,1.7-1.4,3.5-1.9,5.5C120.2,47.7,120.3,47.6,120.3,47.5z"/>
		<path fill="#FFFFFF" d="M148.6,64.5c-1.4-2.5-2.5-5.3-3.1-8.3c-0.1-1-0.1-2.1-0.1-3.1c0-0.4,0.1-0.9,0.1-1.4V47
			c-0.9,1.2-1.6,2.2-2.1,3.2l-5.6,9.7c-0.4,0.8-1.2,1.2-2,1.2c-0.6,0-1.2-0.1-1.6-0.6c-0.9-0.7-1.2-1.8-1.4-2.7v-0.2
			c-0.2-0.7-0.1-1.4-0.1-2.2c0.1-0.4,0.1-0.9,0.1-1.4c0.1-0.6,0.1-1.1,0.1-1.7c0.1-1.4,0.2-2.7,0.4-4.1c0.1-1.2,0.3-2.4,0.4-3.6
			c0-0.6,0.1-1.2,0.2-1.9c0.1-0.8,0.2-1.6,0.1-2.4c0-0.4,0.1-0.9,0.4-1.4l0.2-0.6c0.4-1.1,0.7-1.7,2.2-1.7h0.9
			c1.2,0.1,1.8,0.2,2.2,0.7c0.4,0.5,0.4,1.3,0.2,2.4c-0.1,1.2-0.3,2.2-0.5,3.4c-0.1,0.7-0.2,1.4-0.4,2.1c0,0.4-0.1,0.7-0.1,1.1
			c-0.1,1-0.2,2.1-0.6,3.1c-0.1,0.1-0.1,0.2-0.1,0.3l-0.1,0.4c-0.1,0.3-0.1,0.5-0.1,0.7c0,0.9-0.1,1.9-0.1,2.8l3.5-5.8
			c0.8-1.4,1.8-2.7,3.1-4.2l0.6-0.6c0.5-0.6,1-1.3,1.6-1.9c0.6-0.7,1.4-1.1,2.2-1.1c1.2,0,2,0.9,2.5,2.2c0.8,2.4,1,4.5,0.6,6.3
			c-0.1,0.5-0.1,1.1-0.1,1.7l0.6,8.3v0.1c0.1,0.1,0.1,0.4,0.1,0.5c0.8,1.2,1.5,2.2,2.5,3c0.1,0.1,0.2,0.2,0.4,0.2
			c0.1,0,0.2-0.1,0.4-0.2c1.2-1,1.9-1.8,2.5-2.7c1.2-2.2,2.7-4.7,4-7.3c0.3-0.5,0.5-1.2,0.8-1.8c0.1-0.3,0.2-0.6,0.3-0.9
			c0.1-0.1,0.1-0.2,0.1-0.4c0.1-0.3,0.2-0.5,0.3-0.7c0.2-0.4,0.6-0.6,1-0.6h0.1c0.5,0.1,0.9,0.4,1.1,0.8c0.2,0.6,0,1.1-0.1,1.3
			l-0.4,1l-0.9,2c-1.5,3.2-3.3,6.2-5.1,9.2c-1.4,2.2-3.5,3.5-6.1,4h-0.4h-0.4c-0.1,0-0.3,0-0.4,0.1c-0.4,0.2-0.9,0.3-1.4,0.3
			C150.7,66.5,149.6,66.1,148.6,64.5z M148.1,57.5c0.1-0.5,0.1-1,0.1-1.4c0-0.8,0-1.6-0.1-2.2c0-0.6-0.3-1.2-0.3-1.9
			c-0.1-0.9,0.2-1.8-0.1-2.5c-0.6-1,0.1-1.4,0.1-2.6c-0.6-0.1-0.8-1.4-0.8-1.8c0-0.6,0.7-0.3,0.1-0.6c-0.1,0.4-0.4,0.8-0.4,1.2
			c0.2,2.5,0.1,4,0.4,6.5c0.1,1.9,0.1,3.9,0.3,5.8c0.1,0.8,0.4,1.6,0.5,2.5C148.3,59.3,148.1,58.4,148.1,57.5z M150.9,60.1l-1.1-4.2
			c0.1,1.4,0.3,2.9,0.4,4.2l0.4,0.3C150.7,60.3,150.9,60.1,150.9,60.1z"/>
		<path fill="#FFFFFF" d="M197.2,44.5c-0.1,0.4-0.4,0.7-0.5,1.1l-0.7,1.4c-1.6,3.2-3.2,6.1-5.1,8.8c-0.5,0.7-1,1.4-1.5,2.2l-0.6,0.9
			c-1,1.6-2.6,2.8-4.6,3.5c-0.7,0.3-1.3,0.4-1.9,0.4c-1.2,0-2.2-0.4-3.1-1.4c-1-1-2.1-2.3-2.5-4c0-0.2-0.1-0.4-0.1-0.4l-0.1,0.2
			l-1.5,1.6l-0.2,0.2c-0.6,0.8-1.4,1.5-2.2,2.2c-1.8,1.5-3.9,1.4-5.6-0.1c-3-2.8-4-6.6-2.8-10.5c0.8-2.9,1.7-5.2,2.8-7.1
			c0.4-0.6,0.8-1.1,1.2-1.7l0.7-0.9c0.6-0.9,1.4-1.3,2.2-1.7c1.4-0.6,2.4-0.6,3.4,0.2v-0.4c-0.1-3.3,0.4-6.7,1.4-11.2
			c0.4-1.4,0.6-2.8,0.9-4.2l0.4-2.1c0.6-2.7,1.6-5.3,3.1-7.6c1-1.6,2.4-2.2,4-1.8c0.9,0.2,1.7,0.8,2.3,1.4l0.3,0.2
			c0.7,0.6,0.8,1.4,0.9,2.2c0.1,0.9,0.1,1.8,0,2.7c0,0.6,0,1.3,0.1,1.9c0.1,1.7-0.3,3.3-0.6,4.9c-0.1,0.6-0.4,1.4-0.4,2.1
			c-0.1,0.4-0.1,0.9-0.1,1.4c-0.1,0.6-0.1,1.3-0.2,1.9l-0.9,4l-0.6,3.2l-0.2,0.8c-0.1,0.4-0.1,0.7-0.2,1.1c-0.5,2.3-1.3,4.7-2.7,7.4
			l-0.5,0.9c-0.1,0.3-0.3,0.6-0.4,0.9c-0.3,0.6-0.4,1.2-0.3,1.7l0.4,2.9c0.2,1.2,0.4,2.3,0.5,3.4c0.1,1.4,1.2,2.2,2.4,3
			c0.1,0,0.1,0,0.4-0.1c0.6-0.4,1.2-0.8,1.8-1.4c0.7-0.7,1.4-1.7,1.9-2.6c0.3-0.4,0.5-0.8,0.8-1.2l0.4-0.6c0.1-0.3,0.4-0.6,0.6-0.9
			c1.9-2.6,3.5-5.5,5.2-9.1c0.1-0.2,0.2-0.5,0.4-0.6c0.4-0.5,1.1-0.6,1.5-0.2C197.3,43.4,197.5,44,197.2,44.5z M167.9,56.4
			c0-0.1-0.1-0.2-0.2-0.3h-0.1c0,0,0,0-0.1,0c-0.1,0-0.2,0.1-0.2,0.1c0,0.1,0,0.1,0.1,0.2c0,0.1,0.1,0.1,0.2,0.2l0.1-0.6v0.6
			L167.9,56.4L167.9,56.4z M168.9,51.3c0-0.1,0-0.1-0.1-0.3c-0.1,0-0.1-0.1-0.2-0.1c-0.1,0.1-0.2,0.1-0.3,0.1v0.1
			c-0.1,0.1-0.1,0.1,0,0.2l0.2,0.1l0.1-0.6L168.9,51.3C168.8,51.4,168.8,51.3,168.9,51.3z M175.6,52.9l-0.2-1.7
			c-0.1-1.3-0.3-2.5-0.6-3.7c-0.3-0.9-0.5-1.9-0.7-2.9c-0.1-0.5-0.2-1-0.3-1.5l-0.4-1.4c0,0-0.1,0-0.1,0H173
			c-0.3,0.1-0.4,0.3-0.5,0.5c-0.1,0.2-0.2,0.4-0.3,0.5c-0.2,0.4-0.4,0.9-0.5,1.2c-1.3,3.9-1.7,7.8-1.9,11.2c-0.1,0.9,0,1.7,0.1,2.7
			v0.1c0,0.3,0.1,0.4,0.3,0.5c0.1,0.1,0.2,0.1,0.4,0.2c0.1,0.1,0.4,0.2,0.5,0.4l0.1,0.1c0,0,0.1-0.1,0.1-0.1c1.7-1.6,2.9-3,3.8-4.5
			C175.6,53.8,175.6,53.4,175.6,52.9z M180,18.5c0.1-0.1,0.1-0.3,0.1-0.3c-0.8-0.1-0.6-0.3-0.1-0.5c0.1-0.1,0.2-0.2,0.2-0.3
			c-0.1-0.2-0.4-0.4-0.6-0.4c-0.1,0.1-0.3,0.2-0.2,0.4c-0.4,1.2-0.8,2.4-1,3.6l-1.7,7.8c-0.2,1.4-0.5,2.7-0.7,4h0.1
			c-0.1,0.6-0.1,1.1-0.1,1.7c0,0.1,0.1,0.2,0.2,0.3c0.1-0.1,0.3-0.1,0.4-0.2c0.1-0.2,0.1-0.4,0.1-0.6c0.1-0.7,0.2-1.5,0.4-2.2
			c0-0.1,0.1-0.3,0.1-0.4c-0.3-0.9,0.1-1.6,0.4-2.2c0.1-0.4,0.2-0.6,0.1-1c-0.2-0.8-0.1-1.5,0.6-2.1c0.2-0.1,0.3-0.4,0.3-0.6
			c-0.5-1.2-0.2-2.3,0.6-3.3c0.1-0.2,0.1-0.4,0.1-0.6C178.7,20.3,179.2,19.4,180,18.5z M179.5,46c1.2-2.4,2.3-4.7,2.7-7.3l0.2-1.1
			c0.1-0.6,0.3-1.3,0.5-1.9c0.3-1.4,0.6-2.7,0.9-4.2c0.4-1.9,0.6-3.8,0.9-5.8c0.2-1.1,0.4-2.2,0.5-3.2c0.3-2,0.4-4,0.1-6.2l-0.4,0.8
			c-0.8,2.4-1.4,5-2.1,8.5c-0.3,2-0.7,3.6-1.3,5.1c-0.4,1-0.8,2.2-0.9,3.5l-0.4,3.5c-0.3,1.9-0.6,3.7-0.6,5.7c0,0.6-0.1,1.3-0.1,2
			V46z M179.7,15.9h-0.1l0.1,0.4c0.1-0.1,0.1-0.2,0.3-0.3c0.1-0.1,0.1-0.2,0.3-0.4c-0.1-0.1,0.1-0.2,0.1-0.4l-0.2-0.1
			c-0.2,0.1-0.4,0.1-0.5,0.3C179.7,15.6,179.7,15.7,179.7,15.9z"/>
		<path fill="#FFFFFF" d="M233.4,62c-0.9-0.4-1.9-1-2.6-2.2c-2.1-3-3.2-6.3-3.5-10c-0.2-2.2-0.4-4.8,0-7.4c-1,1.7-2,3.5-2.8,5.3
			c-0.7,1.8-1.8,3.5-3.3,5.3c-1,1.2-2.4,2.3-4,3c-0.5,0.2-1.1,0.4-1.7,0.4c-1.9,0-3.6-1.3-4.1-3.1c-0.1-0.6-0.3-1.2-0.4-2v-1.4
			c0-0.2,0-0.4,0-0.6c0.1-2.6,0.4-4.8,1.3-7.6c0.3-1,0.5-2,0.7-3.1l0.1-0.9c0.1-0.5,0.2-1,0.5-1.5c0.4-0.6,1-1.4,2.4-0.9
			c0.4,0.1,0.8,0.3,1.2,0.3c1.2,0.2,1.3,1.1,1.3,1.8c-0.1,0.7-0.1,1.3-0.3,1.9l-0.2,1c-0.4,1.8-0.9,3.7-1.4,5.5
			c-0.6,2.2-0.6,4.5,0.1,6.8L217,53c0.1,0.2,0.2,0.2,0.4,0.1c1.1-0.5,2-1.3,2.7-2.3c3-4,6.1-19.9,12.1-19.9c0.2,0,0.4,0.1,0.6,0.1
			c0.7,0.4,0.9,1.2,0.9,1.9v1.8c0.1,5.5-2.1,11.2-0.4,16.6c0.1,0.4,0.1,0.8,0.1,1.2v0.2v0.7c-0.1,0.4-0.1,0.7,0,1
			c0.1,0.2,0.2,0.4,0.3,0.6c0.1,0.4,0.4,0.7,0.4,1.2c0,0.4,0.2,0.6,0.7,0.9c0.3,0.2,0.4,0.2,0.6,0.2c0.1,0,0.2,0,0.4-0.4
			c0.2-0.4,0.5-0.9,0.6-1.4c0.3-1.5,1-2.7,1.7-4.2c1-1.8,1.5-3.8,1.9-5.6c0.4-1.7,0.9-3.2,1.4-4.6c0.3-0.6,0.5-1.3,0.7-1.9
			c0.4-1.2,0.9-2.3,1.6-3.6l1.1-1.9c0.4-0.9,1-1.9,1.6-2.9l0.1-0.2c1.5-2.4,3-4.9,5.4-6.8c0.4-0.4,1.2-0.2,1.4,0.3
			c0.1,0.3,0.1,0.9-0.1,1.2c-2.2,1.9-3.6,4.4-5,6.9c-0.4,0.9-0.9,1.7-1.4,2.5c-1.6,2.6-2.7,5.4-3.7,8.3c-0.4,1.1-0.9,2.3-1,3.5
			c-0.3,1.8-0.9,3.5-1.6,5l-0.4,0.9c-0.6,1.5-1.4,3.3-1.8,5.1c-0.4,1.6-1.1,3.5-3.1,4.5c-0.3,0.1-0.7,0.4-1.2,0.4
			C234,62.3,233.7,62.2,233.4,62z"/>
		<path fill="#FFFFFF" d="M265.6,62.5c-0.9-0.1-2-0.3-2.8-1.3c-0.9-1.2-1.4-2.2-1.7-3.5c-0.1-1.3,0-2.6,0.1-3.8
			c0-0.3,0.1-0.6,0.1-0.9c-0.1,0.1-0.1,0.2-0.1,0.3c-1.2,1.6-2.6,3.1-4.1,4.5c-1.3,1.2-3,1.8-4.9,1.9c-1,0-1.8-0.4-2.4-0.9
			c-1.3-1.3-1.9-2.6-1.9-4.1c0-1.2,0.1-2.2,0.4-3.3l0.1-0.4c0.6-2.8,1.6-5.8,3.2-9.4c1.2-2.7,3.2-4.6,5.8-5.6c2-0.8,3.7-0.3,5,1.5
			c1.2,1.8,1.6,3.9,1,6.2c-0.2,0.6-0.9,1-1.4,0.7c-0.4-0.1-0.7-0.6-0.7-1l0.1-0.8c0.1-0.4,0.1-0.9,0-1.2c0-0.1,0-0.4-0.1-0.5
			c0-0.1,0-0.3-0.1-0.4c0-0.1,0-0.2-0.1-0.4c-0.1-0.6-0.2-0.9-0.5-0.9c-0.5-0.1-1,0.6-1.2,0.9c-1.2,1.4-1.8,2.6-2.1,3.9
			c-0.1,0.8-0.4,1.6-0.8,2.5c-0.8,1.9-1.2,4-1.7,6l-0.4,1.9c-0.1,0.8-0.1,1.5,0.4,2.2h0.1c1-0.8,1.9-1.6,2.6-2.4l0.8-0.9
			c0.9-1.2,2-2.5,3.1-3.7c0.6-0.6,0.9-1.3,1.2-2.3c0.4-1.7,1-3.4,1.6-5.1c0.3-0.9,0.7-1.9,1.1-2.7c0.5-1.2,1.4-1.4,2.1-1.4
			c0.3,0,0.6,0,0.9,0.1c0.1,0.1,0.3,0.1,0.4,0.1c4.5,1.1,1.2,5.8,0.1,8.5c-1,2.7-3,8.4-2.6,11.2c0.1,0.2,0.1,0.4,0.4,0.4
			c0.1,0,0.2,0,0.4-0.1c0.8-0.4,1.4-1.2,2-1.9l0.2-0.2c1.2-1.4,2.7-3.4,3.7-5.6l0.1-0.1c0.3-0.6,0.5-1.1,0.6-1.7
			c0.1-0.3,0.2-0.6,0.4-0.9c0.4-0.4,1.1-0.4,1.5-0.1c0.4,0.2,0.5,0.6,0.5,1c0,0.3-0.1,0.6-0.2,0.8c-1.4,3-2.8,5.3-4.4,7.2
			c-0.3,0.3-0.5,0.6-0.6,0.9c-0.9,1.5-1.9,3-3.6,4c-0.1,0.1-0.1,0.1-0.2,0.3c-0.2,0.3-0.6,0.7-1.2,0.7
			C265.8,62.6,265.7,62.6,265.6,62.5z"/>
		<path fill="#FFFFFF" d="M288.5,64.5c-1.4-2.5-2.5-5.3-3.1-8.3c-0.1-1-0.1-2.1-0.1-3.1c0-0.4,0.1-0.9,0.1-1.4V47
			c-0.9,1.2-1.6,2.2-2.1,3.2l-5.6,9.7c-0.4,0.8-1.2,1.2-2,1.2c-0.6,0-1.2-0.1-1.6-0.6c-0.9-0.7-1.2-1.8-1.4-2.7v-0.2
			c-0.2-0.7-0.1-1.4-0.1-2.2c0.1-0.4,0.1-0.9,0.1-1.4c0.1-0.6,0.1-1.1,0.1-1.7c0.1-1.4,0.2-2.7,0.4-4.1c0.1-1.2,0.3-2.4,0.4-3.6
			c0-0.6,0.1-1.2,0.2-1.9c0.1-0.8,0.2-1.6,0.1-2.4c0-0.4,0.1-0.9,0.4-1.4l0.2-0.6c0.4-1.1,0.7-1.7,2.2-1.7h0.9
			c1.2,0.1,1.8,0.2,2.2,0.7c0.4,0.5,0.4,1.3,0.2,2.4c-0.1,1.2-0.3,2.2-0.5,3.4c-0.1,0.7-0.2,1.4-0.4,2.1c0,0.4-0.1,0.7-0.1,1.1
			c-0.1,1-0.2,2.1-0.6,3.1c-0.1,0.1-0.1,0.2-0.1,0.3l-0.1,0.4c-0.1,0.3-0.1,0.5-0.1,0.7c0,0.9-0.1,1.9-0.1,2.8l3.5-5.8
			c0.8-1.4,1.8-2.7,3.1-4.2l0.6-0.6c0.5-0.6,1-1.3,1.6-1.9c0.6-0.7,1.4-1.1,2.2-1.1c1.2,0,2,0.9,2.5,2.2c0.8,2.4,1,4.5,0.6,6.3
			c-0.1,0.5-0.1,1.1-0.1,1.7l0.6,8.3v0.1c0.1,0.1,0.1,0.4,0.1,0.5c0.8,1.2,1.5,2.2,2.5,3c0.1,0.1,0.2,0.2,0.4,0.2
			c0.1,0,0.2-0.1,0.4-0.2c1.2-1,1.9-1.8,2.5-2.7c1.2-2.2,2.7-4.7,4-7.3c0.3-0.5,0.5-1.2,0.8-1.8c0.1-0.3,0.2-0.6,0.3-0.9
			c0.1-0.1,0.1-0.2,0.1-0.4c0.1-0.3,0.2-0.5,0.3-0.7c0.2-0.4,0.6-0.6,1-0.6h0.1c0.5,0.1,0.9,0.4,1.1,0.8c0.2,0.6,0,1.1-0.1,1.3
			l-0.4,1l-0.9,2c-1.5,3.2-3.3,6.2-5.1,9.2c-1.4,2.2-3.5,3.5-6.1,4h-0.4h-0.4c-0.1,0-0.3,0-0.4,0.1c-0.4,0.2-0.9,0.3-1.4,0.3
			C290.5,66.5,289.5,66.1,288.5,64.5z M288,57.5c0.1-0.5,0.1-1,0.1-1.4c0-0.8,0-1.6-0.1-2.2c0-0.6-0.3-1.2-0.3-1.9
			c-0.1-0.9,0.2-1.8-0.1-2.5c-0.6-1,0.1-1.4,0.1-2.6c-0.6-0.1-0.8-1.4-0.8-1.8c0-0.6,0.7-0.3,0.1-0.6c-0.1,0.4-0.4,0.8-0.4,1.2
			c0.2,2.5,0.1,4,0.4,6.5c0.1,1.9,0.1,3.9,0.3,5.8c0.1,0.8,0.4,1.6,0.5,2.5C288.2,59.3,288,58.4,288,57.5z M290.8,60.1l-1.1-4.2
			c0.1,1.4,0.3,2.9,0.4,4.2l0.4,0.3C290.5,60.3,290.8,60.1,290.8,60.1z"/>
		<path fill="#FFFFFF" d="M337,44.5c-0.1,0.4-0.4,0.7-0.5,1.1l-0.7,1.4c-1.6,3.2-3.2,6.1-5.1,8.8c-0.5,0.7-1,1.4-1.5,2.2l-0.6,0.9
			c-1,1.6-2.6,2.8-4.6,3.5c-0.7,0.3-1.3,0.4-1.9,0.4c-1.2,0-2.2-0.4-3.1-1.4c-1-1-2.1-2.3-2.5-4c0-0.2-0.1-0.4-0.1-0.4l-0.1,0.2
			l-1.5,1.6l-0.2,0.2c-0.6,0.8-1.4,1.5-2.2,2.2c-1.8,1.5-3.9,1.4-5.6-0.1c-3-2.8-4-6.6-2.8-10.5c0.8-2.9,1.7-5.2,2.8-7.1
			c0.4-0.6,0.8-1.1,1.2-1.7l0.7-0.9c0.6-0.9,1.4-1.3,2.2-1.7c1.4-0.6,2.4-0.6,3.4,0.2v-0.4c-0.1-3.3,0.4-6.7,1.4-11.2
			c0.4-1.4,0.6-2.8,0.9-4.2l0.4-2.1c0.6-2.7,1.6-5.3,3.1-7.6c1-1.6,2.4-2.2,4-1.8c0.9,0.2,1.7,0.8,2.3,1.4l0.3,0.2
			c0.7,0.6,0.8,1.4,0.9,2.2c0.1,0.9,0.1,1.8,0,2.7c0,0.6,0,1.3,0.1,1.9c0.1,1.7-0.3,3.3-0.6,4.9c-0.1,0.6-0.4,1.4-0.4,2.1
			c-0.1,0.4-0.1,0.9-0.1,1.4c-0.1,0.6-0.1,1.3-0.2,1.9l-0.9,4l-0.6,3.2l-0.2,0.8c-0.1,0.4-0.1,0.7-0.2,1.1c-0.5,2.3-1.3,4.7-2.7,7.4
			L321,48c-0.1,0.3-0.3,0.6-0.4,0.9c-0.3,0.6-0.4,1.2-0.3,1.7l0.4,2.9c0.2,1.2,0.4,2.3,0.5,3.4c0.1,1.4,1.2,2.2,2.4,3
			c0.1,0,0.1,0,0.4-0.1c0.6-0.4,1.2-0.8,1.8-1.4c0.7-0.7,1.4-1.7,1.9-2.6c0.3-0.4,0.5-0.8,0.8-1.2l0.4-0.6c0.1-0.3,0.4-0.6,0.6-0.9
			c1.9-2.6,3.5-5.5,5.2-9.1c0.1-0.2,0.2-0.5,0.4-0.6c0.4-0.5,1.1-0.6,1.5-0.2C337.1,43.4,337.3,44,337,44.5z M307.8,56.4
			c0-0.1-0.1-0.2-0.2-0.3h-0.1c0,0,0,0-0.1,0c-0.1,0-0.2,0.1-0.2,0.1c0,0.1,0,0.1,0.1,0.2c0,0.1,0.1,0.1,0.2,0.2l0.1-0.6v0.6
			L307.8,56.4L307.8,56.4z M308.7,51.3c0-0.1,0-0.1-0.1-0.3c-0.1,0-0.1-0.1-0.2-0.1c-0.1,0.1-0.2,0.1-0.3,0.1v0.1
			c-0.1,0.1-0.1,0.1,0,0.2l0.2,0.1l0.1-0.6L308.7,51.3C308.6,51.4,308.6,51.3,308.7,51.3z M315.4,52.9l-0.2-1.7
			c-0.1-1.3-0.3-2.5-0.6-3.7c-0.3-0.9-0.5-1.9-0.7-2.9c-0.1-0.5-0.2-1-0.3-1.5l-0.4-1.4c0,0-0.1,0-0.1,0h-0.1
			c-0.3,0.1-0.4,0.3-0.5,0.5c-0.1,0.2-0.2,0.4-0.3,0.5c-0.2,0.4-0.4,0.9-0.5,1.2c-1.3,3.9-1.7,7.8-1.9,11.2c-0.1,0.9,0,1.7,0.1,2.7
			v0.1c0,0.3,0.1,0.4,0.3,0.5c0.1,0.1,0.2,0.1,0.4,0.2c0.1,0.1,0.4,0.2,0.5,0.4l0.1,0.1c0,0,0.1-0.1,0.1-0.1c1.7-1.6,2.9-3,3.8-4.5
			C315.4,53.8,315.5,53.4,315.4,52.9z M319.8,18.5c0.1-0.1,0.1-0.3,0.1-0.3c-0.8-0.1-0.6-0.3-0.1-0.5c0.1-0.1,0.2-0.2,0.2-0.3
			c-0.1-0.2-0.4-0.4-0.6-0.4c-0.1,0.1-0.3,0.2-0.2,0.4c-0.4,1.2-0.8,2.4-1,3.6l-1.7,7.8c-0.2,1.4-0.5,2.7-0.7,4h0.1
			c-0.1,0.6-0.1,1.1-0.1,1.7c0,0.1,0.1,0.2,0.2,0.3c0.1-0.1,0.3-0.1,0.4-0.2c0.1-0.2,0.1-0.4,0.1-0.6c0.1-0.7,0.2-1.5,0.4-2.2
			c0-0.1,0.1-0.3,0.1-0.4c-0.3-0.9,0.1-1.6,0.4-2.2c0.1-0.4,0.2-0.6,0.1-1c-0.2-0.8-0.1-1.5,0.6-2.1c0.2-0.1,0.3-0.4,0.3-0.6
			c-0.5-1.2-0.2-2.3,0.6-3.3c0.1-0.2,0.1-0.4,0.1-0.6C318.5,20.3,319,19.4,319.8,18.5z M319.3,46c1.2-2.4,2.3-4.7,2.7-7.3l0.2-1.1
			c0.1-0.6,0.3-1.3,0.5-1.9c0.3-1.4,0.6-2.7,0.9-4.2c0.4-1.9,0.6-3.8,0.9-5.8c0.2-1.1,0.4-2.2,0.5-3.2c0.3-2,0.4-4,0.1-6.2l-0.4,0.8
			c-0.8,2.4-1.4,5-2.1,8.5c-0.3,2-0.7,3.6-1.3,5.1c-0.4,1-0.8,2.2-0.9,3.5l-0.4,3.5c-0.3,1.9-0.6,3.7-0.6,5.7c0,0.6-0.1,1.3-0.1,2
			V46z M319.6,15.9h-0.1l0.1,0.4c0.1-0.1,0.1-0.2,0.3-0.3c0.1-0.1,0.1-0.2,0.3-0.4c-0.1-0.1,0.1-0.2,0.1-0.4l-0.2-0.1
			c-0.2,0.1-0.4,0.1-0.5,0.3C319.5,15.6,319.6,15.7,319.6,15.9z"/>
		<path fill="#FFFFFF" d="M338.2,62.9c-1.4-0.4-2.6-1.5-3.4-3.1c-1-2.2-2.2-5.2-2-8.5c0.2-2.1,0.6-4,1.1-5.5l0.3-0.7
			c0.3-1.1,0.7-2.2,1.2-3.2c1.2-2.8,3-5.2,5.2-7c1.1-0.9,2.2-1.2,3.4-1.4l0.1-0.1c0.3-0.1,0.6,0,0.9,0c1.7,0.3,4,2.4,4.4,4
			c0.1,0.5,0.1,0.9,0,1.3v0.1c-0.4,1.3-0.7,2.7-1.5,3.9c-3.5,5.5-10.2,7.8-7.3,15c0.4,1,2.1,2.3,3.5,2.4c0.2,0,0.4-0.1,0.6-0.1
			c0.6-0.1,1.1-0.5,1.5-1l0.6-0.6c0.4-0.5,0.9-1,1.4-1.6c1.7-2,3.5-4.3,5-6.8l0.6-1.3c0.1-0.4,0.3-0.6,0.4-1
			c0.3-0.6,0.9-0.9,1.6-0.6c0.3,0.1,0.6,0.4,0.7,0.7c0.1,0.4,0.1,0.9-0.1,1.2c-1.7,2.9-3.4,5.5-5.3,7.9c-0.3,0.4-0.6,0.7-0.9,1
			c-0.5,0.5-0.9,1-1.3,1.5c-1.1,1.4-2.5,2.3-4,3.1l-0.5,0.2c-0.6,0.4-1.4,0.6-2.1,0.6h-0.4h-0.1C340.4,63.5,339.3,63.2,338.2,62.9z
			 M340.4,47.5c2.4-1.9,4.2-3.9,5.5-6c0.5-0.8,0.8-1.7,1.1-2.6l0.1-0.7c-0.1-1.3-0.6-1.3-0.7-1.3c-0.1,0-0.4,0.1-0.6,0.2
			c-0.6,0.3-1.1,0.6-1.4,1.1c-0.8,1.1-1.6,2.3-2.4,4s-1.4,3.5-1.9,5.5C340.2,47.7,340.3,47.6,340.4,47.5z"/>
		<path fill="#FFFFFF" d="M364.3,64.8c-2-1.4-4-3.1-4.6-6c-0.3-1.5-0.5-3-0.1-4.5c0.1-0.1,0.1-0.1,0.1-0.2c-0.2-1.7,0-3.1,0.6-4.5
			c-0.4-0.3-0.8-0.6-1.2-0.9c-0.5-0.4-1.1-0.9-1.7-1.2c-1.9-1.1-3.6-2.7-4.8-4.7c-1.3-2-1.6-4.3-1.7-6.3v-1.7
			c0.1-0.2,0.1-0.5,0.1-0.7c0-1.3,0.6-2.4,1.2-3.4c0.1-0.2,0.1-0.4,0.3-0.6c1.3-2.5,1.7-2.7,4.5-3.2c1.4-0.2,3.2,0.6,3.8,1.9
			c0.6,1.3,1.4,3,1.1,5c-0.2,1.5-0.5,3-1.1,4.5c-0.1,0.4-0.2,0.7-0.4,1.2c-0.2,0.8-0.4,1.5-0.9,2.3c-0.3,0.5-0.6,1.1-1,1.6
			c-0.1,0.1-0.1,0.3-0.1,0.3c0.1,0,0.1,0.1,0.2,0.1l3.7,1.5l0.7,0.3c0.1,0,0.2,0.1,0.4,0.1l0.6,0.2c2.5,1.2,3.6,3.5,2.8,6
			c-0.5,1.7-1,3.8-0.9,6v0.4c0,0.1,0,0.1,0,0.2c0.1,1.9,1,3.1,2.8,3.6c0.8,0.2,1.4,0.1,2-0.4c0.9-0.7,1.5-1.4,1.9-2.2
			c1.4-2.4,2.6-5.1,3.5-8c0.1-0.5,0.2-1.1,0.4-1.7c0-0.4,0.1-0.6,0.1-1s0.1-0.7,0.4-1.1c0.2-0.5,0.8-0.7,1.4-0.6
			c0.2,0.1,0.7,0.3,0.7,1c0.1,0.3,0.1,0.6,0.1,0.9v0.3c0.2,1.8-0.5,3.3-1.2,4.8l-0.4,1.1c-0.9,2.3-1.7,4.1-2.6,5.6
			c-1.2,1.9-2.7,3.1-4.2,4c-0.8,0.4-1.8,1.1-2.9,1.1h-0.2C366.6,65.9,365.4,65.5,364.3,64.8z M357.6,34.4c0-0.5,0-1.1-0.1-1.6
			c-0.1-0.4-0.2-0.5-0.5-0.5h-0.2c-1.7,0.4-2.2,1-2.2,2.3c0,0.1,0,0.4-0.1,0.5c-0.4,2.1,0.3,4,1.2,5.7
			C356.9,39.1,357.5,37.2,357.6,34.4z M361.1,57.2c0.1-0.4,0.2-0.6,0.2-0.9c0.1-0.4,0.2-0.9,0.2-1.4c0.1-0.4-0.1-0.7,0-1.1
			c0-0.6,0.4-1.2,0.2-1.6c-0.5-0.6,0.3-0.9,0.4-1.6c-0.6,0-0.6-0.9-0.5-1.1c0.1-0.4,0.7-0.1,0.1-0.4c-0.2,0.2-0.5,0.5-0.6,0.6
			c-0.1,1.5-0.4,2.4-0.5,4c-0.2,1.2-0.4,2.4-0.6,3.5c-0.1,0.5,0.2,1,0.1,1.6C361,58.3,361,57.7,361.1,57.2z"/>
		<path fill="#FFFFFF" d="M382.3,63.7l-1.2-0.6c-0.2-0.1-0.5-0.2-0.7-0.4l-0.1-0.1c-0.2-0.1-0.5-0.2-0.7-0.5c-1.2-1.4-2.4-3-3.2-4.9
			c-1-2.7-0.9-5.4-0.7-8l0.1-0.6c0-0.6,0.1-1.1,0-1.6c-0.2-1.4-0.1-2.7,0.1-4c0-0.6,0.1-1.1,0.1-1.7c0.1-1.5,0.1-3.2,0.4-5l0.2-1.9
			c0.7-4.5,1.4-9.1,2.6-13.5c0.4-1.2,0.7-2.4,0.9-3.7c0.2-1.1,0.6-2.2,1.3-3.2c-0.2,1.4-0.5,2.7-0.8,4.5c-0.3,1.9-0.7,3.8-1.1,5.7
			c-0.1,0.9,0.1,1.7-0.1,2.6c0.8-0.9,0.9-1.8,1.1-2.7c0.1-0.5,0.3-1,0.4-1.4c0.2-0.7,0.4-1.5,0.4-2.2c0.1-0.6,0-1.3,0.1-1.9
			c0.1-0.8,0.6-1.7,0.5-2.4c-0.4-1.2,0.4-1.4,0.6-2.5c-0.2-0.1-0.4-0.4-0.4-0.7c0.3-0.4,0.5-0.8,0.7-1.2c0.2-0.5,0.5-1,0.9-1.5
			c1.2-1.9,2.9-3.4,4.8-4.2c0.9-0.4,1.9-0.4,3-0.6c0.2,0,0.4,0,0.7-0.1c0.9-0.1,1.7,0.4,2.2,0.7c0.5,0.4,0.8,0.9,0.9,1.4
			c0.1,1.7,0.1,3-0.1,4.1c-0.6,3.9-1.5,7.5-2.7,10.8c-0.9,2.5-1.9,5-3.5,7.3c-0.6,1-1.2,2.2-1.6,3.2c-0.6,1.3-1.3,2.6-2,3.7
			c-0.3,0.4-0.6,0.9-0.8,1.3c-0.1,0.3-0.4,0.6-0.5,0.7l-0.1,0.2c-0.4,0.4-1.1,0.6-1.6,0.2c0-0.1-0.1-0.1-0.1-0.1
			c-0.2,2.6-0.4,5.3-0.3,8.1l-0.1,0.9c-0.1,0.6-0.1,1.4-0.1,2.2c-0.1,2.4,0.1,4.7,0.6,6.7c0.1,0.4,0.3,0.7,0.4,1.2l0.1,0.4
			c0.3,0.6,0.7,1,1.4,1.2c0.4,0.1,0.9,0.4,1.3,0.6c0.9,0.4,1.7,0.3,2.5-0.5l0.7-0.9c1.8-2.3,3.6-4.9,4.3-8.1
			c0.2-0.8,0.5-1.9,1.2-2.7c0.1-0.1,0.4-0.6,0.9-0.6c0.1,0,0.3,0,0.4,0.1c0.6,0.3,0.9,0.8,0.7,1.5c0,0.1-0.1,0.2-0.1,0.3
			c-0.7,1.4-1.2,2.8-1.5,4.2c-0.1,0.4-0.2,0.7-0.4,1l-0.1,0.2c-0.9,1.9-2.1,3.7-3.2,5.3c-0.9,1.2-1.9,2.3-3.1,3.1
			c-1.1,0.8-2.2,1.2-3.2,1.2C383.9,64.4,383.1,64.1,382.3,63.7z M382.6,27.3c0-1.4-0.1-2.8-0.1-4.2c-0.2,1.4-0.4,2.8-0.6,4.2
			c0,0.1,0.1,0.3,0.3,0.4C382.3,27.5,382.6,27.5,382.6,27.3z M382.6,36.7c0.1-0.4,0.4-0.6,0.6-0.9c0.4-0.6,0.8-1.2,1.1-1.9
			c0.7-1.7,1.7-3.3,2.5-4.8c0.4-0.7,0.7-1.4,1.1-2c1.8-3.3,3.2-6.8,4-10.7c0.3-1.2,0.6-2.4,0.8-3.7c0.1-0.6,0.2-1.3,0.4-1.9
			c0.1-0.7,0.2-1.3,0.1-1.9c-0.1-0.1-0.1-0.2-0.1-0.2h-0.1c-0.1,0-0.1,0-0.1,0c-0.2,0-0.4,0.1-0.5,0.2c-2.9,2.8-4.5,5.3-5.3,8.1
			l-0.6,2.4c-0.2,0.8-0.4,1.6-0.6,2.4l-0.1,0.4c-0.4,1.3-0.7,2.7-1.2,4c-1,3-1.5,6.2-1.7,8.6c-0.1,0.7-0.2,1.5-0.3,2.2L382.6,36.7z"
			/>
		<path fill="#FFFFFF" d="M424,48.7l-0.2,0.9c-0.7,2-1.4,4-2.3,6l-0.6,1.4c-0.1,0.3-0.2,0.6-0.4,0.9l-0.1,0.4
			c-0.1,0.4-0.2,0.7-0.5,1.1c-1.2,1.4-2.6,2.5-4.2,3.4c-0.4,0.2-0.9,0.4-1.4,0.4c-0.4,0-0.9-0.1-1.4-0.3c-2.5-1-3.7-2.9-3.8-5.6
			c-0.1-0.4-0.1-0.7,0-1.2v-0.9c-0.1-1.2,0.1-2.6,0.5-4c0.2-0.6,0.3-1.3,0.4-1.9l-0.1,0.1c-1,3.1-3.2,5.6-6.7,7.8
			c-5,3.2-9.6-2.6-10-7.2c-0.1-1.9-0.2-4.3,0.5-6.7c0.2-0.9,0.6-1.7,0.9-2.5l0.3-0.7c0.4-0.7,1.1-1.2,1.7-0.9
			c0.3,0.1,0.6,0.1,0.9,0.2c3.7,0.7,2.5,4,2,6.8c-0.5,2.9-0.4,5,1.1,7.6c0.3,0.6,1,1,1.7,1c0.4,0,0.9-0.1,1.2-0.4
			c1.9-1.3,3.3-3,4.2-5.2c0.4-1.1,0.9-2.2,1.5-3.2c1.4-2.7,2.2-7.7,5.6-8.4l0.3-0.1c0.5-0.1,0.9,0.2,1.2,0.8c0.6,1,0.8,2.1,0.6,3.2
			c-0.2,2-0.8,3.8-1.4,5.5c-0.9,2.7-3,8-1.7,10.9c1.4,3.2,3.7,1.7,4.7-0.9c0.2-0.5,0.4-0.9,0.6-1.4c0.9-2,1.7-4.1,2.2-6.3
			c0.1-0.3,0.2-0.6,0.4-1.1c0.2-0.4,0.7-0.6,1.2-0.5C423.7,47.8,424.1,48.2,424,48.7z"/>
		<path fill="#FFFFFF" d="M425.2,65.3c-1-0.3-1.9-0.9-2.7-1.4c-0.2-0.2-0.5-0.4-0.8-0.5c-0.4-0.3-0.6-0.7-0.8-1.1l-0.2-0.4
			c-0.4-0.9-0.9-1.7-1.2-2.7c-0.4-1.4-0.4-2.8,0.1-4.3c0.1-1.4,0.5-3,1.6-3c0.6,0,1.1,0.7,1.4,1.3l0.1,0.3l-0.1,0.2
			c-0.6,1.2-0.9,2.4-0.9,3.8c0,1.5,0.6,2.7,2,3.3c1.5,0.7,2.9,0.8,4.2,0.1c0.2-0.1,0.4-0.2,0.7-0.4c0.5-0.4,1.1-0.7,1.5-1.2
			c0.4-0.3,0.6-0.6,0.8-0.9c1.2-2.2,1.6-4,1.3-5.9c0-0.1,0-0.2-0.1-0.3c0-0.4-0.1-0.8,0-1.2l-0.8-0.8h0.4c-0.6-1.3-1.4-2.5-2.1-3.7
			c-0.9-1.5-1.8-3-2.5-4.7l-1.2-2.2c-0.6-1.1-1.2-2.2-1.7-3.4c-0.9-2.3-1-4.5-0.4-6.6c0.2-0.6,0.4-1.1,0.7-1.5
			c1-1.7,2.2-2.8,3.6-3.5c1.6-0.8,3.2-0.7,4.9,0.4c0.7,0.4,1.4,1,1.9,1.7c0.5,0.6,0.9,1.5,0.9,2.7c0.1,1.7-0.4,3.2-1.4,4.7
			c-0.4,0.4-0.9,0.5-1.4,0.1c-0.2-0.1-0.4-0.6-0.4-0.9l0.2-0.9l0.1-0.2l0.2-0.6c0.1-0.4,0.2-0.7,0.4-1.1c0.1-0.5,0.1-1.2-0.6-1.8
			c-0.7-0.6-1.5-0.7-2.3-0.3c-1.8,0.9-2.6,2.7-2,4.8l0.6,1.7c0.1,0.4,0.3,0.7,0.4,1.2c0.3,0.6,0.6,1.4,0.9,2.2
			c0.1,0.4,0.4,0.8,0.7,1.2c0.6,0.9,1.2,1.7,1.7,2.5c0.4,0.5,0.7,0.9,1,1.4c1.3,1.8,2.5,3.9,3.7,6.3c0.5,1.1,0.6,2.2,0.6,3.2
			c0.1,2.4-0.4,4.5-1.6,6.4c-0.1,0.1-0.1,0.4-0.1,0.5c-0.1,0.2-0.2,0.4-0.3,0.6c-1,1.9-2.6,4.2-5.6,5c-0.9,0.2-1.9,0.4-2.8,0.4
			C427.1,65.8,426,65.6,425.2,65.3z"/>
		<path fill="#FFFFFF" d="M443.4,60.3c-0.5-0.2-0.9-0.6-1.2-0.9c-2.1-2.5-3-5.2-2.8-8.1c0.1-0.6,0.1-1.1,0.1-1.7
			c-0.1-0.3-0.1-0.6-0.1-0.9c0-2.5,0.4-5,0.8-7.5l0.4-2.6l0.5-3.3c0.2-1.9,0.5-3.7,0.7-5.5c0-0.1,0.1-0.1,0.1-0.1h-0.1
			c-1.1,0.5-1.9,1.2-2.7,2.1c-0.4,0.4-0.9,0.9-1.5,0.9c-0.4,0-0.6-0.2-0.8-0.5c-0.4-1,0.3-1.7,0.6-1.9l0.1-0.1c1.1-1,2.2-2,3.7-2.5
			c0.8-0.3,1.2-0.8,1.5-1.8c1-4.2,1.9-7.8,2.7-11.2l1.5-5l0.3-1c0.2-0.6,0.5-1.2,0.7-1.6c0.7-1.3,2.3-1.8,3.7-1.1
			c0.8,0.4,0.9,1,0.9,1.4c0.1,0.7,0.1,1.5-0.1,2.3c-0.2,0.9-0.5,1.7-0.7,2.5c-0.5,1.7-0.9,3.5-1.4,5.3c-0.5,2.1-1,4.2-1.4,6.4
			l-0.4,1.8c1.3-0.2,2.4-0.6,3.5-1.4l0.8-0.6l2.3-1.5c0.4-0.3,1.1-0.1,1.4,0.3c0.3,0.4,0.3,0.9,0,1.2c-0.4,0.5-0.8,0.8-1.3,1.1
			c-0.5,0.2-0.9,0.5-1.4,0.8c-1.5,0.9-3.1,1.8-4.9,2.2c-0.7,0.1-1,0.6-1.2,1.4l-0.4,2.8c-0.4,2.2-0.8,4.4-1.1,6.6
			c-0.6,3.3-1.2,7.1-1.5,10.9c-0.1,1.7,0.1,3.4,0.3,5l0.1,0.2c0.1,0.5,0.4,1,0.6,1.6l0.2,0.4c0.1,0.4,0.6,0.6,1.1,0.8h0.1
			c0.7,0.3,1.2,0.4,1.4,0.4c0.2,0,0.4-0.1,1.2-1.1c0.6-0.9,1-1.7,1.3-2.4l0.6-1.6c0.4-0.9,1.8-3.5,2-4.5c0.1-0.6,0.9-1,1.5-0.7
			c0.4,0.2,0.6,0.6,0.6,1c0,0.3-0.1,0.6-0.2,1c-0.3,0.9-1.7,3.5-2.1,4.5c-0.2,0.5-0.4,1.1-0.8,1.6c-0.3,0.4-0.5,0.8-0.7,1.2
			l-0.1,0.2c-1.2,2.3-3.1,3.6-5.5,3.6C445.4,60.9,444.4,60.7,443.4,60.3z M445.8,23.9c0.2-0.5,0.4-0.9,0.5-1.4
			c0.2-0.8,0.4-1.5,0.5-2.2c0.2-0.6,0.1-1.3,0.3-1.9c0.2-0.9,0.7-1.7,0.6-2.4c-0.3-1.2,0.5-1.3,0.9-2.4c-0.6-0.3-0.4-1.6-0.2-1.9
			c0.1-0.6,0.8-0.1,0.3-0.6c-0.3,0.3-0.7,0.6-0.8,0.9c-0.6,2.4-1,3.9-1.6,6.3c-0.4,1.9-1,3.7-1.4,5.6c-0.2,0.9-0.1,1.7-0.3,2.6
			C445.4,25.7,445.5,24.8,445.8,23.9z"/>
	</g>
</g>
</svg>
