<?xml version="1.0" encoding="utf-8"?>
<!-- Generator: Adobe Illustrator 18.0.0, SVG Export Plug-In . SVG Version: 6.00 Build 0)  -->
<!DOCTYPE svg PUBLIC "-//W3C//DTD SVG 1.1//EN" "http://www.w3.org/Graphics/SVG/1.1/DTD/svg11.dtd">
<svg version="1.1" id="Layer_1" xmlns="http://www.w3.org/2000/svg" xmlns:xlink="http://www.w3.org/1999/xlink" x="0px" y="0px"
	 viewBox="0 0 471.7 85.5" enable-background="new 0 0 471.7 85.5" xml:space="preserve">
<g>
	<g>
		<g>
			<path fill="#33CCCC" d="M34.3,85.5c-3.4,0-6.7-1.4-9.2-3.9c-1.5-1.5-2.6-3.2-3.4-5.1c-0.1-0.3-0.3-0.6-0.4-0.9
				c-1.8,0.9-3.7,1.4-5.7,1.4c-2.8,0-5.6-1-7.8-2.7c-6-4.7-6.7-12-7.1-16.4c-0.1-0.6-0.1-1.2-0.2-1.7c-0.6-4.2-0.4-8-0.1-11.4
				c0.1-1.4,0.2-2.8,0.2-4l0-0.1c0.1-2.4,0.3-4.8,0.6-7l0.2-1.4c0.3-2.5,0.5-5.2,0.6-7.6c0-3,0.9-5.4,1.4-6.5l0.3-0.7
				c1.5-3.8,4.9-6.6,8.9-7.4l0.7-0.1c0.5-0.1,1.4-0.2,2.5-0.2c3.5,0,6.7,1.4,8.9,3.9c0.4,0.5,0.8,1,1.2,1.5c0.1-0.2,0.2-0.4,0.4-0.6
				c3.1-5.1,7.8-5.6,9.7-5.6c1.5,0,2.9,0.3,4.2,0.9c2.4,1,4.3,2.6,5.5,4.8c0.8-1.8,1.6-3.6,2.4-5.4l0.2-0.5c0.5-1.1,1.5-3.4,3.6-5.3
				C53.8,1.2,56.6,0,59.6,0c2.7,0,5.3,1,7.4,2.8l1.5,1.6c1.8,2.3,2.6,5.1,2.3,7.9c-0.1,1.9-0.7,3.7-1.7,5.4L69,17.8
				c-0.6,0.9-1.1,2.2-1.7,3.5l-0.2,0.5l-0.2,0.4c-1.3,3-2.7,6.4-4.2,10.4l-0.1,0.2c-0.5,1.3-1.1,2.7-1.5,3.9l-0.2,0.6l-0.5,1.3
				c-1,2.5-2,5.1-3,7.9c-0.9,2.5-1.9,5.2-2.8,8.1l-0.2,0.6c-0.1,0.2-0.2,0.4-0.2,0.7c-0.1,0.4-0.3,0.7-0.4,1.1
				c-0.7,2.3-1.7,5.2-2.9,8.1c-0.8,1.9-1.5,3.9-2.2,6l-0.3,0.9L47.2,75l-0.3,0.7l0,0.1c-0.3,0.8-0.8,2.2-1.8,3.8l-0.3,0.5
				C42.1,83.5,38.3,85.5,34.3,85.5z"/>
		</g>
		<g>
			<path fill="#33CCCC" d="M62.4,78.5c-2.5,0-4.6-0.5-6-0.9l-0.3-0.1c-4.1-1.2-7.4-4.1-9.5-8.2l-0.2-0.4c-1.1-2.4-3.3-7.2-2.9-13.3
				l0-0.4c0.3-2.8,0.8-5.3,1.5-7.5l0.2-0.7l0.1-0.2c0.4-1.4,0.9-2.6,1.3-3.7l0.1-0.3c1.8-4.2,4.6-7.8,7.9-10.7l0.2-0.1
				c2.5-2,5.1-2.8,7.2-3.3l0.2-0.1c0.9-0.2,1.8-0.3,2.7-0.3c0.4,0,0.7,0,1.1,0.1c-0.2,0-0.4,0-0.5,0l1.6,0.1
				c5.8,1,11.3,6.1,12.5,11.8L80,41c0.1,0.5,0.2,1.1,0.2,2c2.8,1.1,5,3.4,6.2,6.3c1.3,3.3,1,7.1-0.8,10.1c-1.8,3-3.7,6.1-6.1,9.1
				c-0.4,0.5-0.9,1.1-1.6,1.8c-0.2,0.2-0.2,0.3-0.2,0.3l-0.1,0.2c-2.2,2.9-4.7,4.5-7.1,5.9l-0.8,0.4c-2,1.1-4.3,1.6-6.6,1.6H62.4z"
				/>
		</g>
		<g>
			<path fill="#33CCCC" d="M82.4,78.5c-2.5,0-4.6-0.5-6-0.9l-0.3-0.1c-4.1-1.2-7.4-4.1-9.5-8.2l-0.2-0.4c-1.1-2.4-3.3-7.2-2.9-13.3
				l0-0.4c0.3-2.8,0.8-5.3,1.5-7.5l0.2-0.7l0.1-0.2c0.4-1.4,0.9-2.6,1.3-3.7l0.1-0.3c1.8-4.2,4.6-7.8,7.9-10.7L75,32
				c2.5-2,5.1-2.8,7.2-3.3l0.2-0.1c0.9-0.2,1.8-0.3,2.7-0.3c0.4,0,0.7,0,1.1,0.1c-0.2,0-0.4,0-0.5,0l1.6,0.1
				c5.8,1,11.3,6.1,12.5,11.8L100,41c0.1,0.5,0.2,1.1,0.2,2c2.8,1.1,5,3.4,6.2,6.3c1.3,3.3,1,7.1-0.8,10.1c-1.8,3-3.7,6.1-6.1,9.1
				c-0.4,0.5-0.9,1.1-1.6,1.8c-0.2,0.2-0.2,0.3-0.2,0.3l-0.1,0.2c-2.2,2.9-4.7,4.5-7.1,5.9l-0.8,0.4c-2,1.1-4.3,1.6-6.6,1.6H82.4z"
				/>
		</g>
		<g>
			<path fill="#33CCCC" d="M95.8,78.4c-4.3,0-8-2.2-10.3-6c-1.5-2.5-2.2-5.5-2-8.4l0.1-0.5l0.1-0.7c0.1-1.5,0.2-2.9,0.4-4.2l0-0.4
				c0.1-0.6,0.2-1.1,0.3-1.7c0.1-0.4,0.2-0.8,0.2-1.3l0.1-0.6c0.2-1.3,0.5-2.6,0.6-3.7c0.1-1.1,0.3-2.1,0.4-2.8
				c0-0.2,0.1-0.3,0.1-0.5l0-0.3c0.1-0.6,0.2-1.4,0.2-1.6c0-0.5,0-1.6,0.3-3L87,40c0.4-1.6,0.7-3,0.9-4.3l0.2-0.8
				c0.1-0.2,0.2-0.9,0.2-1.4c0.3-2,0.7-3.7,1.1-5.1l0.1-0.3c0.2-0.5,0.3-0.9,0.3-1.3l0-0.1c0.6-3.5,1.7-6.4,2.9-9.4l0.3-0.7
				c2.1-5.8,6.9-7.9,10.8-7.9c1.3,0,2.6,0.2,3.8,0.6c0.3,0.1,0.6,0.2,0.8,0.2c0,0-0.2,0-0.3-0.1l1.5,0.5c4.9,2.1,7.6,6.5,7.3,11.9
				c0,0.2,0,0.4,0,0.5c4.7,1.1,8.2,4.8,8.9,9.6c0,0.2,0.1,0.5,0.1,0.8c0.1,1,0.3,2.7-0.1,4.7c-0.3,1.9-0.8,3.8-1.6,5.8
				c1.7,0.8,3.1,1.9,4.2,3.5l1.3,2.3c1,2.4,1.1,5.1,0.3,7.8l-0.5,1.3l-0.2,0.4c-0.3,0.6-0.6,1.4-1,2.2l-0.8,1.6l-0.2,0.3
				c-0.3,0.6-0.6,1.2-0.9,1.8c-1.5,3.3-3.4,5.8-4.4,7.1c-0.9,1.1-1.8,2.2-2.9,3.1c-2.7,2.4-6,3.7-9.5,3.7c-1.6,0-3.3-0.3-4.9-0.8
				c-0.7-0.3-1.4-0.6-2.1-0.9c-1.2,0.7-2.6,1.3-4.2,1.6l-0.1,0C98.1,78.2,97.1,78.4,95.8,78.4z"/>
		</g>
		<g>
			<path fill="#33CCCC" d="M126.6,78.5c-2.5,0-4.6-0.5-6-0.9l-0.3-0.1c-4.1-1.2-7.4-4.1-9.5-8.2l-0.2-0.4c-1.1-2.4-3.3-7.2-2.9-13.3
				l0-0.4c0.3-2.8,0.8-5.3,1.5-7.5l0.2-0.7l0.1-0.2c0.4-1.4,0.9-2.6,1.3-3.7l0.1-0.3c1.8-4.2,4.6-7.8,8-10.7l0.2-0.1
				c2.5-2,5.1-2.8,7.2-3.3l0.2-0.1c0.9-0.2,1.8-0.3,2.7-0.3c0.4,0,0.7,0,1.1,0.1c-0.2,0-0.4,0-0.5,0l1.6,0.1
				c5.8,1,11.3,6.1,12.5,11.8l0.1,0.7c0.1,0.5,0.2,1.1,0.2,2c2.8,1.1,5,3.4,6.2,6.2c1.3,3.3,1,7.1-0.8,10.1c-1.8,3-3.8,6.2-6.2,9.1
				c-0.3,0.4-0.9,1.1-1.5,1.7c-0.2,0.2-0.2,0.2-0.2,0.2l-0.1,0.2c-2.2,2.9-4.7,4.5-7.1,5.9l-0.8,0.4c-2,1.1-4.3,1.6-6.6,1.6H126.6z"
				/>
		</g>
		<g>
			<path fill="#33CCCC" d="M156.5,81.5c-4.4,0-8.4-2.3-11.1-6.2c-1.5,0.6-3,0.9-4.6,0.9c-3.1,0-5.9-1.1-8.1-3
				c-3.4-2.8-4.2-6.5-4.5-8l0-0.4c-0.4-1.8-0.4-3.3-0.4-4.1l0-0.2l0.1-1.6l0-0.2c0,0.1,0,0.2,0,0.4l0.1-1.2l0-0.2c0-0.1,0-0.3,0-0.4
				l0-0.4c0.1-1.6,0.2-3.1,0.4-4.6l0-0.3c0.1-0.9,0.2-1.8,0.3-2.7c0-1,0.1-2,0.3-3c0-0.1,0-0.4,0.1-0.5l0-0.4c0-2.2,0.6-3.9,1.1-5.1
				l0.2-0.6c2.8-6.9,8.4-7.9,11.5-7.9h0.9l0.6,0c1.4,0.1,5.4,0.3,8.6,3.5c0.7-0.1,1.5-0.2,2.3-0.2c5.3,0,9.8,3.3,11.8,8.5l0,0.1
				c1.4-0.6,2.9-0.9,4.4-0.9h0.1l1.4,0.1c3.7,0.5,6.9,2.9,8.6,6.2l0.4,0.9c0.7,1.8,1.2,4.6,0,8l-0.3,0.7l-0.4,1l-0.1,0.3l-1,2.1
				c-1.7,3.6-3.7,6.9-5.5,10l-0.1,0.1c-2.8,4.6-7.5,7.7-13,8.6l-0.7,0.1C158.8,81.3,157.7,81.5,156.5,81.5z"/>
		</g>
		<g>
			<path fill="#33CCCC" d="M187.2,77.7c-2.4,0-4.7-0.6-6.8-1.7c-1.8,0.8-3.7,1.2-5.7,1.2c-3.5,0-6.9-1.4-9.6-3.9
				c-5.8-5.4-7.9-13.1-5.7-20.7c1-3.5,2.2-6.5,3.7-9.2l0.3-0.4c0.3-0.5,0.7-1,1-1.4c0.1-0.1,0.1-0.2,0.2-0.3l0.5-0.7l0.6-0.8
				c1.4-1.9,3-3.1,4.3-3.9c0.3-1.7,0.7-3.5,1.2-5.6l0-0.2c0.2-0.6,0.3-1.3,0.4-2.2c0.1-0.5,0.2-0.9,0.3-1.4l0.3-2l0.1-0.4
				c0.9-4.1,2.4-7.8,4.5-11c2.6-4.1,6.8-6.5,11.5-6.5c1,0,2,0.1,3,0.3l0.1,0c3.1,0.7,5.3,2.4,6.4,3.4l0.2,0.2c4,3.2,4.4,7.5,4.6,8.9
				l0,0.3c0.1,1.3,0.1,2.6,0,3.8c0,0.2,0,0.4,0,0.5l0.1,0.7c0.1,2.6-0.3,4.9-0.6,6.5l-0.1,0.6l-0.1,0.4c-0.1,0.2-0.1,0.5-0.2,0.8
				c0,0.1-0.1,0.3-0.1,0.4l0,0.4c0-0.1,0-0.2,0-0.3l0,0.1c0,0.3-0.1,0.7-0.1,1l0,0.2c0,0.6-0.1,1.6-0.4,2.7l0,0.1c0,0,0,0,0.1,0
				c2.3,0,4.6,0.7,6.4,2.1c4.5,3.1,6,9,3.7,13.8c-0.1,0.3-0.2,0.5-0.4,0.8l-0.1,0.1c0.1-0.1,0.1-0.2,0.1-0.3l-0.4,1l-0.7,1.2
				c-1.8,3.8-3.8,7-5.8,10c-0.4,0.6-0.8,1.2-1.3,1.9l-0.6,1c-2.2,3.4-5.5,5.9-9.5,7.4C190.9,77.4,189.1,77.7,187.2,77.7z"/>
		</g>
		<g>
			<path fill="#33CCCC" d="M239.3,77.3c-2.5,0-4.5-0.8-5.9-1.6c-1.8-0.9-4.1-2.5-5.9-5.3c-0.2-0.2-0.3-0.5-0.5-0.7
				c-0.3,0.2-0.7,0.3-1,0.5c-1.8,0.7-3.7,1.1-5.5,1.1c-6.4,0-12-4.3-13.7-10.4l-0.1-0.3c-0.2-0.9-0.5-2-0.6-3.5l0-0.9v-2l0-0.3
				c0.1-3.5,0.6-6.5,1.7-10.1c0.2-0.6,0.3-1.3,0.5-2.1l0.1-0.6c0.3-1.7,0.8-3.4,1.7-4.9c2.2-3.8,6-6.1,10.2-6.1
				c1.3,0,2.5,0.2,3.8,0.6l0,0c0.7,0.1,1.5,0.3,2.2,0.6c2.7-3.2,6.2-5.4,11-5.5l0.1,0c1.7,0,3.5,0.4,5,1.2c0.7,0.4,1.4,0.8,2.1,1.3
				c1.6-2.4,3.5-5.2,6.5-7.5c1.9-1.5,4.3-2.4,6.8-2.4c3.9,0,7.6,2.1,9.5,5.5l0.3,0.5c2.1,4.2,1.3,9.4-2,12.7l-0.5,0.5
				c-0.9,0.8-1.8,2.3-2.8,4.1c-0.4,0.8-0.9,1.6-1.3,2.2l-0.5,0.8c-1,1.7-1.9,3.8-2.8,6.4l-0.2,0.4c-0.3,0.7-0.4,1-0.4,1.1l0,0.3
				c-0.5,2.8-1.3,5.1-2.2,7.2l-0.4,0.9c-0.5,1.1-1,2.5-1.3,3.6c-1.5,6.5-5.4,9.7-8.4,11.2C243.7,76.5,241.8,77.3,239.3,77.3z"/>
		</g>
		<g>
			<path fill="#33CCCC" d="M270.9,77.6c-0.8,0-1.6-0.1-2.4-0.3c-3.1-0.5-5.4-1.8-6.9-3.2c-1.3,0.3-2.6,0.5-3.9,0.5l-0.4,0
				c-3.6,0-7-1.4-9.4-3.9c-3-3-4.7-6.6-4.9-10.7l0-0.5c0-1.7,0.2-3.4,0.6-5.3l0.1-0.4c0.7-3.6,2-7.2,3.8-11.5
				c2.3-5.2,6.2-8.9,11.3-10.9c1.7-0.7,3.6-1,5.4-1c2.8,0,5.5,0.9,7.8,2.5c0.2,0,0.4,0,0.5,0c0.6,0,1.8,0,3.3,0.4l0.3,0.1
				c4,1,7.2,3.4,8.8,6.9c0.6,1.3,1,2.6,1.1,3.9c0,0,0.1,0,0.1,0.1c3.2,2,5.1,5.6,5.1,9.4c0,2-0.5,3.9-1.4,5.5
				c-1.6,3.3-3.3,6.1-5.5,8.8l0,0.1c-0.9,1.5-2.5,3.9-5.1,5.9C276.2,77.1,272.8,77.6,270.9,77.6z"/>
		</g>
		<g>
			<path fill="#33CCCC" d="M296.3,81.5c-4.4,0-8.4-2.3-11.1-6.2c-1.5,0.6-3,0.9-4.6,0.9c-3.1,0-5.9-1.1-8.1-3
				c-3.4-2.8-4.2-6.5-4.5-7.9l0-0.1l0-0.4c-0.4-1.7-0.4-3.2-0.4-4l0-0.2l0.1-1.6l0-0.2c0,0.1,0,0.2,0,0.4l0.1-1.2l0-0.2
				c0-0.1,0-0.3,0-0.4l0-0.4c0.1-1.6,0.3-3.2,0.4-4.6l0-0.2c0.1-0.9,0.2-1.9,0.3-2.7c0-1,0.1-2,0.3-3c0-0.1,0-0.4,0.1-0.5l0-0.4
				c0-2.2,0.6-3.9,1.1-5.1l0.2-0.6c2.8-6.9,8.4-7.9,11.5-7.9h0.9l0.6,0c1.4,0.1,5.4,0.3,8.6,3.5c0.7-0.1,1.5-0.2,2.3-0.2
				c5.3,0,9.8,3.3,11.8,8.5l0,0.1c1.4-0.6,2.9-0.9,4.4-0.9h0.1l1.4,0.1c3.7,0.5,6.9,2.9,8.6,6.2l0.4,1c0.7,1.8,1.2,4.6,0,8.1
				l-0.3,0.7l-0.4,1l-0.1,0.3l-1,2.1c-1.7,3.6-3.6,6.8-5.5,10l-0.1,0.1c-2.8,4.6-7.5,7.7-13,8.6l-0.7,0.1
				C298.6,81.3,297.5,81.5,296.3,81.5z"/>
		</g>
		<g>
			<path fill="#33CCCC" d="M327,77.7c-2.4,0-4.7-0.6-6.8-1.7c-1.8,0.8-3.7,1.2-5.7,1.2c-3.5,0-6.9-1.4-9.6-3.9
				c-5.8-5.4-7.9-13.1-5.7-20.7c1-3.5,2.2-6.5,3.7-9.2l0.3-0.4c0.3-0.5,0.6-1,1-1.4c0.1-0.1,0.1-0.2,0.2-0.3l0.5-0.7l0.6-0.8
				c1.4-1.9,3-3.1,4.3-3.9c0.3-1.7,0.7-3.5,1.1-5.6l0-0.2c0.2-0.6,0.3-1.3,0.4-2.2c0.1-0.5,0.2-0.9,0.3-1.4l0.3-2l0.1-0.4
				c0.9-4.1,2.4-7.8,4.5-11c2.6-4.1,6.8-6.5,11.5-6.5c1,0,2,0.1,3,0.3l0.1,0c3.1,0.7,5.3,2.4,6.4,3.3l0.2,0.2c4,3.2,4.4,7.5,4.6,8.9
				l0,0.3c0.1,1.3,0.1,2.6,0,3.8c0,0.2,0,0.4,0,0.5l0.1,0.7c0.1,2.6-0.3,4.9-0.6,6.5l-0.1,0.6l-0.1,0.4c-0.1,0.2-0.1,0.5-0.2,0.8
				c0,0.1-0.1,0.3-0.1,0.4l0,0.4c0-0.1,0-0.2,0-0.3l0,0.1c0,0.3-0.1,0.7-0.1,1l0,0.2c0,0.6-0.1,1.6-0.4,2.7l0,0.1c0,0,0,0,0.1,0
				c2.3,0,4.6,0.7,6.4,2.1c4.5,3.1,6,9,3.7,13.8c-0.1,0.3-0.2,0.5-0.4,0.8l-0.1,0.1c0.1-0.1,0.1-0.2,0.1-0.3l-0.4,0.9l-0.7,1.2
				c-1.8,3.8-3.8,7-5.8,10c-0.4,0.6-0.8,1.2-1.3,1.9l-0.6,1c-2.2,3.4-5.5,6-9.5,7.4C330.7,77.4,329,77.7,327,77.7z"/>
		</g>
		<g>
			<path fill="#33CCCC" d="M346.6,78.5c-2.5,0-4.6-0.5-6-0.9l-0.3-0.1c-4.1-1.2-7.4-4.1-9.5-8.2l-0.2-0.4c-1.6-3.6-3.2-8-2.9-13.3
				l0-0.4c0.3-2.8,0.8-5.3,1.5-7.5l0.2-0.7l0.1-0.2c0.4-1.4,0.9-2.7,1.3-3.7l0.1-0.3c1.8-4.2,4.6-7.8,8-10.7l0.2-0.1
				c2.5-2,5.1-2.8,7.2-3.3l0.2-0.1c0.9-0.2,1.8-0.3,2.7-0.3c0.4,0,0.7,0,1.1,0.1c-0.2,0-0.4,0-0.5,0l1.6,0.1
				c5.8,1,11.3,6.1,12.5,11.8l0.1,0.7c0.1,0.5,0.2,1.1,0.2,2c2.8,1.1,5,3.4,6.2,6.3c1.3,3.3,1,7-0.8,10.1c-1.8,3-3.7,6.1-6.1,9.1
				c-0.4,0.5-0.9,1.1-1.6,1.8c-0.2,0.2-0.2,0.3-0.2,0.3l-0.1,0.2c-2.2,2.9-4.7,4.5-7.1,5.9l-0.8,0.4c-2,1.1-4.3,1.6-6.6,1.6H346.6z"
				/>
		</g>
		<g>
			<path fill="#33CCCC" d="M372.7,80.9c-3.2,0-6.5-1-9.1-2.9c-2.2-1.5-7.2-5.1-8.6-12.2c-0.4-2-0.7-4.2-0.4-6.6
				c-2.1-1.7-3.9-3.7-5.3-6c-2.4-3.9-3-7.9-3.2-10.9l0-0.7v-1.7l0.5-3.1c-0.4,1.2-0.4,2.1-0.4,2.4c0-3.6,1.3-6.3,2.2-7.8
				c0.2-0.4,0.4-0.8,0.6-1.1c2.7-5,5.6-7.1,11.4-8.1l0.3,0c0.6-0.1,1.3-0.1,1.9-0.1c5.1,0,9.9,2.8,12.2,7.2l0.1,0.2
				c0.8,1.5,2.8,5.6,2,10.8c-0.1,1-0.3,2.1-0.6,3.4c0.2,0.2,0.4,0.3,0.6,0.5c1.8-1.2,4.1-2,6.4-2c0.5,0,1,0,1.4,0.1l1.9,0.4
				c4.2,1.4,7,4.9,7.5,9.2c0.1,0.8,0.1,1.6,0.1,2c0.3,4-1,7.1-1.8,9l-0.1,0.2l-0.4,1c-0.9,2.3-2,4.7-3.2,6.9l-0.1,0.1
				c-2.4,4-5.5,6.1-7.6,7.4l-0.6,0.3c-1.3,0.7-3.9,2.2-7.5,2.2H372.7z"/>
		</g>
		<g>
			<path fill="#33CCCC" d="M389.8,79.4c-2.5,0-5-0.7-7.3-1.9l-0.8-0.4c-0.3-0.1-0.6-0.3-0.9-0.4c-1.6-0.7-2.9-1.8-4-3.2
				c-1.7-2-3.6-4.4-4.8-7.7c-1.7-4.6-1.5-8.9-1.3-12c0,0,0.1-0.8,0.1-0.8c-0.2-2.1-0.1-4,0.1-5.4c0-0.7,0.1-1.4,0.2-1.9
				c0.1-1.5,0.2-3.4,0.5-5.5l0.2-1.6l0.1-0.4l0.3-1.8c0.7-4.1,1.3-8.4,2.5-12.8l0.1-0.3c0.3-1,0.5-1.8,0.6-2.4l0.1-0.3
				c0.5-2.3,1.4-4.6,2.7-6.6l0.5,0.2l0.2-1.1l-0.1,0c0-0.1,0.1-0.2,0.1-0.3l0-0.1c0,0,0-0.1,0.1-0.1c0.4-0.9,0.9-1.7,1.5-2.6
				c2.2-3.6,5.6-6.4,9.4-8l0.2-0.1c1.9-0.7,3.6-0.9,4.7-1.1l0.5-0.1l0.6,0c-0.3,0-0.6,0.1-0.9,0.2l1.2-0.2l0.5,0c-0.1,0-0.2,0-0.4,0
				l0.4-0.1c0.3,0,0.6,0,1,0c2.8,0,5.5,0.9,7.8,2.6c2.8,2,4.5,4.9,5,8.3l0.1,0.8c0.1,1.9,0.1,4-0.3,6.2c-0.7,4.4-1.7,8.6-3.2,12.6
				c-1,2.7-2.3,6.1-4.6,9.4c-0.1,0.2-0.3,0.6-0.6,1.4l-0.1,0.4c-0.1,0.2-0.2,0.3-0.2,0.5c1,0.1,2.4,0.3,3.9,1.1
				c4.4,2.2,6.8,6.9,6.1,11.8c-0.1,0.9-0.4,1.8-0.7,2.7l-0.2-0.1l-0.2,1c-0.2,0.5-0.5,1.2-0.6,1.9c-0.3,1.1-0.7,2.2-1.2,3.1l0,0.1
				c-1.2,2.4-2.4,4.4-3.6,6.1l-0.2,0.3l-0.2,0.3c-1.6,2.3-3.5,4.2-5.6,5.6C395.9,78.4,392.9,79.4,389.8,79.4z"/>
		</g>
		<g>
			<path fill="#33CCCC" d="M419.3,78c-1.8,0-3.2-0.4-4-0.6l-0.1,0l-1-0.3c-2.5-1-4.7-2.5-6.3-4.4c-0.9,0.2-1.7,0.2-2.6,0.2
				c0,0,0,0,0,0c-7.6,0-16.2-6.6-17.1-17.3c-0.2-2.5-0.3-6.2,0.8-10.1c0.4-1.5,0.9-2.8,1.4-3.8l0.2-0.5l0.3-0.8
				c2-4,5.9-6.5,10.2-6.5c1.1,0,2.2,0.2,3.2,0.5c0.1,0,0.1,0,0.2,0c2.5,0.5,4.4,1.5,5.8,2.7c1.7-1.9,4.1-3.5,7.3-4.3l0.1,0l1-0.2
				c0.5-0.1,1-0.1,1.6-0.1c4.1,0,7.9,2.3,9.9,6c0.9,1.5,1.4,3.2,1.7,4.9c4.7,1.9,7.6,6.7,6.9,11.8l-0.2,1l-0.2,0.9l-0.3,0.9
				c-0.8,2.2-1.6,4.4-2.6,6.7L435,66c0,0.1-0.1,0.3-0.2,0.4c-0.5,1.5-1.2,2.8-2.2,4.1l-0.2,0.2c-1.9,2.3-4.4,4.3-7,5.7l-0.3,0.2
				C423.3,77.6,421.3,78,419.3,78z"/>
		</g>
		<g>
			<path fill="#33CCCC" d="M433.1,80.8c-2.2,0-4.3-0.4-6.2-1.1c-1.8-0.6-3.2-1.4-4.1-2l-0.3-0.2l-0.3-0.3c0.1,0,0.1,0.1,0.2,0.1
				l-0.3-0.2l-1.6-1.2c0.3,0.3,0.7,0.6,0.9,0.8l-0.9-0.6c-1.5-1.2-2.8-2.8-3.6-4.6l-0.1-0.2c-0.5-1-1.2-2.5-1.8-4.2
				c-0.9-2.9-1-6.2-0.1-9.4c0.8-5.3,3.6-8.3,6.6-9.8c-0.4-0.8-0.9-1.8-1.3-2.8l-0.1-0.3c-1.6-4.3-1.9-8.6-0.7-12.7l0.3-0.9
				c0.3-0.9,0.8-2.1,1.6-3.3c2-3.2,4.5-5.6,7.6-7.1c2.1-1.1,4.3-1.6,6.6-1.6c2.8,0,5.5,0.8,8,2.4c1.7,1.1,3.3,2.4,4.5,4
				c1.8,2.3,2.8,5,3,8.1c0.3,3.7-0.6,7.2-2.7,10.4c1.3,1.9,2.5,4,3.6,6.3l0.1,0.1c1.3,2.7,1.4,5.2,1.5,6.5l0,0.6
				c0.1,3.8-0.7,7.4-2.3,10.6c-0.3,0.7-0.5,1.3-0.8,1.7l0,0.1c-2.8,5.4-6.9,8.8-12.2,10.1C436.3,80.6,434.7,80.8,433.1,80.8z"/>
		</g>
		<g>
			<path fill="#33CCCC" d="M451.3,75.9c-2.3,0-4.6-0.5-6.9-1.5c-2.1-0.9-3.9-2.3-5.2-4.1c-3.5-4.4-5.2-9.5-4.8-14.8l0-0.3
				c-0.1-0.6-0.1-1.1-0.1-1.5c0-3,0.4-5.7,0.8-8.1l0.1-0.7c-1-0.9-1.8-2-2.4-3.2l-0.5-1.1c-1.6-4.6-0.3-9.5,3.4-12.7
				c0.7-0.7,1.7-1.6,3-2.5c0.7-2.8,1.3-5.6,2-8.2l0.1-0.4l1.5-5l0.3-0.9l0.1-0.4c0.5-1.5,1.1-2.7,1.6-3.4c2.3-3.9,6.5-6.4,11-6.4
				c2,0,3.9,0.5,5.7,1.4c3.8,1.9,6.3,5.6,6.5,9.8c0.2,1.9,0,3.7-0.4,5.4c-0.1,0.6-0.3,1.2-0.5,1.8c1.1,0.7,2,1.6,2.8,2.7
				c2.9,3.9,2.9,9.2-0.1,13.1c-1.5,2-3.2,3.1-4.3,3.8l-1,0.5c0.1-0.1,0.2-0.1,0.4-0.2l-1,0.6c-0.5,0.3-1.1,0.6-1.7,1
				c0,0.2-0.3,1.7-0.4,2.2c1.1,0.2,2.2,0.5,3.2,1c3.7,1.9,6.2,5.8,6.2,10c0,1.8-0.4,3.1-0.7,4.2c-0.3,1-0.8,2-1.5,3.5
				c-0.3,0.5-0.5,1.1-0.7,1.5c0-0.1,0.1-0.1,0.1-0.2l-0.3,0.7c-0.3,0.7-0.8,1.8-1.6,3.1l-0.1,0.3C462.9,72.5,457.5,75.9,451.3,75.9z
				"/>
		</g>
	</g>
</g>
<g>
	<path fill="#FFFFFF" d="M32.1,74.5c-0.5-0.5-0.9-1.1-1.2-1.9c-0.8-1.7-1.1-3.6-1.3-5c-0.6-4.5-0.6-8.9-0.4-13.4
		c0.1-4.7-0.1-9.4,0.5-14c0.1-1.2,0.2-2.3,0.2-3.5c0-0.3,0-0.6,0.1-0.9c-0.3,0.6-0.5,1.2-0.7,1.8c-0.8,2-1.5,4-2.2,6l-1.2,3.3
		l-0.9,2.3c-0.6,1.7-1.3,3.4-1.9,5c-1,3.2-2.4,6.1-3.8,9l-0.7,1.3c-0.2,0.6-0.5,1-0.9,1.4c-0.9,1.2-2.6,1.4-3.7,0.4
		c-3.2-2.5-3.1-7.9-3.6-11.7c-0.7-4.6,0.1-9.2,0.2-13.8c0.1-2.4,0.4-5,0.7-7.6c0.3-2.7,0.6-5.8,0.6-8.6c0-1.2,0.4-2.2,0.7-3.1
		l0.2-0.6c0.3-0.7,0.9-1.2,1.6-1.3c0.5-0.1,0.9-0.1,1.3-0.1h0.1c2.9,0,2.2,4.3,2,6.2c-0.3,3.7-0.3,7.6-0.4,11.4
		c-0.1,5.1-0.6,10.3-0.6,15.3v3.9c-0.1,0.4,0.1,0.7,0.1,1.2s0.8,2.5,0.6,2.9c0.9-1.7,1.6-3.5,2.3-5.3c0.1-0.5,0.4-1,0.6-1.5
		c4.1-10.1,6.3-21.5,12.4-30.5c0.2-0.3,0.4-0.7,0.6-1.2c0.2-0.6,0.5-1.3,1-1.9l0.1-0.2c0.2-0.4,0.6-1.1,1.3-1.1c0.1,0,0.2,0,0.3,0.1
		c1,0.3,1.1,1.4,1.1,1.9v0.3c0.4,2.8-0.1,5.8-0.2,8.6c-0.1,3.1-0.2,6.3-0.3,9.4c0,6.2,0.1,12.4-0.1,18.6c-0.1,2.7-0.1,5.4-0.1,8v2.1
		l3.9-10.9c0.7-1.9,1.4-3.8,2-5.8c1.2-3.6,2.5-7.4,4-11c0.6-1.4,1.1-2.8,1.6-4.2l1.5-4c0.7-1.8,1.4-3.6,2.2-5.4
		c1.7-4.4,3.5-8.9,5.5-13.2l0.1-0.4c0.4-0.8,0.8-1.7,1.5-2.4c0.4-0.5,1.2-0.4,1.7,0c0.2,0.3,0.4,0.7,0.4,1.2c0,0.3-0.1,0.6-0.3,1
		c-0.9,1.5-1.7,3.2-2.4,4.8l-0.3,0.6c-1.7,3.7-3.2,7.5-4.5,11.2c-0.6,1.4-1.2,2.9-1.7,4.3l-0.6,1.4C50,37.4,49,40.2,47.9,43
		c-1.1,2.9-2.1,5.8-3,8.5c-0.3,0.7-0.5,1.4-0.8,2.2c-0.8,2.5-1.7,5.1-2.7,7.6c-1,2.4-1.9,5-2.7,7.4l-1.1,3.2l-0.1,0.3
		c-0.2,0.6-0.4,1.3-0.9,1.9c-0.9,1.2-1.8,1.4-2.4,1.4C33.5,75.5,32.8,75.2,32.1,74.5z M32.2,71.6c-0.1-0.8-0.1-1.7-0.3-2.4
		c-0.5-2.8-0.7-5.3-0.6-7.8c0.1-0.7,0.1-1.6,0.1-2.4l-0.2-4c-0.1-1.2-0.1-2.5-0.3-3.8c0-0.2-0.1-0.4-0.2-0.7
		c-0.1,0.2-0.1,0.2-0.2,0.3c-0.1,0,0,0.4-0.1,0.4c0.1,1.7,0.1,3.5,0.1,5.2c0,2.1,0.1,4.1,0.3,6.1c0.1,2,0.3,3.8,0.6,5.8
		c0.1,0.3,0.1,0.6,0.1,0.9l0.3,2.5l0.4,0.6C32.2,72,32.2,71.7,32.2,71.6z"/>
	<path fill="#FFFFFF" d="M59,67.9c-1.4-0.4-2.6-1.5-3.4-3.1c-1-2.2-2.2-5.2-2-8.5c0.2-2.1,0.6-4,1.1-5.5L55,50
		c0.3-1.1,0.7-2.2,1.2-3.2c1.2-2.8,3-5.2,5.2-7c1.1-0.9,2.2-1.2,3.4-1.4l0.1-0.1c0.3-0.1,0.6,0,0.9,0c1.7,0.3,4,2.4,4.4,4
		c0.1,0.5,0.1,0.9,0,1.3v0.1c-0.4,1.3-0.7,2.7-1.5,3.9c-3.5,5.5-10.2,7.8-7.3,15c0.4,1,2.1,2.3,3.5,2.4c0.2,0,0.4-0.1,0.6-0.1
		c0.6-0.1,1.1-0.5,1.5-1l0.6-0.6c0.4-0.5,0.9-1,1.4-1.6c1.7-2,3.5-4.3,5-6.8l0.6-1.3c0.1-0.4,0.3-0.6,0.4-1c0.3-0.6,0.9-0.9,1.6-0.6
		c0.3,0.1,0.6,0.4,0.7,0.7c0.1,0.4,0.1,0.9-0.1,1.2c-1.7,2.9-3.4,5.5-5.3,7.9c-0.3,0.4-0.6,0.7-0.9,1c-0.5,0.5-0.9,1-1.3,1.5
		c-1.1,1.4-2.5,2.3-4,3.1l-0.5,0.2c-0.6,0.4-1.4,0.6-2.1,0.6h-0.4h-0.1C61.2,68.5,60.1,68.2,59,67.9z M61.2,52.5
		c2.4-1.9,4.2-3.9,5.5-6c0.5-0.8,0.8-1.7,1.1-2.6l0.1-0.7c-0.1-1.3-0.6-1.3-0.7-1.3s-0.4,0.1-0.6,0.2c-0.6,0.3-1.1,0.6-1.4,1.1
		c-0.8,1.1-1.6,2.3-2.4,4c-0.8,1.7-1.4,3.5-1.9,5.5C61,52.7,61.1,52.6,61.2,52.5z"/>
	<path fill="#FFFFFF" d="M79,67.9c-1.4-0.4-2.6-1.5-3.4-3.1c-1-2.2-2.2-5.2-2-8.5c0.2-2.1,0.6-4,1.1-5.5l0.3-0.7
		c0.3-1.1,0.7-2.2,1.2-3.2c1.2-2.8,3-5.2,5.2-7c1.1-0.9,2.2-1.2,3.4-1.4l0.1-0.1c0.3-0.1,0.6,0,0.9,0c1.7,0.3,4,2.4,4.4,4
		c0.1,0.5,0.1,0.9,0,1.3v0.1c-0.4,1.3-0.7,2.7-1.5,3.9c-3.5,5.5-10.2,7.8-7.3,15c0.4,1,2.1,2.3,3.5,2.4c0.2,0,0.4-0.1,0.6-0.1
		c0.6-0.1,1.1-0.5,1.5-1l0.6-0.6c0.4-0.5,0.9-1,1.4-1.6c1.7-2,3.5-4.3,5-6.8l0.6-1.3c0.1-0.4,0.3-0.6,0.4-1c0.3-0.6,0.9-0.9,1.6-0.6
		c0.3,0.1,0.6,0.4,0.7,0.7c0.1,0.4,0.1,0.9-0.1,1.2c-1.7,2.9-3.4,5.5-5.3,7.9c-0.3,0.4-0.6,0.7-0.9,1c-0.5,0.5-0.9,1-1.3,1.5
		c-1.1,1.4-2.5,2.3-4,3.1L85,67.9c-0.6,0.4-1.4,0.6-2.1,0.6h-0.4h-0.1C81.1,68.5,80.1,68.2,79,67.9z M81.1,52.5
		c2.4-1.9,4.2-3.9,5.5-6c0.5-0.8,0.8-1.7,1.1-2.6l0.1-0.7c-0.1-1.3-0.6-1.3-0.7-1.3s-0.4,0.1-0.6,0.2c-0.6,0.3-1.1,0.6-1.4,1.1
		c-0.8,1.1-1.6,2.3-2.4,4c-0.8,1.7-1.4,3.5-1.9,5.5C81,52.7,81.1,52.6,81.1,52.5z"/>
	<path fill="#FFFFFF" d="M94.1,67.2c-0.4-0.7-0.6-1.6-0.6-2.4l0.1-1.1c0.1-1.4,0.2-2.7,0.4-4.1c0.1-1,0.4-2,0.5-3.1
		c0.3-1.5,0.6-3.1,0.7-4.7c0.1-0.8,0.3-1.7,0.4-2.4c0.2-1.3,0.4-2.4,0.4-3.7c0-0.3,0-0.5,0.1-0.7l0.6-2.8c0.4-1.6,0.7-3.2,1-4.8
		c0.2-0.8,0.4-1.7,0.5-2.7c0.1-1.2,0.4-2.4,0.8-3.6c0.4-1.1,0.6-2,0.7-3c0.4-2.6,1.4-5,2.3-7.4l0.4-0.9c0.1-0.4,0.4-1.3,1.4-1.3
		c0.3,0,0.6,0.1,0.9,0.2c0.4,0.1,0.7,0.2,1,0.3c1,0.4,1.3,0.9,1.2,2c-0.1,1.9-0.6,4-1.2,5.9c-0.4,1.4-0.7,2.6-0.9,3.6
		c-0.5,2.6-1.1,5.1-1.7,7.7l-0.9,3.8c-0.6,2.7-1.2,5.5-1.6,8.2l0.3-0.6c0.6-1.2,1.2-2.3,1.8-3.5c0.7-1.2,1.3-2.4,1.7-3.7
		c0.2-0.5,0.5-1,0.8-1.4l0.2-0.4l0.4-0.8c0.3-0.4,0.5-0.8,0.7-1.2c0.7-1.5,1.8-2.7,2.8-4c0.2-0.3,0.4-0.5,0.6-0.7
		c0.6-0.7,1.3-1.2,2-1.6l0.4-0.2c0.6-0.3,1.2-0.4,2-0.2c0.8,0.1,1.3,0.7,1.4,1.4c0,0.1,0.1,0.3,0.1,0.4c0.1,0.5,0.1,1,0,1.5
		c-0.4,2.2-0.8,4-2,5.6c-3,4-5.8,7.8-9.4,11.2l-0.3,0.3c0.1,0.1,0.1,0.1,0.3,0.1c0.1,0.1,0.4,0.3,0.5,0.5c1.7,2.4,2.6,4.5,2.7,6.8
		l0.2,2.4c0,0.5,0.1,1.1,0.1,1.6c0.1,0.5,0.1,0.9,0.4,1.2c0.6,0.9,1.7,1,2.4,0.4c0.4-0.4,0.9-0.8,1.3-1.3l1.1-1.6
		c1-1.5,2.1-3,2.8-4.7c0.2-0.6,0.5-1.2,0.8-1.7c0.6-1.1,1.1-2.1,1.4-3.2c0.2-0.7,0.8-1.1,1.5-0.9c0.4,0.1,0.6,0.2,0.8,0.5
		c0.1,0.4,0.1,0.8,0,1.3c-0.3,0.6-0.6,1.4-0.9,2l-0.9,1.7c-0.4,0.8-0.9,1.7-1.2,2.4c-1,2.2-2.3,4-3.3,5.3c-0.4,0.6-0.9,1.1-1.4,1.5
		c-1.4,1.2-2.8,1.5-4.5,0.9c-1.2-0.4-2-1.2-2.5-2.4c-0.1-0.4-0.3-1-0.3-1.5c-0.1-1.8-0.6-3.5-1.2-5.3l-0.6-2.3
		c-0.1-0.2-0.2-0.4-0.4-0.6c-0.4-0.6-0.5-0.6-0.5-0.6c-0.1,0-0.2,0-0.6,0.5l-0.3,0.4c-0.3,0.4-0.6,0.9-1,1.2
		c-0.3,0.3-0.4,0.6-0.6,1.1c-0.3,1.5-0.8,3-1.3,4.4c-0.4,1.1-0.6,2.3-0.8,3.7c-0.1,1.2-0.3,1.5-1.4,1.7c-0.4,0.1-0.6,0.1-0.9,0.1
		C95,68.4,94.5,68,94.1,67.2z M100.6,34.3c0.1-0.5,0.4-0.9,0.4-1.4c0.3-0.7,0.5-1.4,0.6-2.2c0.2-0.6,0.1-1.2,0.3-1.9
		c0.2-0.8,0.8-1.7,0.6-2.4c-0.3-1.2,0.5-1.3,0.9-2.4c-0.6-0.3-0.3-1.7-0.2-1.9c0.2-0.6,0.8-0.1,0.3-0.6c-0.3,0.4-0.6,0.6-0.7,0.9
		c-0.6,2.4-1.1,3.9-1.7,6.3c-0.4,1.9-1,3.7-1.5,5.6c-0.1,0.8-0.1,1.7-0.3,2.5C100.2,36.1,100.4,35.2,100.6,34.3z M102.5,37.6
		c0.1-1.4,0.1-2.8,0.2-4.2c-0.3,1.3-0.6,2.7-0.9,4.1c0,0.1,0.2,0.3,0.3,0.4C102.2,37.7,102.5,37.6,102.5,37.6z M106.1,46.6
		c1.9-2.4,3.4-4.9,4.6-7.6c0.5-1.1,0.8-2,1-3c-1.2,1.2-2.1,2.3-2.7,3.5c-0.4,0.7-0.7,1.3-1.2,1.9c-0.4,0.7-0.9,1.4-1.2,2.2
		c-0.6,1.4-1.3,3-2.1,4.5C105.2,47.7,105.7,47.2,106.1,46.6z"/>
	<path fill="#FFFFFF" d="M123.2,67.9c-1.4-0.4-2.6-1.5-3.4-3.1c-1-2.2-2.2-5.2-2-8.5c0.2-2.1,0.6-4,1.1-5.5l0.3-0.7
		c0.3-1.1,0.7-2.2,1.2-3.2c1.2-2.8,3-5.2,5.2-7c1.1-0.9,2.2-1.2,3.4-1.4l0.1-0.1c0.3-0.1,0.6,0,0.9,0c1.7,0.3,4,2.4,4.4,4
		c0.1,0.5,0.1,0.9,0,1.3v0.1c-0.4,1.3-0.7,2.7-1.5,3.9c-3.5,5.5-10.2,7.8-7.3,15c0.4,1,2.1,2.3,3.5,2.4c0.2,0,0.4-0.1,0.6-0.1
		c0.6-0.1,1.1-0.5,1.5-1l0.6-0.6c0.4-0.5,0.9-1,1.4-1.6c1.7-2,3.5-4.3,5-6.8l0.6-1.3c0.1-0.4,0.3-0.6,0.4-1c0.3-0.6,0.9-0.9,1.6-0.6
		c0.3,0.1,0.6,0.4,0.7,0.7c0.1,0.4,0.1,0.9-0.1,1.2c-1.7,2.9-3.4,5.5-5.3,7.9c-0.3,0.4-0.6,0.7-0.9,1c-0.5,0.5-0.9,1-1.3,1.5
		c-1.1,1.4-2.5,2.3-4,3.1l-0.5,0.2c-0.6,0.4-1.4,0.6-2.1,0.6h-0.4h-0.1C125.3,68.5,124.3,68.2,123.2,67.9z M125.3,52.5
		c2.4-1.9,4.2-3.9,5.5-6c0.5-0.8,0.8-1.7,1.1-2.6l0.1-0.7c-0.1-1.3-0.6-1.3-0.7-1.3s-0.4,0.1-0.6,0.2c-0.6,0.3-1.1,0.6-1.4,1.1
		c-0.8,1.1-1.6,2.3-2.4,4c-0.8,1.7-1.4,3.5-1.9,5.5C125.2,52.7,125.3,52.6,125.3,52.5z"/>
	<path fill="#FFFFFF" d="M153.6,69.5c-1.4-2.5-2.5-5.3-3.1-8.3c-0.1-1-0.1-2.1-0.1-3.1c0-0.4,0.1-0.9,0.1-1.4V52
		c-0.9,1.2-1.6,2.2-2.1,3.2l-5.6,9.7c-0.4,0.8-1.2,1.2-2,1.2c-0.6,0-1.2-0.1-1.6-0.6c-0.9-0.7-1.2-1.8-1.4-2.7v-0.2
		c-0.2-0.7-0.1-1.4-0.1-2.2c0.1-0.4,0.1-0.9,0.1-1.4c0.1-0.6,0.1-1.1,0.1-1.7c0.1-1.4,0.2-2.7,0.4-4.1c0.1-1.2,0.3-2.4,0.4-3.6
		c0-0.6,0.1-1.2,0.2-1.9c0.1-0.8,0.2-1.6,0.1-2.4c0-0.4,0.1-0.9,0.4-1.4l0.2-0.6c0.4-1.1,0.7-1.7,2.2-1.7h0.9
		c1.2,0.1,1.8,0.2,2.2,0.7c0.4,0.5,0.4,1.3,0.2,2.4c-0.1,1.2-0.3,2.2-0.5,3.4c-0.1,0.7-0.2,1.4-0.4,2.1c0,0.4-0.1,0.7-0.1,1.1
		c-0.1,1-0.2,2.1-0.6,3.1c-0.1,0.1-0.1,0.2-0.1,0.3l-0.1,0.4c-0.1,0.3-0.1,0.5-0.1,0.7c0,0.9-0.1,1.9-0.1,2.8l3.5-5.8
		c0.8-1.4,1.8-2.7,3.1-4.2l0.6-0.6c0.5-0.6,1-1.3,1.6-1.9c0.6-0.7,1.4-1.1,2.2-1.1c1.2,0,2,0.9,2.5,2.2c0.8,2.4,1,4.5,0.6,6.3
		c-0.1,0.5-0.1,1.1-0.1,1.7l0.6,8.3v0.1c0.1,0.1,0.1,0.4,0.1,0.5c0.8,1.2,1.5,2.2,2.5,3c0.1,0.1,0.2,0.2,0.4,0.2
		c0.1,0,0.2-0.1,0.4-0.2c1.2-1,1.9-1.8,2.5-2.7c1.2-2.2,2.7-4.7,4-7.3c0.3-0.5,0.5-1.2,0.8-1.8c0.1-0.3,0.2-0.6,0.3-0.9
		c0.1-0.1,0.1-0.2,0.1-0.4c0.1-0.3,0.2-0.5,0.3-0.7c0.2-0.4,0.6-0.6,1-0.6h0.1c0.5,0.1,0.9,0.4,1.1,0.8c0.2,0.6,0,1.1-0.1,1.3
		l-0.4,1l-0.9,2c-1.5,3.2-3.3,6.2-5.1,9.2c-1.4,2.2-3.5,3.5-6.1,4h-0.4h-0.4c-0.1,0-0.3,0-0.4,0.1c-0.4,0.2-0.9,0.3-1.4,0.3
		C155.7,71.5,154.6,71.1,153.6,69.5z M153.1,62.5c0.1-0.5,0.1-1,0.1-1.4c0-0.8,0-1.6-0.1-2.2c0-0.6-0.3-1.2-0.3-1.9
		c-0.1-0.9,0.2-1.8-0.1-2.5c-0.6-1,0.1-1.4,0.1-2.6c-0.6-0.1-0.8-1.4-0.8-1.8c0-0.6,0.7-0.3,0.1-0.6c-0.1,0.4-0.4,0.8-0.4,1.2
		c0.2,2.5,0.1,4,0.4,6.5c0.1,1.9,0.1,3.9,0.3,5.8c0.1,0.8,0.4,1.6,0.5,2.5C153.3,64.3,153.1,63.4,153.1,62.5z M155.9,65.1l-1.1-4.2
		c0.1,1.4,0.3,2.9,0.4,4.2l0.4,0.3C155.7,65.3,155.9,65.1,155.9,65.1z"/>
	<path fill="#FFFFFF" d="M202.2,49.5c-0.1,0.4-0.4,0.7-0.5,1.1l-0.7,1.4c-1.6,3.2-3.2,6.1-5.1,8.8c-0.5,0.7-1,1.4-1.5,2.2l-0.6,0.9
		c-1,1.6-2.6,2.8-4.6,3.5c-0.7,0.3-1.3,0.4-1.9,0.4c-1.2,0-2.2-0.4-3.1-1.4c-1-1-2.1-2.3-2.5-4c0-0.2-0.1-0.4-0.1-0.4l-0.1,0.2
		l-1.5,1.6l-0.2,0.2c-0.6,0.8-1.4,1.5-2.2,2.2c-1.8,1.5-3.9,1.4-5.6-0.1c-3-2.8-4-6.6-2.8-10.5c0.8-2.9,1.7-5.2,2.8-7.1
		c0.4-0.6,0.8-1.1,1.2-1.7l0.7-0.9c0.6-0.9,1.4-1.3,2.2-1.7c1.4-0.6,2.4-0.6,3.4,0.2v-0.4c-0.1-3.3,0.4-6.7,1.4-11.2
		c0.4-1.4,0.6-2.8,0.9-4.2l0.4-2.1c0.6-2.7,1.6-5.3,3.1-7.6c1-1.6,2.4-2.2,4-1.8c0.9,0.2,1.7,0.8,2.3,1.4l0.3,0.2
		c0.7,0.6,0.8,1.4,0.9,2.2c0.1,0.9,0.1,1.8,0,2.7c0,0.6,0,1.3,0.1,1.9c0.1,1.7-0.3,3.3-0.6,4.9c-0.1,0.6-0.4,1.4-0.4,2.1
		c-0.1,0.4-0.1,0.9-0.1,1.4c-0.1,0.6-0.1,1.3-0.2,1.9l-0.9,4l-0.6,3.2l-0.2,0.8c-0.1,0.4-0.1,0.7-0.2,1.1c-0.5,2.3-1.3,4.7-2.7,7.4
		l-0.5,0.9c-0.1,0.3-0.3,0.6-0.4,0.9c-0.3,0.6-0.4,1.2-0.3,1.7l0.4,2.9c0.2,1.2,0.4,2.3,0.5,3.4c0.1,1.4,1.2,2.2,2.4,3
		c0.1,0,0.1,0,0.4-0.1c0.6-0.4,1.2-0.8,1.8-1.4c0.7-0.7,1.4-1.7,1.9-2.6c0.3-0.4,0.5-0.8,0.8-1.2l0.4-0.6c0.1-0.3,0.4-0.6,0.6-0.9
		c1.9-2.6,3.5-5.5,5.2-9.1c0.1-0.2,0.2-0.5,0.4-0.6c0.4-0.5,1.1-0.6,1.5-0.2C202.3,48.4,202.5,49,202.2,49.5z M172.9,61.4
		c0-0.1-0.1-0.2-0.2-0.3h-0.1c0,0,0,0-0.1,0c-0.1,0-0.2,0.1-0.2,0.1c0,0.1,0,0.1,0.1,0.2c0,0.1,0.1,0.1,0.2,0.2l0.1-0.6v0.6
		L172.9,61.4L172.9,61.4z M173.9,56.3c0-0.1,0-0.1-0.1-0.3c-0.1,0-0.1-0.1-0.2-0.1c-0.1,0.1-0.2,0.1-0.3,0.1v0.1
		c-0.1,0.1-0.1,0.1,0,0.2l0.2,0.1l0.1-0.6L173.9,56.3C173.8,56.4,173.8,56.3,173.9,56.3z M180.6,57.9l-0.2-1.7
		c-0.1-1.3-0.3-2.5-0.6-3.7c-0.3-0.9-0.5-1.9-0.7-2.9c-0.1-0.5-0.2-1-0.3-1.5l-0.4-1.4c0,0-0.1,0-0.1,0H178
		c-0.3,0.1-0.4,0.3-0.5,0.5c-0.1,0.2-0.2,0.4-0.3,0.5c-0.2,0.4-0.4,0.9-0.5,1.2c-1.3,3.9-1.7,7.8-1.9,11.2c-0.1,0.9,0,1.7,0.1,2.7
		v0.1c0,0.3,0.1,0.4,0.3,0.5c0.1,0.1,0.2,0.1,0.4,0.2c0.1,0.1,0.4,0.2,0.5,0.4l0.1,0.1c0,0,0.1-0.1,0.1-0.1c1.7-1.6,2.9-3,3.8-4.5
		C180.6,58.8,180.6,58.4,180.6,57.9z M185,23.5c0.1-0.1,0.1-0.3,0.1-0.3c-0.8-0.1-0.6-0.3-0.1-0.5c0.1-0.1,0.2-0.2,0.2-0.3
		c-0.1-0.2-0.4-0.4-0.6-0.4c-0.1,0.1-0.3,0.2-0.2,0.4c-0.4,1.2-0.8,2.4-1,3.6l-1.7,7.8c-0.2,1.4-0.5,2.7-0.7,4h0.1
		c-0.1,0.6-0.1,1.1-0.1,1.7c0,0.1,0.1,0.2,0.2,0.3c0.1-0.1,0.3-0.1,0.4-0.2c0.1-0.2,0.1-0.4,0.1-0.6c0.1-0.7,0.2-1.5,0.4-2.2
		c0-0.1,0.1-0.3,0.1-0.4c-0.3-0.9,0.1-1.6,0.4-2.2c0.1-0.4,0.2-0.6,0.1-1c-0.2-0.8-0.1-1.5,0.6-2.1c0.2-0.1,0.3-0.4,0.3-0.6
		c-0.5-1.2-0.2-2.3,0.6-3.3c0.1-0.2,0.1-0.4,0.1-0.6C183.7,25.3,184.2,24.4,185,23.5z M184.5,51c1.2-2.4,2.3-4.7,2.7-7.3l0.2-1.1
		c0.1-0.6,0.3-1.3,0.5-1.9c0.3-1.4,0.6-2.7,0.9-4.2c0.4-1.9,0.6-3.8,0.9-5.8c0.2-1.1,0.4-2.2,0.5-3.2c0.3-2,0.4-4,0.1-6.2l-0.4,0.8
		c-0.8,2.4-1.4,5-2.1,8.5c-0.3,2-0.7,3.6-1.3,5.1c-0.4,1-0.8,2.2-0.9,3.5l-0.4,3.5c-0.3,1.9-0.6,3.7-0.6,5.7c0,0.6-0.1,1.3-0.1,2V51
		z M184.7,20.9h-0.1l0.1,0.4c0.1-0.1,0.1-0.2,0.3-0.3c0.1-0.1,0.1-0.2,0.3-0.4c-0.1-0.1,0.1-0.2,0.1-0.4l-0.2-0.1
		c-0.2,0.1-0.4,0.1-0.5,0.3C184.7,20.6,184.7,20.7,184.7,20.9z"/>
	<path fill="#FFFFFF" d="M238.4,67c-0.9-0.4-1.9-1-2.6-2.2c-2.1-3-3.2-6.3-3.5-10c-0.2-2.2-0.4-4.8,0-7.4c-1,1.7-2,3.5-2.8,5.3
		c-0.7,1.8-1.8,3.5-3.3,5.3c-1,1.2-2.4,2.3-4,3c-0.5,0.2-1.1,0.4-1.7,0.4c-1.9,0-3.6-1.3-4.1-3.1c-0.1-0.6-0.3-1.2-0.4-2v-1.4
		c0-0.2,0-0.4,0-0.6c0.1-2.6,0.4-4.8,1.3-7.6c0.3-1,0.5-2,0.7-3.1l0.1-0.9c0.1-0.5,0.2-1,0.5-1.5c0.4-0.6,1-1.4,2.4-0.9
		c0.4,0.1,0.8,0.3,1.2,0.3c1.2,0.2,1.3,1.1,1.3,1.8c-0.1,0.7-0.1,1.3-0.3,1.9l-0.2,1c-0.4,1.8-0.9,3.7-1.4,5.5
		c-0.6,2.2-0.6,4.5,0.1,6.8L222,58c0.1,0.2,0.2,0.2,0.4,0.1c1.1-0.5,2-1.3,2.7-2.3c3-4,6.1-19.9,12.1-19.9c0.2,0,0.4,0.1,0.6,0.1
		c0.7,0.4,0.9,1.2,0.9,1.9v1.8c0.1,5.5-2.1,11.2-0.4,16.6c0.1,0.4,0.1,0.8,0.1,1.2v0.2v0.7c-0.1,0.4-0.1,0.7,0,1
		c0.1,0.2,0.2,0.4,0.3,0.6c0.1,0.4,0.4,0.7,0.4,1.2c0,0.4,0.2,0.6,0.7,0.9c0.3,0.2,0.4,0.2,0.6,0.2c0.1,0,0.2,0,0.4-0.4
		c0.2-0.4,0.5-0.9,0.6-1.4c0.3-1.5,1-2.7,1.7-4.2c1-1.8,1.5-3.8,1.9-5.6c0.4-1.7,0.9-3.2,1.4-4.6c0.3-0.6,0.5-1.3,0.7-1.9
		c0.4-1.2,0.9-2.3,1.6-3.6l1.1-1.9c0.4-0.9,1-1.9,1.6-2.9l0.1-0.2c1.5-2.4,3-4.9,5.4-6.8c0.4-0.4,1.2-0.2,1.4,0.3
		c0.1,0.3,0.1,0.9-0.1,1.2c-2.2,1.9-3.6,4.4-5,6.9c-0.4,0.9-0.9,1.7-1.4,2.5c-1.6,2.6-2.7,5.4-3.7,8.3c-0.4,1.1-0.9,2.3-1,3.5
		c-0.3,1.8-0.9,3.5-1.6,5l-0.4,0.9c-0.6,1.5-1.4,3.3-1.8,5.1c-0.4,1.6-1.1,3.5-3.1,4.5c-0.3,0.1-0.7,0.4-1.2,0.4
		C239,67.3,238.7,67.2,238.4,67z"/>
	<path fill="#FFFFFF" d="M270.6,67.5c-0.9-0.1-2-0.3-2.8-1.3c-0.9-1.2-1.4-2.2-1.7-3.5c-0.1-1.3,0-2.6,0.1-3.8
		c0-0.3,0.1-0.6,0.1-0.9c-0.1,0.1-0.1,0.2-0.1,0.3c-1.2,1.6-2.6,3.1-4.1,4.5c-1.3,1.2-3,1.8-4.9,1.9c-1,0-1.8-0.4-2.4-0.9
		c-1.3-1.3-1.9-2.6-1.9-4.1c0-1.2,0.1-2.2,0.4-3.3l0.1-0.4c0.6-2.8,1.6-5.8,3.2-9.4c1.2-2.7,3.2-4.6,5.8-5.6c2-0.8,3.7-0.3,5,1.5
		c1.2,1.8,1.6,3.9,1,6.2c-0.2,0.6-0.9,1-1.4,0.7c-0.4-0.1-0.7-0.6-0.7-1l0.1-0.8c0.1-0.4,0.1-0.9,0-1.2c0-0.1,0-0.4-0.1-0.5
		c0-0.1,0-0.3-0.1-0.4c0-0.1,0-0.2-0.1-0.4c-0.1-0.6-0.2-0.9-0.5-0.9c-0.5-0.1-1,0.6-1.2,0.9c-1.2,1.4-1.8,2.6-2.1,3.9
		c-0.1,0.8-0.4,1.6-0.8,2.5c-0.8,1.9-1.2,4-1.7,6l-0.4,1.9c-0.1,0.8-0.1,1.5,0.4,2.2h0.1c1-0.8,1.9-1.6,2.6-2.4l0.8-0.9
		c0.9-1.2,2-2.5,3.1-3.7c0.6-0.6,0.9-1.3,1.2-2.3c0.4-1.7,1-3.4,1.6-5.1c0.3-0.9,0.7-1.9,1.1-2.7c0.5-1.2,1.4-1.4,2.1-1.4
		c0.3,0,0.6,0,0.9,0.1c0.1,0.1,0.3,0.1,0.4,0.1c4.5,1.1,1.2,5.8,0.1,8.5c-1,2.7-3,8.4-2.6,11.2c0.1,0.2,0.1,0.4,0.4,0.4
		c0.1,0,0.2,0,0.4-0.1c0.8-0.4,1.4-1.2,2-1.9l0.2-0.2c1.2-1.4,2.7-3.4,3.7-5.6l0.1-0.1c0.3-0.6,0.5-1.1,0.6-1.7
		c0.1-0.3,0.2-0.6,0.4-0.9c0.4-0.4,1.1-0.4,1.5-0.1c0.4,0.2,0.5,0.6,0.5,1c0,0.3-0.1,0.6-0.2,0.8c-1.4,3-2.8,5.3-4.4,7.2
		c-0.3,0.3-0.5,0.6-0.6,0.9c-0.9,1.5-1.9,3-3.6,4c-0.1,0.1-0.1,0.1-0.2,0.3c-0.2,0.3-0.6,0.7-1.2,0.7
		C270.8,67.6,270.7,67.6,270.6,67.5z"/>
	<path fill="#FFFFFF" d="M293.5,69.5c-1.4-2.5-2.5-5.3-3.1-8.3c-0.1-1-0.1-2.1-0.1-3.1c0-0.4,0.1-0.9,0.1-1.4V52
		c-0.9,1.2-1.6,2.2-2.1,3.2l-5.6,9.7c-0.4,0.8-1.2,1.2-2,1.2c-0.6,0-1.2-0.1-1.6-0.6c-0.9-0.7-1.2-1.8-1.4-2.7v-0.2
		c-0.2-0.7-0.1-1.4-0.1-2.2c0.1-0.4,0.1-0.9,0.1-1.4c0.1-0.6,0.1-1.1,0.1-1.7c0.1-1.4,0.2-2.7,0.4-4.1c0.1-1.2,0.3-2.4,0.4-3.6
		c0-0.6,0.1-1.2,0.2-1.9c0.1-0.8,0.2-1.6,0.1-2.4c0-0.4,0.1-0.9,0.4-1.4l0.2-0.6c0.4-1.1,0.7-1.7,2.2-1.7h0.9
		c1.2,0.1,1.8,0.2,2.2,0.7c0.4,0.5,0.4,1.3,0.2,2.4c-0.1,1.2-0.3,2.2-0.5,3.4c-0.1,0.7-0.2,1.4-0.4,2.1c0,0.4-0.1,0.7-0.1,1.1
		c-0.1,1-0.2,2.1-0.6,3.1c-0.1,0.1-0.1,0.2-0.1,0.3l-0.1,0.4c-0.1,0.3-0.1,0.5-0.1,0.7c0,0.9-0.1,1.9-0.1,2.8l3.5-5.8
		c0.8-1.4,1.8-2.7,3.1-4.2l0.6-0.6c0.5-0.6,1-1.3,1.6-1.9c0.6-0.7,1.4-1.1,2.2-1.1c1.2,0,2,0.9,2.5,2.2c0.8,2.4,1,4.5,0.6,6.3
		c-0.1,0.5-0.1,1.1-0.1,1.7l0.6,8.3v0.1c0.1,0.1,0.1,0.4,0.1,0.5c0.8,1.2,1.5,2.2,2.5,3c0.1,0.1,0.2,0.2,0.4,0.2
		c0.1,0,0.2-0.1,0.4-0.2c1.2-1,1.9-1.8,2.5-2.7c1.2-2.2,2.7-4.7,4-7.3c0.3-0.5,0.5-1.2,0.8-1.8c0.1-0.3,0.2-0.6,0.3-0.9
		c0.1-0.1,0.1-0.2,0.1-0.4c0.1-0.3,0.2-0.5,0.3-0.7c0.2-0.4,0.6-0.6,1-0.6h0.1c0.5,0.1,0.9,0.4,1.1,0.8c0.2,0.6,0,1.1-0.1,1.3
		l-0.4,1l-0.9,2c-1.5,3.2-3.3,6.2-5.1,9.2c-1.4,2.2-3.5,3.5-6.1,4h-0.4h-0.4c-0.1,0-0.3,0-0.4,0.1c-0.4,0.2-0.9,0.3-1.4,0.3
		C295.5,71.5,294.5,71.1,293.5,69.5z M293,62.5c0.1-0.5,0.1-1,0.1-1.4c0-0.8,0-1.6-0.1-2.2c0-0.6-0.3-1.2-0.3-1.9
		c-0.1-0.9,0.2-1.8-0.1-2.5c-0.6-1,0.1-1.4,0.1-2.6c-0.6-0.1-0.8-1.4-0.8-1.8c0-0.6,0.7-0.3,0.1-0.6c-0.1,0.4-0.4,0.8-0.4,1.2
		c0.2,2.5,0.1,4,0.4,6.5c0.1,1.9,0.1,3.9,0.3,5.8c0.1,0.8,0.4,1.6,0.5,2.5C293.2,64.3,293,63.4,293,62.5z M295.8,65.1l-1.1-4.2
		c0.1,1.4,0.3,2.9,0.4,4.2l0.4,0.3C295.5,65.3,295.8,65.1,295.8,65.1z"/>
	<path fill="#FFFFFF" d="M342,49.5c-0.1,0.4-0.4,0.7-0.5,1.1l-0.7,1.4c-1.6,3.2-3.2,6.1-5.1,8.8c-0.5,0.7-1,1.4-1.5,2.2l-0.6,0.9
		c-1,1.6-2.6,2.8-4.6,3.5c-0.7,0.3-1.3,0.4-1.9,0.4c-1.2,0-2.2-0.4-3.1-1.4c-1-1-2.1-2.3-2.5-4c0-0.2-0.1-0.4-0.1-0.4l-0.1,0.2
		l-1.5,1.6l-0.2,0.2c-0.6,0.8-1.4,1.5-2.2,2.2c-1.8,1.5-3.9,1.4-5.6-0.1c-3-2.8-4-6.6-2.8-10.5c0.8-2.9,1.7-5.2,2.8-7.1
		c0.4-0.6,0.8-1.1,1.2-1.7l0.7-0.9c0.6-0.9,1.4-1.3,2.2-1.7c1.4-0.6,2.4-0.6,3.4,0.2v-0.4c-0.1-3.3,0.4-6.7,1.4-11.2
		c0.4-1.4,0.6-2.8,0.9-4.2l0.4-2.1c0.6-2.7,1.6-5.3,3.1-7.6c1-1.6,2.4-2.2,4-1.8c0.9,0.2,1.7,0.8,2.3,1.4l0.3,0.2
		c0.7,0.6,0.8,1.4,0.9,2.2c0.1,0.9,0.1,1.8,0,2.7c0,0.6,0,1.3,0.1,1.9c0.1,1.7-0.3,3.3-0.6,4.9c-0.1,0.6-0.4,1.4-0.4,2.1
		c-0.1,0.4-0.1,0.9-0.1,1.4c-0.1,0.6-0.1,1.3-0.2,1.9l-0.9,4l-0.6,3.2l-0.2,0.8c-0.1,0.4-0.1,0.7-0.2,1.1c-0.5,2.3-1.3,4.7-2.7,7.4
		L326,53c-0.1,0.3-0.3,0.6-0.4,0.9c-0.3,0.6-0.4,1.2-0.3,1.7l0.4,2.9c0.2,1.2,0.4,2.3,0.5,3.4c0.1,1.4,1.2,2.2,2.4,3
		c0.1,0,0.1,0,0.4-0.1c0.6-0.4,1.2-0.8,1.8-1.4c0.7-0.7,1.4-1.7,1.9-2.6c0.3-0.4,0.5-0.8,0.8-1.2l0.4-0.6c0.1-0.3,0.4-0.6,0.6-0.9
		c1.9-2.6,3.5-5.5,5.2-9.1c0.1-0.2,0.2-0.5,0.4-0.6c0.4-0.5,1.1-0.6,1.5-0.2C342.1,48.4,342.3,49,342,49.5z M312.8,61.4
		c0-0.1-0.1-0.2-0.2-0.3h-0.1c0,0,0,0-0.1,0c-0.1,0-0.2,0.1-0.2,0.1c0,0.1,0,0.1,0.1,0.2c0,0.1,0.1,0.1,0.2,0.2l0.1-0.6v0.6
		L312.8,61.4L312.8,61.4z M313.7,56.3c0-0.1,0-0.1-0.1-0.3c-0.1,0-0.1-0.1-0.2-0.1c-0.1,0.1-0.2,0.1-0.3,0.1v0.1
		c-0.1,0.1-0.1,0.1,0,0.2l0.2,0.1l0.1-0.6L313.7,56.3C313.6,56.4,313.6,56.3,313.7,56.3z M320.4,57.9l-0.2-1.7
		c-0.1-1.3-0.3-2.5-0.6-3.7c-0.3-0.9-0.5-1.9-0.7-2.9c-0.1-0.5-0.2-1-0.3-1.5l-0.4-1.4c0,0-0.1,0-0.1,0h-0.1
		c-0.3,0.1-0.4,0.3-0.5,0.5c-0.1,0.2-0.2,0.4-0.3,0.5c-0.2,0.4-0.4,0.9-0.5,1.2c-1.3,3.9-1.7,7.8-1.9,11.2c-0.1,0.9,0,1.7,0.1,2.7
		v0.1c0,0.3,0.1,0.4,0.3,0.5c0.1,0.1,0.2,0.1,0.4,0.2c0.1,0.1,0.4,0.2,0.5,0.4l0.1,0.1c0,0,0.1-0.1,0.1-0.1c1.7-1.6,2.9-3,3.8-4.5
		C320.4,58.8,320.5,58.4,320.4,57.9z M324.8,23.5c0.1-0.1,0.1-0.3,0.1-0.3c-0.8-0.1-0.6-0.3-0.1-0.5c0.1-0.1,0.2-0.2,0.2-0.3
		c-0.1-0.2-0.4-0.4-0.6-0.4c-0.1,0.1-0.3,0.2-0.2,0.4c-0.4,1.2-0.8,2.4-1,3.6l-1.7,7.8c-0.2,1.4-0.5,2.7-0.7,4h0.1
		c-0.1,0.6-0.1,1.1-0.1,1.7c0,0.1,0.1,0.2,0.2,0.3c0.1-0.1,0.3-0.1,0.4-0.2c0.1-0.2,0.1-0.4,0.1-0.6c0.1-0.7,0.2-1.5,0.4-2.2
		c0-0.1,0.1-0.3,0.1-0.4c-0.3-0.9,0.1-1.6,0.4-2.2c0.1-0.4,0.2-0.6,0.1-1c-0.2-0.8-0.1-1.5,0.6-2.1c0.2-0.1,0.3-0.4,0.3-0.6
		c-0.5-1.2-0.2-2.3,0.6-3.3c0.1-0.2,0.1-0.4,0.1-0.6C323.5,25.3,324,24.4,324.8,23.5z M324.3,51c1.2-2.4,2.3-4.7,2.7-7.3l0.2-1.1
		c0.1-0.6,0.3-1.3,0.5-1.9c0.3-1.4,0.6-2.7,0.9-4.2c0.4-1.9,0.6-3.8,0.9-5.8c0.2-1.1,0.4-2.2,0.5-3.2c0.3-2,0.4-4,0.1-6.2l-0.4,0.8
		c-0.8,2.4-1.4,5-2.1,8.5c-0.3,2-0.7,3.6-1.3,5.1c-0.4,1-0.8,2.2-0.9,3.5l-0.4,3.5c-0.3,1.9-0.6,3.7-0.6,5.7c0,0.6-0.1,1.3-0.1,2V51
		z M324.6,20.9h-0.1l0.1,0.4c0.1-0.1,0.1-0.2,0.3-0.3c0.1-0.1,0.1-0.2,0.3-0.4c-0.1-0.1,0.1-0.2,0.1-0.4l-0.2-0.1
		c-0.2,0.1-0.4,0.1-0.5,0.3C324.5,20.6,324.6,20.7,324.6,20.9z"/>
	<path fill="#FFFFFF" d="M343.2,67.9c-1.4-0.4-2.6-1.5-3.4-3.1c-1-2.2-2.2-5.2-2-8.5c0.2-2.1,0.6-4,1.1-5.5l0.3-0.7
		c0.3-1.1,0.7-2.2,1.2-3.2c1.2-2.8,3-5.2,5.2-7c1.1-0.9,2.2-1.2,3.4-1.4l0.1-0.1c0.3-0.1,0.6,0,0.9,0c1.7,0.3,4,2.4,4.4,4
		c0.1,0.5,0.1,0.9,0,1.3v0.1c-0.4,1.3-0.7,2.7-1.5,3.9c-3.5,5.5-10.2,7.8-7.3,15c0.4,1,2.1,2.3,3.5,2.4c0.2,0,0.4-0.1,0.6-0.1
		c0.6-0.1,1.1-0.5,1.5-1l0.6-0.6c0.4-0.5,0.9-1,1.4-1.6c1.7-2,3.5-4.3,5-6.8l0.6-1.3c0.1-0.4,0.3-0.6,0.4-1c0.3-0.6,0.9-0.9,1.6-0.6
		c0.3,0.1,0.6,0.4,0.7,0.7c0.1,0.4,0.1,0.9-0.1,1.2c-1.7,2.9-3.4,5.5-5.3,7.9c-0.3,0.4-0.6,0.7-0.9,1c-0.5,0.5-0.9,1-1.3,1.5
		c-1.1,1.4-2.5,2.3-4,3.1l-0.5,0.2c-0.6,0.4-1.4,0.6-2.1,0.6h-0.4h-0.1C345.4,68.5,344.3,68.2,343.2,67.9z M345.4,52.5
		c2.4-1.9,4.2-3.9,5.5-6c0.5-0.8,0.8-1.7,1.1-2.6l0.1-0.7c-0.1-1.3-0.6-1.3-0.7-1.3c-0.1,0-0.4,0.1-0.6,0.2
		c-0.6,0.3-1.1,0.6-1.4,1.1c-0.8,1.1-1.6,2.3-2.4,4s-1.4,3.5-1.9,5.5C345.2,52.7,345.3,52.6,345.4,52.5z"/>
	<path fill="#FFFFFF" d="M369.3,69.8c-2-1.4-4-3.1-4.6-6c-0.3-1.5-0.5-3-0.1-4.5c0.1-0.1,0.1-0.1,0.1-0.2c-0.2-1.7,0-3.1,0.6-4.5
		c-0.4-0.3-0.8-0.6-1.2-0.9c-0.5-0.4-1.1-0.9-1.7-1.2c-1.9-1.1-3.6-2.7-4.8-4.7c-1.3-2-1.6-4.3-1.7-6.3v-1.7
		c0.1-0.2,0.1-0.5,0.1-0.7c0-1.3,0.6-2.4,1.2-3.4c0.1-0.2,0.1-0.4,0.3-0.6c1.3-2.5,1.7-2.7,4.5-3.2c1.4-0.2,3.2,0.6,3.8,1.9
		c0.6,1.3,1.4,3,1.1,5c-0.2,1.5-0.5,3-1.1,4.5c-0.1,0.4-0.2,0.7-0.4,1.2c-0.2,0.8-0.4,1.5-0.9,2.3c-0.3,0.5-0.6,1.1-1,1.6
		c-0.1,0.1-0.1,0.3-0.1,0.3c0.1,0,0.1,0.1,0.2,0.1l3.7,1.5l0.7,0.3c0.1,0,0.2,0.1,0.4,0.1l0.6,0.2c2.5,1.2,3.6,3.5,2.8,6
		c-0.5,1.7-1,3.8-0.9,6v0.4c0,0.1,0,0.1,0,0.2c0.1,1.9,1,3.1,2.8,3.6c0.8,0.2,1.4,0.1,2-0.4c0.9-0.7,1.5-1.4,1.9-2.2
		c1.4-2.4,2.6-5.1,3.5-8c0.1-0.5,0.2-1.1,0.4-1.7c0-0.4,0.1-0.6,0.1-1s0.1-0.7,0.4-1.1c0.2-0.5,0.8-0.7,1.4-0.6
		c0.2,0.1,0.7,0.3,0.7,1c0.1,0.3,0.1,0.6,0.1,0.9v0.3c0.2,1.8-0.5,3.3-1.2,4.8l-0.4,1.1c-0.9,2.3-1.7,4.1-2.6,5.6
		c-1.2,1.9-2.7,3.1-4.2,4c-0.8,0.4-1.8,1.1-2.9,1.1h-0.2C371.6,70.9,370.4,70.5,369.3,69.8z M362.6,39.4c0-0.5,0-1.1-0.1-1.6
		c-0.1-0.4-0.2-0.5-0.5-0.5h-0.2c-1.7,0.4-2.2,1-2.2,2.3c0,0.1,0,0.4-0.1,0.5c-0.4,2.1,0.3,4,1.2,5.7
		C361.9,44.1,362.5,42.2,362.6,39.4z M366.1,62.2c0.1-0.4,0.2-0.6,0.2-0.9c0.1-0.4,0.2-0.9,0.2-1.4c0.1-0.4-0.1-0.7,0-1.1
		c0-0.6,0.4-1.2,0.2-1.6c-0.5-0.6,0.3-0.9,0.4-1.6c-0.6,0-0.6-0.9-0.5-1.1c0.1-0.4,0.7-0.1,0.1-0.4c-0.2,0.2-0.5,0.5-0.6,0.6
		c-0.1,1.5-0.4,2.4-0.5,4c-0.2,1.2-0.4,2.4-0.6,3.5c-0.1,0.5,0.2,1,0.1,1.6C366,63.3,366,62.7,366.1,62.2z"/>
	<path fill="#FFFFFF" d="M387.3,68.7l-1.2-0.6c-0.2-0.1-0.5-0.2-0.7-0.4l-0.1-0.1c-0.2-0.1-0.5-0.2-0.7-0.5c-1.2-1.4-2.4-3-3.2-4.9
		c-1-2.7-0.9-5.4-0.7-8l0.1-0.6c0-0.6,0.1-1.1,0-1.6c-0.2-1.4-0.1-2.7,0.1-4c0-0.6,0.1-1.1,0.1-1.7c0.1-1.5,0.1-3.2,0.4-5l0.2-1.9
		c0.7-4.5,1.4-9.1,2.6-13.5c0.4-1.2,0.7-2.4,0.9-3.7c0.2-1.1,0.6-2.2,1.3-3.2c-0.2,1.4-0.5,2.7-0.8,4.5c-0.3,1.9-0.7,3.8-1.1,5.7
		c-0.1,0.9,0.1,1.7-0.1,2.6c0.8-0.9,0.9-1.8,1.1-2.7c0.1-0.5,0.3-1,0.4-1.4c0.2-0.7,0.4-1.5,0.4-2.2c0.1-0.6,0-1.3,0.1-1.9
		c0.1-0.8,0.6-1.7,0.5-2.4c-0.4-1.2,0.4-1.4,0.6-2.5c-0.2-0.1-0.4-0.4-0.4-0.7c0.3-0.4,0.5-0.8,0.7-1.2c0.2-0.5,0.5-1,0.9-1.5
		c1.2-1.9,2.9-3.4,4.8-4.2c0.9-0.4,1.9-0.4,3-0.6c0.2,0,0.4,0,0.7-0.1c0.9-0.1,1.7,0.4,2.2,0.7c0.5,0.4,0.8,0.9,0.9,1.4
		c0.1,1.7,0.1,3-0.1,4.1c-0.6,3.9-1.5,7.5-2.7,10.8c-0.9,2.5-1.9,5-3.5,7.3c-0.6,1-1.2,2.2-1.6,3.2c-0.6,1.3-1.3,2.6-2,3.7
		c-0.3,0.4-0.6,0.9-0.8,1.3c-0.1,0.3-0.4,0.6-0.5,0.7l-0.1,0.2c-0.4,0.4-1.1,0.6-1.6,0.2c0-0.1-0.1-0.1-0.1-0.1
		c-0.2,2.6-0.4,5.3-0.3,8.1l-0.1,0.9c-0.1,0.6-0.1,1.4-0.1,2.2c-0.1,2.4,0.1,4.7,0.6,6.7c0.1,0.4,0.3,0.7,0.4,1.2l0.1,0.4
		c0.3,0.6,0.7,1,1.4,1.2c0.4,0.1,0.9,0.4,1.3,0.6c0.9,0.4,1.7,0.3,2.5-0.5l0.7-0.9c1.8-2.3,3.6-4.9,4.3-8.1c0.2-0.8,0.5-1.9,1.2-2.7
		c0.1-0.1,0.4-0.6,0.9-0.6c0.1,0,0.3,0,0.4,0.1c0.6,0.3,0.9,0.8,0.7,1.5c0,0.1-0.1,0.2-0.1,0.3c-0.7,1.4-1.2,2.8-1.5,4.2
		c-0.1,0.4-0.2,0.7-0.4,1l-0.1,0.2c-0.9,1.9-2.1,3.7-3.2,5.3c-0.9,1.2-1.9,2.3-3.1,3.1c-1.1,0.8-2.2,1.2-3.2,1.2
		C388.9,69.4,388.1,69.1,387.3,68.7z M387.6,32.3c0-1.4-0.1-2.8-0.1-4.2c-0.2,1.4-0.4,2.8-0.6,4.2c0,0.1,0.1,0.3,0.3,0.4
		C387.3,32.5,387.6,32.5,387.6,32.3z M387.6,41.7c0.1-0.4,0.4-0.6,0.6-0.9c0.4-0.6,0.8-1.2,1.1-1.9c0.7-1.7,1.7-3.3,2.5-4.8
		c0.4-0.7,0.7-1.4,1.1-2c1.8-3.3,3.2-6.8,4-10.7c0.3-1.2,0.6-2.4,0.8-3.7c0.1-0.6,0.2-1.3,0.4-1.9c0.1-0.7,0.2-1.3,0.1-1.9
		c-0.1-0.1-0.1-0.2-0.1-0.2h-0.1c-0.1,0-0.1,0-0.1,0c-0.2,0-0.4,0.1-0.5,0.2c-2.9,2.8-4.5,5.3-5.3,8.1l-0.6,2.4
		c-0.2,0.8-0.4,1.6-0.6,2.4l-0.1,0.4c-0.4,1.3-0.7,2.7-1.2,4c-1,3-1.5,6.2-1.7,8.6c-0.1,0.7-0.2,1.5-0.3,2.2L387.6,41.7z"/>
	<path fill="#FFFFFF" d="M429,53.7l-0.2,0.9c-0.7,2-1.4,4-2.3,6l-0.6,1.4c-0.1,0.3-0.2,0.6-0.4,0.9l-0.1,0.4
		c-0.1,0.4-0.2,0.7-0.5,1.1c-1.2,1.4-2.6,2.5-4.2,3.4c-0.4,0.2-0.9,0.4-1.4,0.4c-0.4,0-0.9-0.1-1.4-0.3c-2.5-1-3.7-2.9-3.8-5.6
		c-0.1-0.4-0.1-0.7,0-1.2v-0.9c-0.1-1.2,0.1-2.6,0.5-4c0.2-0.6,0.3-1.3,0.4-1.9l-0.1,0.1c-1,3.1-3.2,5.6-6.7,7.8
		c-5,3.2-9.6-2.6-10-7.2c-0.1-1.9-0.2-4.3,0.5-6.7c0.2-0.9,0.6-1.7,0.9-2.5l0.3-0.7c0.4-0.7,1.1-1.2,1.7-0.9
		c0.3,0.1,0.6,0.1,0.9,0.2c3.7,0.7,2.5,4,2,6.8c-0.5,2.9-0.4,5,1.1,7.6c0.3,0.6,1,1,1.7,1c0.4,0,0.9-0.1,1.2-0.4
		c1.9-1.3,3.3-3,4.2-5.2c0.4-1.1,0.9-2.2,1.5-3.2c1.4-2.7,2.2-7.7,5.6-8.4l0.3-0.1c0.5-0.1,0.9,0.2,1.2,0.8c0.6,1,0.8,2.1,0.6,3.2
		c-0.2,2-0.8,3.8-1.4,5.5c-0.9,2.7-3,8-1.7,10.9c1.4,3.2,3.7,1.7,4.7-0.9c0.2-0.5,0.4-0.9,0.6-1.4c0.9-2,1.7-4.1,2.2-6.3
		c0.1-0.3,0.2-0.6,0.4-1.1c0.2-0.4,0.7-0.6,1.2-0.5C428.7,52.8,429.1,53.2,429,53.7z"/>
	<path fill="#FFFFFF" d="M430.2,70.3c-1-0.3-1.9-0.9-2.7-1.4c-0.2-0.2-0.5-0.4-0.8-0.5c-0.4-0.3-0.6-0.7-0.8-1.1l-0.2-0.4
		c-0.4-0.9-0.9-1.7-1.2-2.7c-0.4-1.4-0.4-2.8,0.1-4.3c0.1-1.4,0.5-3,1.6-3c0.6,0,1.1,0.7,1.4,1.3l0.1,0.3l-0.1,0.2
		c-0.6,1.2-0.9,2.4-0.9,3.8c0,1.5,0.6,2.7,2,3.3c1.5,0.7,2.9,0.8,4.2,0.1c0.2-0.1,0.4-0.2,0.7-0.4c0.5-0.4,1.1-0.7,1.5-1.2
		c0.4-0.3,0.6-0.6,0.8-0.9c1.2-2.2,1.6-4,1.3-5.9c0-0.1,0-0.2-0.1-0.3c0-0.4-0.1-0.8,0-1.2l-0.8-0.8h0.4c-0.6-1.3-1.4-2.5-2.1-3.7
		c-0.9-1.5-1.8-3-2.5-4.7l-1.2-2.2c-0.6-1.1-1.2-2.2-1.7-3.4c-0.9-2.3-1-4.5-0.4-6.6c0.2-0.6,0.4-1.1,0.7-1.5c1-1.7,2.2-2.8,3.6-3.5
		c1.6-0.8,3.2-0.7,4.9,0.4c0.7,0.4,1.4,1,1.9,1.7c0.5,0.6,0.9,1.5,0.9,2.7c0.1,1.7-0.4,3.2-1.4,4.7c-0.4,0.4-0.9,0.5-1.4,0.1
		c-0.2-0.1-0.4-0.6-0.4-0.9l0.2-0.9l0.1-0.2l0.2-0.6c0.1-0.4,0.2-0.7,0.4-1.1c0.1-0.5,0.1-1.2-0.6-1.8c-0.7-0.6-1.5-0.7-2.3-0.3
		c-1.8,0.9-2.6,2.7-2,4.8l0.6,1.7c0.1,0.4,0.3,0.7,0.4,1.2c0.3,0.6,0.6,1.4,0.9,2.2c0.1,0.4,0.4,0.8,0.7,1.2
		c0.6,0.9,1.2,1.7,1.7,2.5c0.4,0.5,0.7,0.9,1,1.4c1.3,1.8,2.5,3.9,3.7,6.3c0.5,1.1,0.6,2.2,0.6,3.2c0.1,2.4-0.4,4.5-1.6,6.4
		c-0.1,0.1-0.1,0.4-0.1,0.5c-0.1,0.2-0.2,0.4-0.3,0.6c-1,1.9-2.6,4.2-5.6,5c-0.9,0.2-1.9,0.4-2.8,0.4
		C432.1,70.8,431,70.6,430.2,70.3z"/>
	<path fill="#FFFFFF" d="M448.4,65.3c-0.5-0.2-0.9-0.6-1.2-0.9c-2.1-2.5-3-5.2-2.8-8.1c0.1-0.6,0.1-1.1,0.1-1.7
		c-0.1-0.3-0.1-0.6-0.1-0.9c0-2.5,0.4-5,0.8-7.5l0.4-2.6l0.5-3.3c0.2-1.9,0.5-3.7,0.7-5.5c0-0.1,0.1-0.1,0.1-0.1h-0.1
		c-1.1,0.5-1.9,1.2-2.7,2.1c-0.4,0.4-0.9,0.9-1.5,0.9c-0.4,0-0.6-0.2-0.8-0.5c-0.4-1,0.3-1.7,0.6-1.9l0.1-0.1c1.1-1,2.2-2,3.7-2.5
		c0.8-0.3,1.2-0.8,1.5-1.8c1-4.2,1.9-7.8,2.7-11.2l1.5-5l0.3-1c0.2-0.6,0.5-1.2,0.7-1.6c0.7-1.3,2.3-1.8,3.7-1.1
		c0.8,0.4,0.9,1,0.9,1.4c0.1,0.7,0.1,1.5-0.1,2.3c-0.2,0.9-0.5,1.7-0.7,2.5c-0.5,1.7-0.9,3.5-1.4,5.3c-0.5,2.1-1,4.2-1.4,6.4
		l-0.4,1.8c1.3-0.2,2.4-0.6,3.5-1.4l0.8-0.6l2.3-1.5c0.4-0.3,1.1-0.1,1.4,0.3c0.3,0.4,0.3,0.9,0,1.2c-0.4,0.5-0.8,0.8-1.3,1.1
		c-0.5,0.2-0.9,0.5-1.4,0.8c-1.5,0.9-3.1,1.8-4.9,2.2c-0.7,0.1-1,0.6-1.2,1.4l-0.4,2.8c-0.4,2.2-0.8,4.4-1.1,6.6
		c-0.6,3.3-1.2,7.1-1.5,10.9c-0.1,1.7,0.1,3.4,0.3,5l0.1,0.2c0.1,0.5,0.4,1,0.6,1.6l0.2,0.4c0.1,0.4,0.6,0.6,1.1,0.8h0.1
		c0.7,0.3,1.2,0.4,1.4,0.4c0.2,0,0.4-0.1,1.2-1.1c0.6-0.9,1-1.7,1.3-2.4l0.6-1.6c0.4-0.9,1.8-3.5,2-4.5c0.1-0.6,0.9-1,1.5-0.7
		c0.4,0.2,0.6,0.6,0.6,1c0,0.3-0.1,0.6-0.2,1c-0.3,0.9-1.7,3.5-2.1,4.5c-0.2,0.5-0.4,1.1-0.8,1.6c-0.3,0.4-0.5,0.8-0.7,1.2l-0.1,0.2
		c-1.2,2.3-3.1,3.6-5.5,3.6C450.4,65.9,449.4,65.7,448.4,65.3z M450.8,28.9c0.2-0.5,0.4-0.9,0.5-1.4c0.2-0.8,0.4-1.5,0.5-2.2
		c0.2-0.6,0.1-1.3,0.3-1.9c0.2-0.9,0.7-1.7,0.6-2.4c-0.3-1.2,0.5-1.3,0.9-2.4c-0.6-0.3-0.4-1.6-0.2-1.9c0.1-0.6,0.8-0.1,0.3-0.6
		c-0.3,0.3-0.7,0.6-0.8,0.9c-0.6,2.4-1,3.9-1.6,6.3c-0.4,1.9-1,3.7-1.4,5.6c-0.2,0.9-0.1,1.7-0.3,2.6
		C450.4,30.7,450.5,29.8,450.8,28.9z"/>
</g>
</svg>
