<?xml version="1.0" encoding="utf-8"?>
<!-- Generator: Adobe Illustrator 18.0.0, SVG Export Plug-In . SVG Version: 6.00 Build 0)  -->
<!DOCTYPE svg PUBLIC "-//W3C//DTD SVG 1.1//EN" "http://www.w3.org/Graphics/SVG/1.1/DTD/svg11.dtd">
<svg version="1.1" id="Layer_1" xmlns="http://www.w3.org/2000/svg" xmlns:xlink="http://www.w3.org/1999/xlink" x="0px" y="0px"
	 viewBox="0 0 465.7 79.5" enable-background="new 0 0 465.7 79.5" xml:space="preserve">
<g>
	<g>
		<g>
			<path fill="#33CCCC" d="M31.3,79.5c-1.8,0-4.6-0.5-7.1-3.1c-1.2-1.2-2.1-2.6-2.7-4.1c-0.8-1.7-1.2-3.4-1.4-4.8
				c-1.8,2.2-4.5,3.5-7.4,3.5c-2.2,0-4.3-0.7-6-2.1c-5-3.9-5.6-10.2-6-14.3c-0.1-0.6-0.1-1.3-0.2-1.8C-0.2,48.9,0,45.2,0.3,42
				c0.1-1.5,0.2-2.9,0.2-4.2c0.1-2.4,0.3-4.7,0.6-6.8l0.2-1.4c0.3-2.6,0.5-5.3,0.6-7.9c0-2.5,0.8-4.4,1.2-5.5l0.3-0.7
				c1.1-2.9,3.7-5,6.7-5.6l0.2,0l0.4-0.1c0.5-0.1,1.2-0.2,2.1-0.2c2.7,0,5,1,6.7,2.9c2,2.2,2.5,4.9,2.6,7.1c0.6-1.1,1.2-2.1,1.9-3.1
				c0.5-1.3,1-2.4,1.8-3.4c2.3-3.7,5.5-4.3,7.2-4.3c1.2,0,2.2,0.3,3,0.6c3.2,1.3,5.3,4.4,5.3,8.1c0.2,1.8,0.2,3.5,0.1,5.2l0.8-1.9
				c1.5-4.1,3.4-8.8,5.7-13.5L47.9,7l0.1-0.1c0.5-1,1.3-2.9,2.9-4.4C52.4,0.9,54.4,0,56.6,0c2,0,3.9,0.7,5.4,2l0.6,0.5l0.5,0.6
				C64.4,4.9,65,7,64.8,9c-0.1,1.4-0.5,2.8-1.3,4.1l-0.1,0.1c-0.7,1.1-1.3,2.5-1.9,3.9l-0.1,0.2l-0.3,0.6c-1.4,3.1-2.8,6.5-4.3,10.6
				l-0.1,0.2c-0.5,1.3-1.1,2.7-1.5,4l-0.1,0.2l-0.7,1.6c-1,2.4-2,5.1-3.1,7.9c-0.9,2.5-1.9,5.3-2.9,8.2l-0.1,0.2l-0.1,0.2
				c-0.1,0.3-0.2,0.5-0.3,0.8c-0.1,0.4-0.3,0.7-0.4,1.1c-0.7,2.2-1.7,5.1-2.8,7.9c-0.8,2-1.5,4.1-2.3,6.1l-0.3,0.9l-1.2,3.7L41,71.9
				c-0.3,0.7-0.7,1.9-1.5,3.1l-0.1,0.2l-0.1,0.2C37.3,78,34.4,79.5,31.3,79.5z"/>
		</g>
		<g>
			<path fill="#33CCCC" d="M59.4,72.5c-2.1,0-3.9-0.5-5.2-0.8L54,71.6c-3.3-1-6-3.3-7.6-6.7l-0.1-0.2c-1-2.1-3-6.6-2.6-11.8l0-0.3
				c0.3-2.6,0.7-4.9,1.4-6.9l0.1-0.2l0.2-0.6c0.4-1.3,0.9-2.5,1.3-3.6l0.1-0.2c1.6-3.7,4.1-7,7.1-9.6l0.1-0.1
				c1.9-1.5,3.7-2.2,5.4-2.6l0,0l0.7-0.2c0.6-0.2,1.3-0.2,2-0.2c0.3,0,0.5,0,0.8,0h0.4l0.6,0.1c4.6,0.8,9.1,5,10.1,9.5l0.1,0.2
				l0,0.2c0.1,0.7,0.2,1.7,0.1,3v0.4L74,42.2c0.5,0.1,0.9,0.2,1.4,0.3c2.3,0.7,4.3,2.5,5.2,4.8c1,2.4,0.8,5.2-0.6,7.4
				c-1.7,2.9-3.6,6-5.9,8.8c-0.3,0.4-0.8,1-1.3,1.5c-0.3,0.3-0.5,0.5-0.5,0.6l-0.1,0.1c-2.1,2.8-4.8,4.2-6.2,5L65.7,71l-0.4,0.2
				c-1.6,0.9-3.3,1.3-5.3,1.3H59.4z"/>
		</g>
		<g>
			<path fill="#33CCCC" d="M79.4,72.5c-2.1,0-3.9-0.5-5.2-0.8L74,71.6c-3.3-1-6-3.3-7.6-6.7l-0.1-0.2c-1-2.1-3-6.6-2.6-11.8l0-0.3
				c0.3-2.6,0.7-4.9,1.4-6.9l0.1-0.2l0.2-0.6c0.4-1.3,0.9-2.5,1.3-3.6l0.1-0.2c1.6-3.7,4.1-7,7.1-9.6l0.1-0.1
				c1.9-1.5,3.7-2.2,5.4-2.6l0,0l0.7-0.2c0.6-0.2,1.3-0.2,2-0.2c0.3,0,0.5,0,0.8,0h0.4l0.6,0.1c4.6,0.8,9.1,5,10.1,9.5l0.1,0.2
				l0,0.2c0.1,0.7,0.2,1.7,0.1,3v0.4l-0.1,0.4c0.5,0.1,0.9,0.2,1.4,0.3c2.3,0.7,4.3,2.5,5.2,4.8c1,2.4,0.8,5.2-0.6,7.4
				c-1.7,2.9-3.6,6-5.9,8.8c-0.3,0.4-0.8,1-1.3,1.5c-0.3,0.3-0.5,0.5-0.5,0.6l-0.1,0.1c-2.1,2.8-4.8,4.2-6.2,5L85.6,71l-0.4,0.2
				c-1.6,0.9-3.3,1.3-5.3,1.3H79.4z"/>
		</g>
		<g>
			<path fill="#33CCCC" d="M92.8,72.4c-3.2,0-6-1.7-7.7-4.5c-1.2-2-1.7-4.3-1.6-6.6l0-0.2l0.1-1c0.1-1.4,0.2-2.8,0.4-4.2l0-0.3
				c0.1-0.5,0.2-1.1,0.3-1.6c0.1-0.5,0.2-0.9,0.2-1.4l0-0.2l0-0.2c0.3-1.3,0.5-2.7,0.6-4c0.1-0.9,0.3-1.8,0.4-2.5
				c0-0.2,0.1-0.4,0.1-0.6l0.1-0.3c0.2-0.9,0.3-1.6,0.3-2.1c0-0.5,0-1.3,0.3-2.4l0.6-2.7c0.4-1.6,0.7-3,0.9-4.5l0.1-0.3l0.1-0.3
				c0.1-0.4,0.2-1.1,0.3-1.8c0.2-1.8,0.6-3.3,1-4.6l0.1-0.2c0.2-0.6,0.3-1.2,0.4-1.8c0.5-3.3,1.6-6.1,2.7-8.9l0.3-0.8
				c1.5-4.3,5.1-5.9,8-5.9c1,0,2,0.2,3,0.5c0.3,0.1,0.5,0.2,0.7,0.2l0.5,0.1l0.5,0.2c3.7,1.6,5.7,4.9,5.4,8.9
				c-0.1,1.1-0.2,2.2-0.4,3.4c0.1,0,0.2,0,0.3,0c0.8,0,1.6,0.1,2.3,0.3c3.6,0.8,6.2,3.6,6.7,7.2c0,0.2,0.1,0.5,0.1,0.7
				c0.1,0.8,0.3,2.1-0.1,3.7c-0.5,2.7-1.2,5.6-3.2,8.3c0.4,0,0.9,0.1,1.3,0.2c2,0.4,3.8,1.5,5,3.2l0.6,0.7l0.3,0.9
				c0.5,1.3,1,3.3,0.2,5.8l-0.1,0.5l-0.4,0.9c-0.2,0.6-0.6,1.3-1,2l-0.9,1.7l-0.1,0.1c-0.4,0.6-0.7,1.4-1,2c-1.4,3-3.1,5.3-4,6.6
				c-0.7,1-1.5,1.8-2.5,2.6c-2.8,2.4-5.6,3-7.5,3c-1.3,0-2.6-0.2-3.9-0.7c-1.2-0.4-2.3-1-3.3-1.8c-1.2,1.2-2.8,2-4.7,2.3l0,0
				C94.5,72.2,93.8,72.4,92.8,72.4z"/>
		</g>
		<g>
			<path fill="#33CCCC" d="M123.6,72.5c-2.1,0-3.9-0.5-5.2-0.8l-0.2-0.1c-3.3-1-6-3.3-7.6-6.7l-0.1-0.2c-1-2.1-3-6.6-2.6-11.8l0-0.3
				c0.3-2.6,0.7-4.9,1.4-6.9l0.1-0.2l0.2-0.6c0.4-1.3,0.9-2.5,1.3-3.6l0.1-0.2c1.6-3.7,4.1-7,7.1-9.6l0.1-0.1
				c1.9-1.5,3.7-2.2,5.4-2.6l0,0l0.7-0.2c0.6-0.2,1.3-0.2,2-0.2c0.3,0,0.5,0,0.8,0h0.4l0.6,0.1c4.6,0.8,9.1,5,10.1,9.5l0.1,0.2
				l0,0.2c0.1,0.7,0.2,1.7,0.1,3v0.4l-0.1,0.4c0.5,0.1,0.9,0.2,1.4,0.3c2.3,0.7,4.3,2.5,5.2,4.8c1,2.4,0.8,5.2-0.6,7.4
				c-1.7,2.9-3.6,6-5.9,8.8c-0.3,0.4-0.8,1-1.3,1.5c-0.3,0.3-0.5,0.5-0.5,0.6l-0.1,0.1c-2.1,2.8-4.8,4.2-6.2,5l-0.3,0.2l-0.4,0.2
				c-1.6,0.9-3.3,1.3-5.3,1.3H123.6z"/>
		</g>
		<g>
			<path fill="#33CCCC" d="M153.5,75.5c-3.6,0-6.8-2-8.9-5.4l-0.1-0.2c-0.3-0.6-0.7-1.2-1-1.8c-1.6,1.3-3.6,2-5.8,2
				c-2.3,0-4.5-0.8-6.2-2.3c-2.6-2.2-3.3-5.1-3.6-6.4l-0.2-0.9v-0.3c-0.2-1.1-0.2-2-0.1-2.6l0-0.9l0.1-0.6c0-0.1,0-0.2,0.1-0.4v-0.4
				l0.1-0.6c0-0.2,0.1-0.5,0.1-0.6l0-0.4c0.1-1.6,0.2-3,0.4-4.5l0-0.1c0.1-0.9,0.2-2,0.3-3c0-0.9,0.1-1.8,0.3-2.7c0-0.1,0-0.2,0-0.3
				c0-0.2,0-0.3,0.1-0.5l0-0.2v-0.3c0-1.7,0.5-3,0.9-4l0.2-0.6c1.6-4,4.5-6.1,8.7-6.1h1.1l0.2,0c1.3,0.1,4.7,0.3,7.1,3.2
				c0.2,0.2,0.4,0.5,0.6,0.8c1.1-0.4,2.2-0.6,3.3-0.6c4,0,7.5,2.5,9,6.6l0.1,0.2l0.1,0.2c0.4,1.2,0.7,2.4,0.9,3.6
				c1.5-1.8,3.8-2.9,6.2-2.9h0.6l0.5,0.1c2.8,0.4,5.1,2.1,6.4,4.6l0.2,0.3l0.1,0.3c0.7,1.9,0.7,3.9,0,6l-0.1,0.3l-0.6,1.4l-0.9,2
				c-1.7,3.5-3.6,6.7-5.4,9.8l-0.1,0.1c-2.4,3.9-6.2,6.4-11,7.2l-0.6,0.1h-0.3C155.4,75.4,154.5,75.5,153.5,75.5z"/>
		</g>
		<g>
			<path fill="#33CCCC" d="M184.2,71.7c-2.4,0-4.7-0.8-6.6-2.2c-1.8,1.1-3.8,1.7-5.8,1.7c-2.8,0-5.4-1.1-7.6-3.1
				c-5-4.6-6.7-11.2-4.8-17.6c0.9-3.3,2-6.1,3.4-8.6l0.1-0.2l0.1-0.2c0.3-0.4,0.6-0.9,0.9-1.3c0.1-0.1,0.2-0.3,0.3-0.4l0.2-0.3
				l0.8-1.1c0.1-0.1,0.2-0.3,0.3-0.4l1.1-9.1l2.9,5.9c0.1,0,0.1-0.1,0.2-0.1c0.3-2,0.7-4.2,1.3-6.8l0-0.1c0.2-0.7,0.3-1.5,0.5-2.4
				c0.1-0.5,0.2-0.9,0.3-1.4l0.4-2.1l0-0.1c0.8-3.7,2.2-7.1,4.1-10c2-3.2,5.3-5.1,9-5.1c0.8,0,1.6,0.1,2.4,0.3
				c2.4,0.5,4,1.7,5.2,2.8l0.2,0.2c3,2.4,3.3,5.7,3.5,6.9l0,0.2c0.1,1.2,0.1,2.3,0,3.5c0,0.4,0,0.7,0,0.9l0,0.2l0,0.2
				c0.1,2.3-0.3,4.3-0.6,5.8l-0.1,0.7c0,0-0.1,0.6-0.2,0.8c0,0.2-0.1,0.4-0.1,0.6l0,0.2l0,0.1l0,0.2c0,0.3-0.1,0.6-0.1,1
				c0,0.1,0,0.2,0,0.3c0,0.6-0.1,1.4-0.3,2.3l-0.8,3.9l-0.2,0.9c1.2-0.7,2.6-1.1,4-1.1c1.7,0,3.3,0.5,4.7,1.5
				c3.3,2.3,4.4,6.6,2.7,10.1c-0.1,0.2-0.2,0.5-0.3,0.7l-0.1,0.1l-0.1,0.2l-0.8,1.6c-1.8,3.6-3.6,6.8-5.6,9.6
				c-0.4,0.6-0.9,1.3-1.3,2l-0.6,0.9c-1.8,2.9-4.6,5-8,6.2C187.2,71.5,185.8,71.7,184.2,71.7z"/>
		</g>
		<g>
			<path fill="#33CCCC" d="M236.3,71.3c-1.6,0-3.1-0.4-4.4-1.2c-1.1-0.6-3.3-1.8-4.9-4.3c-0.7-1-1.3-2.1-1.9-3.1
				c-1,0.7-2.1,1.3-3.3,1.8c-1.4,0.6-2.9,0.9-4.4,0.9c-5,0-9.5-3.4-10.8-8.2l-0.1-0.2c-0.2-0.8-0.4-1.8-0.5-3.1l0-0.3l0-2.5
				c0.1-3.2,0.6-6,1.6-9.3c0.2-0.7,0.4-1.5,0.5-2.4l0.1-0.7c0.2-1.4,0.7-2.7,1.3-3.9c1.6-2.8,4.4-4.6,7.6-4.6c1,0,2,0.2,3,0.5l0.2,0
				c1.2,0.2,2.5,0.7,3.6,1.5c2.4-3.6,5.6-6.2,10.2-6.3c0,0,0,0,0,0c1.7,0,3,0.5,3.8,0.9c1.7,0.8,3,2.2,3.8,3.8
				c0.2-0.3,0.3-0.6,0.5-0.9l0.1-0.3l0.8-1.2c1.6-2.5,3.5-5.5,6.6-8c1.4-1.1,3.1-1.7,4.9-1.7c2.9,0,5.5,1.5,6.9,4l0.1,0.2l0.1,0.2
				c1.5,3.1,0.9,6.9-1.5,9.2l-0.2,0.2l-0.2,0.2c-1.3,1.1-2.2,2.8-3.4,4.9l0,0c-0.4,0.8-0.8,1.5-1.2,2.1l-0.4,0.8
				c-1.2,1.9-2.1,4.2-3,6.9l-0.1,0.1l-0.1,0.1c-0.3,0.8-0.5,1.4-0.6,1.7l0,0.3c-0.4,2.5-1.2,4.6-2,6.6l-0.4,0.9
				c-0.5,1.2-1.1,2.7-1.5,4c-1,4.3-3.3,7.4-6.8,9.2C240,70.5,238.4,71.3,236.3,71.3z"/>
		</g>
		<g>
			<path fill="#33CCCC" d="M267.8,71.6c-0.7,0-1.3-0.1-1.8-0.2c-3.4-0.5-5.5-2.3-6.6-3.7c-1.5,0.6-3.2,0.9-4.9,1l-0.3,0
				c-2.8,0-5.4-1.1-7.3-3c-2.5-2.5-3.8-5.4-4-8.7l0-0.2v-0.2c0-1.5,0.2-3,0.5-4.7l0.1-0.4c0.7-3.4,1.8-6.8,3.6-10.9
				c2-4.4,5.3-7.6,9.6-9.3c1.4-0.6,2.9-0.8,4.3-0.8c2.5,0,4.9,0.9,6.9,2.6c0.5-0.1,1-0.1,1.4-0.1c0.5,0,1.4,0,2.6,0.3l0.7,0.2
				l0.2,0.1c3.8,1.1,5.5,3.6,6.2,5.1c0.7,1.5,1,3,0.9,4.5c0.5,0.2,1,0.4,1.4,0.7c2.3,1.5,3.7,4.1,3.7,6.9c0,1-0.2,2.6-1.1,4.2
				c-1.5,3.1-3.1,5.8-5.1,8.3l-0.2,0.2c-1.1,1.8-2.5,3.8-4.7,5.4C271.9,71.2,269.3,71.6,267.8,71.6z"/>
		</g>
		<g>
			<path fill="#33CCCC" d="M293.3,75.5c-3.6,0-6.8-2-8.9-5.4l-0.1-0.2c-0.3-0.6-0.7-1.2-1-1.8c-1.6,1.3-3.6,2-5.8,2
				c-2.3,0-4.5-0.8-6.2-2.3c-2.6-2.2-3.3-5.1-3.6-6.4l-0.2-0.9v-0.3c-0.2-1.1-0.2-2-0.1-2.6l0-0.9l0.1-0.6c0-0.1,0-0.2,0.1-0.4v-0.4
				l0.1-0.6c0-0.2,0.1-0.5,0.1-0.6l0-0.4c0.1-1.6,0.2-3,0.4-4.5l0-0.1c0.1-0.9,0.2-2,0.3-3c0-0.9,0.1-1.8,0.3-2.7c0-0.1,0-0.2,0-0.3
				c0-0.2,0-0.3,0.1-0.5l0-0.2v-0.3c0-1.7,0.5-3,0.9-4l0.2-0.6c1.6-4,4.5-6.1,8.7-6.1h1.1l0.2,0c1.3,0.1,4.7,0.3,7.1,3.2
				c0.2,0.2,0.4,0.5,0.6,0.8c1.1-0.4,2.2-0.6,3.3-0.6c4,0,7.5,2.5,9,6.6l0.1,0.2l0.1,0.2c0.4,1.2,0.7,2.4,0.9,3.6
				c1.5-1.8,3.8-2.9,6.2-2.9h0.6l0.5,0.1c2.8,0.4,5.1,2.1,6.4,4.6l0.2,0.3l0.1,0.3c0.7,1.9,0.7,3.9,0,6l-0.1,0.3l-0.6,1.4l-0.9,2
				c-1.7,3.5-3.6,6.7-5.4,9.8l-0.1,0.1c-2.4,3.9-6.2,6.4-11,7.2l-0.6,0.1h-0.3C295.2,75.4,294.3,75.5,293.3,75.5z"/>
		</g>
		<g>
			<path fill="#33CCCC" d="M324,71.7c-2.4,0-4.7-0.8-6.6-2.2c-1.8,1.1-3.8,1.7-5.8,1.7c-2.8,0-5.4-1.1-7.6-3.1
				c-5-4.6-6.7-11.2-4.8-17.6c0.9-3.3,2-6.1,3.4-8.6l0.1-0.2l0.1-0.2c0.3-0.4,0.6-0.9,0.9-1.3c0.1-0.1,0.2-0.3,0.3-0.4l0.2-0.3
				l0.8-1.1c0.1-0.1,0.2-0.3,0.3-0.4l1.1-9.1l2.9,5.9c0.1,0,0.1-0.1,0.2-0.1c0.3-2,0.7-4.2,1.3-6.8l0-0.1c0.2-0.7,0.3-1.5,0.5-2.4
				c0.1-0.5,0.2-0.9,0.3-1.4l0.4-2.1l0-0.1c0.8-3.7,2.2-7.1,4.1-10c2-3.2,5.3-5.1,9-5.1c0.8,0,1.6,0.1,2.4,0.3
				c2.4,0.5,4,1.7,5.2,2.8l0.3,0.2c3,2.4,3.3,5.7,3.5,6.9l0,0.2c0.1,1.2,0.1,2.3,0,3.5c0,0.4,0,0.7,0,0.9l0,0.2l0,0.2
				c0.1,2.3-0.3,4.3-0.6,5.8l-0.1,0.7l0,0.1c0,0.2-0.1,0.5-0.2,0.7c0,0.2-0.1,0.4-0.1,0.6l0,0.2l0,0.1l0,0.2c0,0.3-0.1,0.6-0.1,1
				c0,0.1,0,0.2,0,0.3c0,0.6-0.1,1.4-0.3,2.3l-0.8,3.9l-0.2,0.9c1.2-0.7,2.6-1.1,4-1.1c1.7,0,3.3,0.5,4.7,1.5
				c3.3,2.3,4.4,6.6,2.7,10.1c-0.1,0.2-0.2,0.5-0.3,0.7l-0.1,0.1l-0.1,0.2l-0.8,1.6c-1.8,3.6-3.6,6.8-5.6,9.6
				c-0.4,0.6-0.9,1.3-1.3,2l-0.6,0.9c-1.8,2.9-4.6,5-8,6.3C327,71.5,325.6,71.7,324,71.7z"/>
		</g>
		<g>
			<path fill="#33CCCC" d="M343.6,72.5c-2.1,0-3.9-0.5-5.2-0.8l-0.2-0.1c-3.3-1-6-3.3-7.6-6.7l-0.1-0.2c-1-2.1-3-6.6-2.6-11.8l0-0.3
				c0.3-2.6,0.7-4.9,1.4-6.9l0.1-0.2l0.2-0.6c0.4-1.3,0.9-2.5,1.3-3.6l0.1-0.2c1.6-3.7,4.1-7,7.1-9.6l0.1-0.1
				c1.9-1.5,3.7-2.2,5.4-2.6l0,0l0.7-0.2c0.6-0.2,1.3-0.2,2-0.2c0.3,0,0.5,0,0.8,0h0.4l0.6,0.1c4.6,0.8,9.1,5,10.1,9.5l0.1,0.2
				l0,0.2c0.1,0.7,0.2,1.7,0.1,3v0.4l-0.1,0.4c0.5,0.1,0.9,0.2,1.4,0.3c2.3,0.7,4.3,2.5,5.2,4.8c1,2.4,0.8,5.2-0.6,7.4
				c-1.7,2.9-3.6,6-5.9,8.8c-0.3,0.4-0.8,1-1.3,1.5c-0.2,0.2-0.4,0.5-0.6,0.6l-0.1,0.1c-2.1,2.8-4.8,4.2-6.2,5l-0.3,0.2l-0.4,0.2
				c-1.6,0.9-3.3,1.3-5.3,1.3H343.6z"/>
		</g>
		<g>
			<path fill="#33CCCC" d="M369.7,74.9c-2.6,0-5.2-0.8-7.4-2.4c-2-1.4-6.2-4.5-7.4-10.3c-0.4-2.1-0.7-4.2-0.3-6.6c0-0.3,0-0.5,0-0.8
				c-2.3-1.6-4.3-3.7-5.8-6.2c-2.1-3.3-2.6-6.7-2.8-9.5l0-0.2v-3.1l0.1-0.3c0.2-2.6,1.2-4.6,1.8-5.7c0.2-0.3,0.3-0.7,0.5-1
				c2.2-4.2,4.4-5.8,9.3-6.6l0.2,0c0.5-0.1,1-0.1,1.5-0.1c3.9,0,7.8,2.3,9.5,5.6l0.1,0.1c1.1,2.2,2.3,5.2,1.7,9.1
				c-0.2,1.4-0.5,3.2-1.1,5.1c1.6,0.9,2.9,2,3.9,3.4c1.5-2,3.9-3.1,6.6-3.1c0.4,0,0.7,0,1.1,0.1l0.7,0.1l0.7,0.2
				c3.1,1,5.1,3.6,5.5,6.8c0.1,0.7,0.1,1.4,0.1,1.8c0.3,3.3-0.9,5.9-1.6,7.6l-0.1,0.2l-0.4,1c-0.9,2.2-1.9,4.5-3,6.5l-0.1,0.1
				c-2,3.4-4.7,5.3-6.6,6.4l-0.5,0.3c-1.1,0.6-3.2,1.8-6,1.8H369.7z"/>
		</g>
		<g>
			<path fill="#33CCCC" d="M386.8,73.4c-2,0-4-0.5-5.9-1.6l-0.8-0.5c-0.3-0.1-0.6-0.3-0.9-0.4c-1.2-0.5-2.2-1.4-3.1-2.4
				c-1.2-1.4-3.2-3.8-4.3-6.9c-1.5-4-1.3-7.9-1.1-10.8l0-0.2l0.1-0.5c0-0.1,0-0.4,0-0.4c-0.3-1.9-0.1-3.7,0.1-5.1
				c0-0.7,0.1-1.3,0.2-1.8c0.1-1.5,0.2-3.4,0.5-5.3l0.2-1.9l0.3-2c0.6-4,1.3-8.2,2.5-12.4l0.1-0.2c0.2-0.7,0.5-1.8,0.7-2.8l0-0.2
				c0.3-1.5,0.8-2.9,1.5-4.2l0-0.2l1.6-2.4c0.1-0.2,0.2-0.3,0.2-0.4c0.4-0.8,0.8-1.6,1.3-2.3c1.9-3.1,4.7-5.5,8.1-6.8l0.1-0.1
				c1.5-0.6,3-0.8,4-0.9l1-0.1h0.1l0,0l0.6,0c0.2,0,0.5,0,0.7,0c2.1,0,4.2,0.7,6.1,2c2.1,1.5,3.4,3.7,3.7,6.3l0,0.3l0,0.3
				c0.1,2.1,0.1,3.8-0.2,5.6c-0.6,4.2-1.7,8.3-3.1,12.1c-1,2.7-2.2,5.8-4.3,8.8c-0.3,0.6-0.7,1.4-0.9,1.9l-0.1,0.2
				c-0.7,1.5-1.5,3-2.5,4.6l-0.1,0.2c-0.1,0.2-0.3,0.4-0.4,0.6c-0.2,0.4-0.4,0.8-0.7,1.1c1.4-1.1,3.2-1.8,5.1-1.8c0.5,0,2,0,3.6,0.8
				c3.3,1.6,5,5.1,4.5,8.7c0,0,0,0.1,0,0.1v1l-0.8,1.5c-0.4,0.7-0.7,1.6-0.9,2.6c-0.2,0.9-0.5,1.7-0.9,2.4l-0.1,0.2
				c-1.1,2.2-2.3,4.1-3.4,5.8l-0.3,0.4l-0.1,0.1c-1.4,2-3,3.6-4.8,4.8C391.7,72.6,389.3,73.4,386.8,73.4z"/>
		</g>
		<g>
			<path fill="#33CCCC" d="M416.3,72c-1.4,0-2.5-0.3-3.1-0.5l-0.5-0.1l-0.3-0.1c-2.7-1.1-4.8-2.8-6.2-5c-1.3,0.4-2.5,0.6-3.8,0.6
				c0,0,0,0,0,0c-7.7,0-13.5-7.5-14.1-14.6c-0.2-2.3-0.3-5.6,0.7-9.1c0.3-1.3,0.8-2.5,1.2-3.4l0.3-0.9l0.1-0.3
				c1.5-3,4.4-4.8,7.6-4.8c0.9,0,1.7,0.1,2.5,0.4c0.1,0,0.2,0,0.3,0.1c3.5,0.7,5.5,2.7,6.5,4.2c0.1,0.1,0.1,0.2,0.2,0.3
				c1.5-2.6,3.8-5.2,7.7-6.1l0.5-0.1l0.4-0.1c0.4-0.1,0.8-0.1,1.1-0.1c3,0,5.8,1.7,7.2,4.5c1,1.8,1.5,3.8,1.5,5.8
				c0.3,0.1,0.6,0.1,0.9,0.2c3.9,1.1,6.4,4.8,5.8,8.8l-0.1,0.4l-0.4,1.5l-0.1,0.3c-0.8,2.1-1.5,4.3-2.5,6.5l-0.7,1.5
				c-0.1,0.2-0.1,0.4-0.2,0.6c-0.3,1.2-0.9,2.2-1.7,3.2l-0.1,0.1c-1.7,2-3.8,3.7-6.2,5l-0.2,0.1C419.3,71.7,417.9,72,416.3,72z"/>
		</g>
		<g>
			<path fill="#33CCCC" d="M430.1,74.8c-1.9,0-3.6-0.3-5.2-0.9c-1.5-0.5-2.7-1.2-3.6-1.7l-1.1-0.7l-0.1-0.1l-0.2-0.1l-0.6-0.5
				c-1.2-0.9-2.1-2.2-2.8-3.6l-0.1-0.3c-0.5-1-1.1-2.2-1.6-3.7c-0.8-2.5-0.8-5.1,0-7.9c0.6-4.2,2.5-6.3,4.4-7.4l-2.7-2.7h5.5
				l-0.2-0.3c-0.6-1.2-1.3-2.5-2-4l-0.1-0.2c-1.4-3.7-1.6-7.4-0.6-10.9l0.1-0.3l0.1-0.3c0.3-0.8,0.7-1.8,1.4-2.8
				c1.7-2.8,3.8-4.8,6.4-6c1.7-0.8,3.5-1.3,5.2-1.3c2.2,0,4.4,0.6,6.4,1.9c1.4,0.9,2.7,2,3.7,3.3c1.4,1.8,2.2,4,2.4,6.4
				c0.3,3.3-0.7,6.6-2.8,9.4l-0.1,0.1l-0.1,0.1c-0.1,0.1-0.2,0.3-0.3,0.4c0.1,0.2,0.3,0.4,0.4,0.7c1.5,2.1,2.8,4.4,4.1,7.1l0,0.1
				c1,2.2,1.2,4.3,1.3,5.5l0,0.4c0.1,3.4-0.6,6.5-2.1,9.3c-0.2,0.5-0.4,1-0.6,1.3l-0.1,0.3c-2.4,4.6-5.8,7.5-10.2,8.6
				C432.9,74.6,431.4,74.8,430.1,74.8z"/>
		</g>
		<g>
			<path fill="#33CCCC" d="M448.3,69.9c-1.9,0-3.8-0.4-5.7-1.2c-1.6-0.7-3-1.8-4-3.2c-3.1-3.9-4.5-8.2-4.2-12.8l0-0.2l0-0.2
				c0-0.1,0-0.1,0-0.3c-0.1-0.6-0.1-1.1-0.1-1.4c0-2.7,0.4-5.3,0.7-7.6l0.2-1l0.2-1.5c-1.3-0.8-2.3-1.9-3-3.2l-0.2-0.4l-0.1-0.4
				c-1.2-3.4-0.2-7.1,2.5-9.5c0.9-0.9,2.1-1.9,3.6-2.9c0.8-3.2,1.5-6.4,2.3-9.3l0.1-0.2l1.5-5l0.3-1.1l0-0.1c0.4-1.3,1-2.3,1.3-2.9
				c1.7-3,4.9-4.9,8.4-4.9c1.5,0,3,0.4,4.4,1c2.9,1.4,4.7,4.1,4.8,7.3c0.1,1.6,0,3.1-0.4,4.5c-0.2,0.6-0.3,1.2-0.5,1.8
				c-0.1,0.3-0.2,0.6-0.2,0.8l0,0.1c-0.1,0.5-0.3,0.9-0.4,1.4c1.6,0.5,3,1.5,4,2.9c2.1,2.9,2.1,6.7,0,9.6c-1.1,1.5-2.4,2.4-3.4,3
				l-0.3,0.2l-0.3,0.1c-0.1,0.1-0.2,0.1-0.3,0.2L459,34c-0.9,0.5-1.8,1.1-2.9,1.6c-0.1,0.7-0.2,1.3-0.3,2c-0.3,1.5-0.5,2.9-0.7,4.2
				l0,0.3c0,0.3-0.1,0.6-0.1,0.8c0.6-0.1,1.2-0.2,1.8-0.2c1.2,0,2.5,0.3,3.6,0.8c2.7,1.4,4.5,4.2,4.5,7.3c0,1.3-0.3,2.4-0.6,3.2
				c-0.3,0.8-0.7,1.7-1.4,3.1c-0.3,0.5-0.7,1.4-0.8,1.7l-0.1,0.2l-0.1,0.3c-0.3,0.6-0.7,1.6-1.4,2.7l0,0.1l-0.2,0.4
				C457.7,67.1,453.4,69.9,448.3,69.9z"/>
		</g>
	</g>
</g>
<g>
	<path fill="#FFFFFF" d="M29.1,71.5c-0.5-0.5-0.9-1.1-1.2-1.9c-0.8-1.7-1.1-3.6-1.3-5c-0.6-4.5-0.6-8.9-0.4-13.4
		c0.1-4.7-0.1-9.4,0.5-14c0.1-1.2,0.2-2.3,0.2-3.5c0-0.3,0-0.6,0.1-0.9c-0.3,0.6-0.5,1.2-0.7,1.8c-0.8,2-1.5,4-2.2,6l-1.2,3.3
		l-0.9,2.3c-0.6,1.7-1.3,3.4-1.9,5c-1,3.2-2.4,6.1-3.8,9l-0.7,1.3c-0.2,0.6-0.5,1-0.9,1.4c-0.9,1.2-2.6,1.4-3.7,0.4
		c-3.2-2.5-3.1-7.9-3.6-11.7c-0.7-4.6,0.1-9.2,0.2-13.8c0.1-2.4,0.4-5,0.7-7.6c0.3-2.7,0.6-5.8,0.6-8.6c0-1.2,0.4-2.2,0.7-3.1
		l0.2-0.6c0.3-0.7,0.9-1.2,1.6-1.3c0.5-0.1,0.9-0.1,1.3-0.1h0.1c2.9,0,2.2,4.3,2,6.2c-0.3,3.7-0.3,7.6-0.4,11.4
		c-0.1,5.1-0.6,10.3-0.6,15.3v3.9c-0.1,0.4,0.1,0.7,0.1,1.2c0.1,0.5,0.8,2.5,0.6,2.9c0.9-1.7,1.6-3.5,2.3-5.3c0.1-0.5,0.4-1,0.6-1.5
		c4.1-10.1,6.3-21.5,12.4-30.5c0.2-0.3,0.4-0.7,0.6-1.2c0.2-0.6,0.5-1.3,1-1.9l0.1-0.2c0.2-0.4,0.6-1.1,1.3-1.1c0.1,0,0.2,0,0.3,0.1
		c1,0.3,1.1,1.4,1.1,1.9v0.3c0.4,2.8-0.1,5.8-0.2,8.6c-0.1,3.1-0.2,6.3-0.3,9.4c0,6.2,0.1,12.4-0.1,18.6c-0.1,2.7-0.1,5.4-0.1,8v2.1
		l3.9-10.9c0.7-1.9,1.4-3.8,2-5.8c1.2-3.6,2.5-7.4,4-11c0.6-1.4,1.1-2.8,1.6-4.2l1.5-4c0.7-1.8,1.4-3.6,2.2-5.4
		c1.7-4.4,3.5-8.9,5.5-13.2l0.1-0.4c0.4-0.8,0.8-1.7,1.5-2.4c0.4-0.5,1.2-0.4,1.7,0c0.2,0.3,0.4,0.7,0.4,1.2c0,0.3-0.1,0.6-0.3,1
		c-0.9,1.5-1.7,3.2-2.4,4.8l-0.3,0.6c-1.7,3.7-3.2,7.5-4.5,11.2c-0.6,1.4-1.2,2.9-1.7,4.3l-0.6,1.4C47,34.4,46,37.2,44.9,40
		c-1.1,2.9-2.1,5.8-3,8.5c-0.3,0.7-0.5,1.4-0.8,2.2c-0.8,2.5-1.7,5.1-2.7,7.6c-1,2.4-1.9,5-2.7,7.4l-1.1,3.2l-0.1,0.3
		c-0.2,0.6-0.4,1.3-0.9,1.9c-0.9,1.2-1.8,1.4-2.4,1.4C30.5,72.5,29.7,72.2,29.1,71.5z M29.2,68.6c-0.1-0.8-0.1-1.7-0.3-2.4
		c-0.5-2.8-0.7-5.3-0.6-7.8c0.1-0.7,0.1-1.6,0.1-2.4l-0.2-4c-0.1-1.2-0.1-2.5-0.3-3.8c0-0.2-0.1-0.4-0.2-0.7
		c-0.1,0.2-0.1,0.2-0.2,0.3c-0.1,0,0,0.4-0.1,0.4c0.1,1.7,0.1,3.5,0.1,5.2c0,2.1,0.1,4.1,0.3,6.1s0.3,3.8,0.6,5.8
		c0.1,0.3,0.1,0.6,0.1,0.9l0.3,2.5l0.4,0.6C29.2,69,29.2,68.7,29.2,68.6z"/>
	<path fill="#FFFFFF" d="M56,64.9c-1.4-0.4-2.6-1.5-3.4-3.1c-1-2.2-2.2-5.2-2-8.5c0.2-2.1,0.6-4,1.1-5.5L52,47
		c0.3-1.1,0.7-2.2,1.2-3.2c1.2-2.8,3-5.2,5.2-7c1.1-0.9,2.2-1.2,3.4-1.4l0.1-0.1c0.3-0.1,0.6,0,0.9,0c1.7,0.3,4,2.4,4.4,4
		c0.1,0.5,0.1,0.9,0,1.3v0.1c-0.4,1.3-0.7,2.7-1.5,3.9c-3.5,5.5-10.2,7.8-7.3,15c0.4,1,2.1,2.3,3.5,2.4c0.2,0,0.4-0.1,0.6-0.1
		c0.6-0.1,1.1-0.5,1.5-1l0.6-0.6c0.4-0.5,0.9-1,1.4-1.6c1.7-2,3.5-4.3,5-6.8l0.6-1.3c0.1-0.4,0.3-0.6,0.4-1c0.3-0.6,0.9-0.9,1.6-0.6
		c0.3,0.1,0.6,0.4,0.7,0.7c0.1,0.4,0.1,0.9-0.1,1.2c-1.7,2.9-3.4,5.5-5.3,7.9c-0.3,0.4-0.6,0.7-0.9,1c-0.5,0.5-0.9,1-1.3,1.5
		c-1.1,1.4-2.5,2.3-4,3.1l-0.5,0.2c-0.6,0.4-1.4,0.6-2.1,0.6h-0.4h-0.1C58.2,65.5,57.1,65.2,56,64.9z M58.2,49.5
		c2.4-1.9,4.2-3.9,5.5-6c0.5-0.8,0.8-1.7,1.1-2.6l0.1-0.7c-0.1-1.3-0.6-1.3-0.7-1.3s-0.4,0.1-0.6,0.2c-0.6,0.3-1.1,0.6-1.4,1.1
		c-0.8,1.1-1.6,2.3-2.4,4c-0.8,1.7-1.4,3.5-1.9,5.5C58,49.7,58.1,49.6,58.2,49.5z"/>
	<path fill="#FFFFFF" d="M76,64.9c-1.4-0.4-2.6-1.5-3.4-3.1c-1-2.2-2.2-5.2-2-8.5c0.2-2.1,0.6-4,1.1-5.5l0.3-0.7
		c0.3-1.1,0.7-2.2,1.2-3.2c1.2-2.8,3-5.2,5.2-7c1.1-0.9,2.2-1.2,3.4-1.4l0.1-0.1c0.3-0.1,0.6,0,0.9,0c1.7,0.3,4,2.4,4.4,4
		c0.1,0.5,0.1,0.9,0,1.3v0.1c-0.4,1.3-0.7,2.7-1.5,3.9c-3.5,5.5-10.2,7.8-7.3,15c0.4,1,2.1,2.3,3.5,2.4c0.2,0,0.4-0.1,0.6-0.1
		c0.6-0.1,1.1-0.5,1.5-1l0.6-0.6c0.4-0.5,0.9-1,1.4-1.6c1.7-2,3.5-4.3,5-6.8l0.6-1.3c0.1-0.4,0.3-0.6,0.4-1c0.3-0.6,0.9-0.9,1.6-0.6
		c0.3,0.1,0.6,0.4,0.7,0.7c0.1,0.4,0.1,0.9-0.1,1.2c-1.7,2.9-3.4,5.5-5.3,7.9c-0.3,0.4-0.6,0.7-0.9,1c-0.5,0.5-0.9,1-1.3,1.5
		c-1.1,1.4-2.5,2.3-4,3.1L82,64.9c-0.6,0.4-1.4,0.6-2.1,0.6h-0.4h-0.1C78.1,65.5,77.1,65.2,76,64.9z M78.1,49.5
		c2.4-1.9,4.2-3.9,5.5-6c0.5-0.8,0.8-1.7,1.1-2.6l0.1-0.7c-0.1-1.3-0.6-1.3-0.7-1.3s-0.4,0.1-0.6,0.2c-0.6,0.3-1.1,0.6-1.4,1.1
		c-0.8,1.1-1.6,2.3-2.4,4c-0.8,1.7-1.4,3.5-1.9,5.5C78,49.7,78.1,49.6,78.1,49.5z"/>
	<path fill="#FFFFFF" d="M91.1,64.2c-0.4-0.7-0.6-1.6-0.6-2.4l0.1-1.1c0.1-1.4,0.2-2.7,0.4-4.1c0.1-1,0.4-2,0.5-3.1
		c0.3-1.5,0.6-3.1,0.7-4.7c0.1-0.8,0.3-1.7,0.4-2.4c0.2-1.3,0.4-2.4,0.4-3.7c0-0.3,0-0.5,0.1-0.7l0.6-2.8c0.4-1.6,0.7-3.2,1-4.8
		c0.2-0.8,0.4-1.7,0.5-2.7c0.1-1.2,0.4-2.4,0.8-3.6c0.4-1.1,0.6-2,0.7-3c0.4-2.6,1.4-5,2.3-7.4l0.4-0.9c0.1-0.4,0.4-1.3,1.4-1.3
		c0.3,0,0.6,0.1,0.9,0.2c0.4,0.1,0.7,0.2,1,0.3c1,0.4,1.3,0.9,1.2,2c-0.1,1.9-0.6,4-1.2,5.9c-0.4,1.4-0.7,2.6-0.9,3.6
		c-0.5,2.6-1.1,5.1-1.7,7.7l-0.9,3.8c-0.6,2.7-1.2,5.5-1.6,8.2l0.3-0.6c0.6-1.2,1.2-2.3,1.8-3.5c0.7-1.2,1.3-2.4,1.7-3.7
		c0.2-0.5,0.5-1,0.8-1.4l0.2-0.4l0.4-0.8c0.3-0.4,0.5-0.8,0.7-1.2c0.7-1.5,1.8-2.7,2.8-4c0.2-0.3,0.4-0.5,0.6-0.7
		c0.6-0.7,1.3-1.2,2-1.6l0.4-0.2c0.6-0.3,1.2-0.4,2-0.2c0.8,0.1,1.3,0.7,1.4,1.4c0,0.1,0.1,0.3,0.1,0.4c0.1,0.5,0.1,1,0,1.5
		c-0.4,2.2-0.8,4-2,5.6c-3,4-5.8,7.8-9.4,11.2l-0.3,0.3c0.1,0.1,0.1,0.1,0.3,0.1c0.1,0.1,0.4,0.3,0.5,0.5c1.7,2.4,2.6,4.5,2.7,6.8
		l0.2,2.4c0,0.5,0.1,1.1,0.1,1.6c0.1,0.5,0.1,0.9,0.4,1.2c0.6,0.9,1.7,1,2.4,0.4c0.4-0.4,0.9-0.8,1.3-1.3l1.1-1.6
		c1-1.5,2.1-3,2.8-4.7c0.2-0.6,0.5-1.2,0.8-1.7c0.6-1.1,1.1-2.1,1.4-3.2c0.2-0.7,0.8-1.1,1.5-0.9c0.4,0.1,0.6,0.2,0.8,0.5
		c0.1,0.4,0.1,0.8,0,1.3c-0.3,0.6-0.6,1.4-0.9,2l-0.9,1.7c-0.4,0.8-0.9,1.7-1.2,2.4c-1,2.2-2.3,4-3.3,5.3c-0.4,0.6-0.9,1.1-1.4,1.5
		c-1.4,1.2-2.8,1.5-4.5,0.9c-1.2-0.4-2-1.2-2.5-2.4c-0.1-0.4-0.3-1-0.3-1.5c-0.1-1.8-0.6-3.5-1.2-5.3l-0.6-2.3
		c-0.1-0.2-0.2-0.4-0.4-0.6c-0.4-0.6-0.5-0.6-0.5-0.6c-0.1,0-0.2,0-0.6,0.5l-0.3,0.4c-0.3,0.4-0.6,0.9-1,1.2
		c-0.3,0.3-0.4,0.6-0.6,1.1c-0.3,1.5-0.8,3-1.3,4.4c-0.4,1.1-0.6,2.3-0.8,3.7c-0.1,1.2-0.3,1.5-1.4,1.7c-0.4,0.1-0.6,0.1-0.9,0.1
		C92,65.4,91.5,65,91.1,64.2z M97.6,31.3c0.1-0.5,0.4-0.9,0.4-1.4c0.3-0.7,0.5-1.4,0.6-2.2c0.2-0.6,0.1-1.2,0.3-1.9
		c0.2-0.8,0.8-1.7,0.6-2.4c-0.3-1.2,0.5-1.3,0.9-2.4c-0.6-0.3-0.3-1.7-0.2-1.9c0.2-0.6,0.8-0.1,0.3-0.6c-0.3,0.4-0.6,0.6-0.7,0.9
		c-0.6,2.4-1.1,3.9-1.7,6.3c-0.4,1.9-1,3.7-1.5,5.6c-0.1,0.8-0.1,1.7-0.3,2.5C97.2,33.1,97.4,32.2,97.6,31.3z M99.5,34.6
		c0.1-1.4,0.1-2.8,0.2-4.2c-0.3,1.3-0.6,2.7-0.9,4.1c0,0.1,0.2,0.3,0.3,0.4C99.2,34.7,99.5,34.6,99.5,34.6z M103.1,43.6
		c1.9-2.4,3.4-4.9,4.6-7.6c0.5-1.1,0.8-2,1-3c-1.2,1.2-2.1,2.3-2.7,3.5c-0.4,0.7-0.7,1.3-1.2,1.9c-0.4,0.7-0.9,1.4-1.2,2.2
		c-0.6,1.4-1.3,3-2.1,4.5C102.2,44.7,102.7,44.2,103.1,43.6z"/>
	<path fill="#FFFFFF" d="M120.2,64.9c-1.4-0.4-2.6-1.5-3.4-3.1c-1-2.2-2.2-5.2-2-8.5c0.2-2.1,0.6-4,1.1-5.5l0.3-0.7
		c0.3-1.1,0.7-2.2,1.2-3.2c1.2-2.8,3-5.2,5.2-7c1.1-0.9,2.2-1.2,3.4-1.4l0.1-0.1c0.3-0.1,0.6,0,0.9,0c1.7,0.3,4,2.4,4.4,4
		c0.1,0.5,0.1,0.9,0,1.3v0.1c-0.4,1.3-0.7,2.7-1.5,3.9c-3.5,5.5-10.2,7.8-7.3,15c0.4,1,2.1,2.3,3.5,2.4c0.2,0,0.4-0.1,0.6-0.1
		c0.6-0.1,1.1-0.5,1.5-1l0.6-0.6c0.4-0.5,0.9-1,1.4-1.6c1.7-2,3.5-4.3,5-6.8l0.6-1.3c0.1-0.4,0.3-0.6,0.4-1c0.3-0.6,0.9-0.9,1.6-0.6
		c0.3,0.1,0.6,0.4,0.7,0.7c0.1,0.4,0.1,0.9-0.1,1.2c-1.7,2.9-3.4,5.5-5.3,7.9c-0.3,0.4-0.6,0.7-0.9,1c-0.5,0.5-0.9,1-1.3,1.5
		c-1.1,1.4-2.5,2.3-4,3.1l-0.5,0.2c-0.6,0.4-1.4,0.6-2.1,0.6h-0.4h-0.1C122.3,65.5,121.3,65.2,120.2,64.9z M122.3,49.5
		c2.4-1.9,4.2-3.9,5.5-6c0.5-0.8,0.8-1.7,1.1-2.6l0.1-0.7c-0.1-1.3-0.6-1.3-0.7-1.3s-0.4,0.1-0.6,0.2c-0.6,0.3-1.1,0.6-1.4,1.1
		c-0.8,1.1-1.6,2.3-2.4,4c-0.8,1.7-1.4,3.5-1.9,5.5C122.2,49.7,122.3,49.6,122.3,49.5z"/>
	<path fill="#FFFFFF" d="M150.6,66.5c-1.4-2.5-2.5-5.3-3.1-8.3c-0.1-1-0.1-2.1-0.1-3.1c0-0.4,0.1-0.9,0.1-1.4V49
		c-0.9,1.2-1.6,2.2-2.1,3.2l-5.6,9.7c-0.4,0.8-1.2,1.2-2,1.2c-0.6,0-1.2-0.1-1.6-0.6c-0.9-0.7-1.2-1.8-1.4-2.7v-0.2
		c-0.2-0.7-0.1-1.4-0.1-2.2c0.1-0.4,0.1-0.9,0.1-1.4c0.1-0.6,0.1-1.1,0.1-1.7c0.1-1.4,0.2-2.7,0.4-4.1c0.1-1.2,0.3-2.4,0.4-3.6
		c0-0.6,0.1-1.2,0.2-1.9c0.1-0.8,0.2-1.6,0.1-2.4c0-0.4,0.1-0.9,0.4-1.4l0.2-0.6c0.4-1.1,0.7-1.7,2.2-1.7h0.9
		c1.2,0.1,1.8,0.2,2.2,0.7c0.4,0.5,0.4,1.3,0.2,2.4c-0.1,1.2-0.3,2.2-0.5,3.4c-0.1,0.7-0.2,1.4-0.4,2.1c0,0.4-0.1,0.7-0.1,1.1
		c-0.1,1-0.2,2.1-0.6,3.1c-0.1,0.1-0.1,0.2-0.1,0.3l-0.1,0.4c-0.1,0.3-0.1,0.5-0.1,0.7c0,0.9-0.1,1.9-0.1,2.8l3.5-5.8
		c0.8-1.4,1.8-2.7,3.1-4.2l0.6-0.6c0.5-0.6,1-1.3,1.6-1.9c0.6-0.7,1.4-1.1,2.2-1.1c1.2,0,2,0.9,2.5,2.2c0.8,2.4,1,4.5,0.6,6.3
		c-0.1,0.5-0.1,1.1-0.1,1.7l0.6,8.3v0.1c0.1,0.1,0.1,0.4,0.1,0.5c0.8,1.2,1.5,2.2,2.5,3c0.1,0.1,0.2,0.2,0.4,0.2
		c0.1,0,0.2-0.1,0.4-0.2c1.2-1,1.9-1.8,2.5-2.7c1.2-2.2,2.7-4.7,4-7.3c0.3-0.5,0.5-1.2,0.8-1.8c0.1-0.3,0.2-0.6,0.3-0.9
		c0.1-0.1,0.1-0.2,0.1-0.4c0.1-0.3,0.2-0.5,0.3-0.7c0.2-0.4,0.6-0.6,1-0.6h0.1c0.5,0.1,0.9,0.4,1.1,0.8c0.2,0.6,0,1.1-0.1,1.3
		l-0.4,1l-0.9,2c-1.5,3.2-3.3,6.2-5.1,9.2c-1.4,2.2-3.5,3.5-6.1,4h-0.4h-0.4c-0.1,0-0.3,0-0.4,0.1c-0.4,0.2-0.9,0.3-1.4,0.3
		C152.7,68.5,151.6,68.1,150.6,66.5z M150.1,59.5c0.1-0.5,0.1-1,0.1-1.4c0-0.8,0-1.6-0.1-2.2c0-0.6-0.3-1.2-0.3-1.9
		c-0.1-0.9,0.2-1.8-0.1-2.5c-0.6-1,0.1-1.4,0.1-2.6c-0.6-0.1-0.8-1.4-0.8-1.8c0-0.6,0.7-0.3,0.1-0.6c-0.1,0.4-0.4,0.8-0.4,1.2
		c0.2,2.5,0.1,4,0.4,6.5c0.1,1.9,0.1,3.9,0.3,5.8c0.1,0.8,0.4,1.6,0.5,2.5C150.3,61.3,150.1,60.4,150.1,59.5z M152.9,62.1l-1.1-4.2
		c0.1,1.4,0.3,2.9,0.4,4.2l0.4,0.3C152.7,62.3,152.9,62.1,152.9,62.1z"/>
	<path fill="#FFFFFF" d="M199.2,46.5c-0.1,0.4-0.4,0.7-0.5,1.1l-0.7,1.4c-1.6,3.2-3.2,6.1-5.1,8.8c-0.5,0.7-1,1.4-1.5,2.2l-0.6,0.9
		c-1,1.6-2.6,2.8-4.6,3.5c-0.7,0.3-1.3,0.4-1.9,0.4c-1.2,0-2.2-0.4-3.1-1.4c-1-1-2.1-2.3-2.5-4c0-0.2-0.1-0.4-0.1-0.4l-0.1,0.2
		l-1.5,1.6l-0.2,0.2c-0.6,0.8-1.4,1.5-2.2,2.2c-1.8,1.5-3.9,1.4-5.6-0.1c-3-2.8-4-6.6-2.8-10.5c0.8-2.9,1.7-5.2,2.8-7.1
		c0.4-0.6,0.8-1.1,1.2-1.7l0.7-0.9c0.6-0.9,1.4-1.3,2.2-1.7c1.4-0.6,2.4-0.6,3.4,0.2v-0.4c-0.1-3.3,0.4-6.7,1.4-11.2
		c0.4-1.4,0.6-2.8,0.9-4.2l0.4-2.1c0.6-2.7,1.6-5.3,3.1-7.6c1-1.6,2.4-2.2,4-1.8c0.9,0.2,1.7,0.8,2.3,1.4l0.3,0.2
		c0.7,0.6,0.8,1.4,0.9,2.2c0.1,0.9,0.1,1.8,0,2.7c0,0.6,0,1.3,0.1,1.9c0.1,1.7-0.3,3.3-0.6,4.9c-0.1,0.6-0.4,1.4-0.4,2.1
		c-0.1,0.4-0.1,0.9-0.1,1.4c-0.1,0.6-0.1,1.3-0.2,1.9l-0.9,4l-0.6,3.2l-0.2,0.8c-0.1,0.4-0.1,0.7-0.2,1.1c-0.5,2.3-1.3,4.7-2.7,7.4
		l-0.5,0.9c-0.1,0.3-0.3,0.6-0.4,0.9c-0.3,0.6-0.4,1.2-0.3,1.7l0.4,2.9c0.2,1.2,0.4,2.3,0.5,3.4c0.1,1.4,1.2,2.2,2.4,3
		c0.1,0,0.1,0,0.4-0.1c0.6-0.4,1.2-0.8,1.8-1.4c0.7-0.7,1.4-1.7,1.9-2.6c0.3-0.4,0.5-0.8,0.8-1.2l0.4-0.6c0.1-0.3,0.4-0.6,0.6-0.9
		c1.9-2.6,3.5-5.5,5.2-9.1c0.1-0.2,0.2-0.5,0.4-0.6c0.4-0.5,1.1-0.6,1.5-0.2C199.3,45.4,199.5,46,199.2,46.5z M169.9,58.4
		c0-0.1-0.1-0.2-0.2-0.3h-0.1c0,0,0,0-0.1,0c-0.1,0-0.2,0.1-0.2,0.1c0,0.1,0,0.1,0.1,0.2c0,0.1,0.1,0.1,0.2,0.2l0.1-0.6v0.6
		L169.9,58.4L169.9,58.4z M170.9,53.3c0-0.1,0-0.1-0.1-0.3c-0.1,0-0.1-0.1-0.2-0.1c-0.1,0.1-0.2,0.1-0.3,0.1v0.1
		c-0.1,0.1-0.1,0.1,0,0.2l0.2,0.1l0.1-0.6L170.9,53.3C170.8,53.4,170.8,53.3,170.9,53.3z M177.6,54.9l-0.2-1.7
		c-0.1-1.3-0.3-2.5-0.6-3.7c-0.3-0.9-0.5-1.9-0.7-2.9c-0.1-0.5-0.2-1-0.3-1.5l-0.4-1.4c0,0-0.1,0-0.1,0H175
		c-0.3,0.1-0.4,0.3-0.5,0.5c-0.1,0.2-0.2,0.4-0.3,0.5c-0.2,0.4-0.4,0.9-0.5,1.2c-1.3,3.9-1.7,7.8-1.9,11.2c-0.1,0.9,0,1.7,0.1,2.7
		v0.1c0,0.3,0.1,0.4,0.3,0.5c0.1,0.1,0.2,0.1,0.4,0.2c0.1,0.1,0.4,0.2,0.5,0.4l0.1,0.1c0,0,0.1-0.1,0.1-0.1c1.7-1.6,2.9-3,3.8-4.5
		C177.6,55.8,177.6,55.4,177.6,54.9z M182,20.5c0.1-0.1,0.1-0.3,0.1-0.3c-0.8-0.1-0.6-0.3-0.1-0.5c0.1-0.1,0.2-0.2,0.2-0.3
		c-0.1-0.2-0.4-0.4-0.6-0.4c-0.1,0.1-0.3,0.2-0.2,0.4c-0.4,1.2-0.8,2.4-1,3.6l-1.7,7.8c-0.2,1.4-0.5,2.7-0.7,4h0.1
		c-0.1,0.6-0.1,1.1-0.1,1.7c0,0.1,0.1,0.2,0.2,0.3c0.1-0.1,0.3-0.1,0.4-0.2c0.1-0.2,0.1-0.4,0.1-0.6c0.1-0.7,0.2-1.5,0.4-2.2
		c0-0.1,0.1-0.3,0.1-0.4c-0.3-0.9,0.1-1.6,0.4-2.2c0.1-0.4,0.2-0.6,0.1-1c-0.2-0.8-0.1-1.5,0.6-2.1c0.2-0.1,0.3-0.4,0.3-0.6
		c-0.5-1.2-0.2-2.3,0.6-3.3c0.1-0.2,0.1-0.4,0.1-0.6C180.7,22.3,181.2,21.4,182,20.5z M181.5,48c1.2-2.4,2.3-4.7,2.7-7.3l0.2-1.1
		c0.1-0.6,0.3-1.3,0.5-1.9c0.3-1.4,0.6-2.7,0.9-4.2c0.4-1.9,0.6-3.8,0.9-5.8c0.2-1.1,0.4-2.2,0.5-3.2c0.3-2,0.4-4,0.1-6.2l-0.4,0.8
		c-0.8,2.4-1.4,5-2.1,8.5c-0.3,2-0.7,3.6-1.3,5.1c-0.4,1-0.8,2.2-0.9,3.5l-0.4,3.5c-0.3,1.9-0.6,3.7-0.6,5.7c0,0.6-0.1,1.3-0.1,2V48
		z M181.7,17.9h-0.1l0.1,0.4c0.1-0.1,0.1-0.2,0.3-0.3c0.1-0.1,0.1-0.2,0.3-0.4c-0.1-0.1,0.1-0.2,0.1-0.4l-0.2-0.1
		c-0.2,0.1-0.4,0.1-0.5,0.3C181.7,17.6,181.7,17.7,181.7,17.9z"/>
	<path fill="#FFFFFF" d="M235.4,64c-0.9-0.4-1.9-1-2.6-2.2c-2.1-3-3.2-6.3-3.5-10c-0.2-2.2-0.4-4.8,0-7.4c-1,1.7-2,3.5-2.8,5.3
		c-0.7,1.8-1.8,3.5-3.3,5.3c-1,1.2-2.4,2.3-4,3c-0.5,0.2-1.1,0.4-1.7,0.4c-1.9,0-3.6-1.3-4.1-3.1c-0.1-0.6-0.3-1.2-0.4-2v-1.4
		c0-0.2,0-0.4,0-0.6c0.1-2.6,0.4-4.8,1.3-7.6c0.3-1,0.5-2,0.7-3.1l0.1-0.9c0.1-0.5,0.2-1,0.5-1.5c0.4-0.6,1-1.4,2.4-0.9
		c0.4,0.1,0.8,0.3,1.2,0.3c1.2,0.2,1.3,1.1,1.3,1.8c-0.1,0.7-0.1,1.3-0.3,1.9l-0.2,1c-0.4,1.8-0.9,3.7-1.4,5.5
		c-0.6,2.2-0.6,4.5,0.1,6.8L219,55c0.1,0.2,0.2,0.2,0.4,0.1c1.1-0.5,2-1.3,2.7-2.3c3-4,6.1-19.9,12.1-19.9c0.2,0,0.4,0.1,0.6,0.1
		c0.7,0.4,0.9,1.2,0.9,1.9v1.8c0.1,5.5-2.1,11.2-0.4,16.6c0.1,0.4,0.1,0.8,0.1,1.2v0.2v0.7c-0.1,0.4-0.1,0.7,0,1
		c0.1,0.2,0.2,0.4,0.3,0.6c0.1,0.4,0.4,0.7,0.4,1.2c0,0.4,0.2,0.6,0.7,0.9c0.3,0.2,0.4,0.2,0.6,0.2c0.1,0,0.2,0,0.4-0.4
		c0.2-0.4,0.5-0.9,0.6-1.4c0.3-1.5,1-2.7,1.7-4.2c1-1.8,1.5-3.8,1.9-5.6c0.4-1.7,0.9-3.2,1.4-4.6c0.3-0.6,0.5-1.3,0.7-1.9
		c0.4-1.2,0.9-2.3,1.6-3.6l1.1-1.9c0.4-0.9,1-1.9,1.6-2.9l0.1-0.2c1.5-2.4,3-4.9,5.4-6.8c0.4-0.4,1.2-0.2,1.4,0.3
		c0.1,0.3,0.1,0.9-0.1,1.2c-2.2,1.9-3.6,4.4-5,6.9c-0.4,0.9-0.9,1.7-1.4,2.5c-1.6,2.6-2.7,5.4-3.7,8.3c-0.4,1.1-0.9,2.3-1,3.5
		c-0.3,1.8-0.9,3.5-1.6,5l-0.4,0.9c-0.6,1.5-1.4,3.3-1.8,5.1c-0.4,1.6-1.1,3.5-3.1,4.5c-0.3,0.1-0.7,0.4-1.2,0.4
		C236,64.3,235.7,64.2,235.4,64z"/>
	<path fill="#FFFFFF" d="M267.6,64.5c-0.9-0.1-2-0.3-2.8-1.3c-0.9-1.2-1.4-2.2-1.7-3.5c-0.1-1.3,0-2.6,0.1-3.8
		c0-0.3,0.1-0.6,0.1-0.9c-0.1,0.1-0.1,0.2-0.1,0.3c-1.2,1.6-2.6,3.1-4.1,4.5c-1.3,1.2-3,1.8-4.9,1.9c-1,0-1.8-0.4-2.4-0.9
		c-1.3-1.3-1.9-2.6-1.9-4.1c0-1.2,0.1-2.2,0.4-3.3l0.1-0.4c0.6-2.8,1.6-5.8,3.2-9.4c1.2-2.7,3.2-4.6,5.8-5.6c2-0.8,3.7-0.3,5,1.5
		s1.6,3.9,1,6.2c-0.2,0.6-0.9,1-1.4,0.7c-0.4-0.1-0.7-0.6-0.7-1l0.1-0.8c0.1-0.4,0.1-0.9,0-1.2c0-0.1,0-0.4-0.1-0.5
		c0-0.1,0-0.3-0.1-0.4c0-0.1,0-0.2-0.1-0.4c-0.1-0.6-0.2-0.9-0.5-0.9c-0.5-0.1-1,0.6-1.2,0.9c-1.2,1.4-1.8,2.6-2.1,3.9
		c-0.1,0.8-0.4,1.6-0.8,2.5c-0.8,1.9-1.2,4-1.7,6l-0.4,1.9c-0.1,0.8-0.1,1.5,0.4,2.2h0.1c1-0.8,1.9-1.6,2.6-2.4l0.8-0.9
		c0.9-1.2,2-2.5,3.1-3.7c0.6-0.6,0.9-1.3,1.2-2.3c0.4-1.7,1-3.4,1.6-5.1c0.3-0.9,0.7-1.9,1.1-2.7c0.5-1.2,1.4-1.4,2.1-1.4
		c0.3,0,0.6,0,0.9,0.1c0.1,0.1,0.3,0.1,0.4,0.1c4.5,1.1,1.2,5.8,0.1,8.5c-1,2.7-3,8.4-2.6,11.2c0.1,0.2,0.1,0.4,0.4,0.4
		c0.1,0,0.2,0,0.4-0.1c0.8-0.4,1.4-1.2,2-1.9l0.2-0.2c1.2-1.4,2.7-3.4,3.7-5.6l0.1-0.1c0.3-0.6,0.5-1.1,0.6-1.7
		c0.1-0.3,0.2-0.6,0.4-0.9c0.4-0.4,1.1-0.4,1.5-0.1c0.4,0.2,0.5,0.6,0.5,1c0,0.3-0.1,0.6-0.2,0.8c-1.4,3-2.8,5.3-4.4,7.2
		c-0.3,0.3-0.5,0.6-0.6,0.9c-0.9,1.5-1.9,3-3.6,4c-0.1,0.1-0.1,0.1-0.2,0.3c-0.2,0.3-0.6,0.7-1.2,0.7
		C267.8,64.6,267.7,64.6,267.6,64.5z"/>
	<path fill="#FFFFFF" d="M290.5,66.5c-1.4-2.5-2.5-5.3-3.1-8.3c-0.1-1-0.1-2.1-0.1-3.1c0-0.4,0.1-0.9,0.1-1.4V49
		c-0.9,1.2-1.6,2.2-2.1,3.2l-5.6,9.7c-0.4,0.8-1.2,1.2-2,1.2c-0.6,0-1.2-0.1-1.6-0.6c-0.9-0.7-1.2-1.8-1.4-2.7v-0.2
		c-0.2-0.7-0.1-1.4-0.1-2.2c0.1-0.4,0.1-0.9,0.1-1.4c0.1-0.6,0.1-1.1,0.1-1.7c0.1-1.4,0.2-2.7,0.4-4.1c0.1-1.2,0.3-2.4,0.4-3.6
		c0-0.6,0.1-1.2,0.2-1.9c0.1-0.8,0.2-1.6,0.1-2.4c0-0.4,0.1-0.9,0.4-1.4l0.2-0.6c0.4-1.1,0.7-1.7,2.2-1.7h0.9
		c1.2,0.1,1.8,0.2,2.2,0.7c0.4,0.5,0.4,1.3,0.2,2.4c-0.1,1.2-0.3,2.2-0.5,3.4c-0.1,0.7-0.2,1.4-0.4,2.1c0,0.4-0.1,0.7-0.1,1.1
		c-0.1,1-0.2,2.1-0.6,3.1c-0.1,0.1-0.1,0.2-0.1,0.3l-0.1,0.4c-0.1,0.3-0.1,0.5-0.1,0.7c0,0.9-0.1,1.9-0.1,2.8l3.5-5.8
		c0.8-1.4,1.8-2.7,3.1-4.2l0.6-0.6c0.5-0.6,1-1.3,1.6-1.9c0.6-0.7,1.4-1.1,2.2-1.1c1.2,0,2,0.9,2.5,2.2c0.8,2.4,1,4.5,0.6,6.3
		c-0.1,0.5-0.1,1.1-0.1,1.7l0.6,8.3v0.1c0.1,0.1,0.1,0.4,0.1,0.5c0.8,1.2,1.5,2.2,2.5,3c0.1,0.1,0.2,0.2,0.4,0.2
		c0.1,0,0.2-0.1,0.4-0.2c1.2-1,1.9-1.8,2.5-2.7c1.2-2.2,2.7-4.7,4-7.3c0.3-0.5,0.5-1.2,0.8-1.8c0.1-0.3,0.2-0.6,0.3-0.9
		c0.1-0.1,0.1-0.2,0.1-0.4c0.1-0.3,0.2-0.5,0.3-0.7c0.2-0.4,0.6-0.6,1-0.6h0.1c0.5,0.1,0.9,0.4,1.1,0.8c0.2,0.6,0,1.1-0.1,1.3
		l-0.4,1l-0.9,2c-1.5,3.2-3.3,6.2-5.1,9.2c-1.4,2.2-3.5,3.5-6.1,4h-0.4h-0.4c-0.1,0-0.3,0-0.4,0.1c-0.4,0.2-0.9,0.3-1.4,0.3
		C292.5,68.5,291.5,68.1,290.5,66.5z M290,59.5c0.1-0.5,0.1-1,0.1-1.4c0-0.8,0-1.6-0.1-2.2c0-0.6-0.3-1.2-0.3-1.9
		c-0.1-0.9,0.2-1.8-0.1-2.5c-0.6-1,0.1-1.4,0.1-2.6c-0.6-0.1-0.8-1.4-0.8-1.8c0-0.6,0.7-0.3,0.1-0.6c-0.1,0.4-0.4,0.8-0.4,1.2
		c0.2,2.5,0.1,4,0.4,6.5c0.1,1.9,0.1,3.9,0.3,5.8c0.1,0.8,0.4,1.6,0.5,2.5C290.2,61.3,290,60.4,290,59.5z M292.8,62.1l-1.1-4.2
		c0.1,1.4,0.3,2.9,0.4,4.2l0.4,0.3C292.5,62.3,292.8,62.1,292.8,62.1z"/>
	<path fill="#FFFFFF" d="M339,46.5c-0.1,0.4-0.4,0.7-0.5,1.1l-0.7,1.4c-1.6,3.2-3.2,6.1-5.1,8.8c-0.5,0.7-1,1.4-1.5,2.2l-0.6,0.9
		c-1,1.6-2.6,2.8-4.6,3.5c-0.7,0.3-1.3,0.4-1.9,0.4c-1.2,0-2.2-0.4-3.1-1.4c-1-1-2.1-2.3-2.5-4c0-0.2-0.1-0.4-0.1-0.4l-0.1,0.2
		l-1.5,1.6l-0.2,0.2c-0.6,0.8-1.4,1.5-2.2,2.2c-1.8,1.5-3.9,1.4-5.6-0.1c-3-2.8-4-6.6-2.8-10.5c0.8-2.9,1.7-5.2,2.8-7.1
		c0.4-0.6,0.8-1.1,1.2-1.7l0.7-0.9c0.6-0.9,1.4-1.3,2.2-1.7c1.4-0.6,2.4-0.6,3.4,0.2v-0.4c-0.1-3.3,0.4-6.7,1.4-11.2
		c0.4-1.4,0.6-2.8,0.9-4.2l0.4-2.1c0.6-2.7,1.6-5.3,3.1-7.6c1-1.6,2.4-2.2,4-1.8c0.9,0.2,1.7,0.8,2.3,1.4l0.3,0.2
		c0.7,0.6,0.8,1.4,0.9,2.2c0.1,0.9,0.1,1.8,0,2.7c0,0.6,0,1.3,0.1,1.9c0.1,1.7-0.3,3.3-0.6,4.9c-0.1,0.6-0.4,1.4-0.4,2.1
		c-0.1,0.4-0.1,0.9-0.1,1.4c-0.1,0.6-0.1,1.3-0.2,1.9l-0.9,4l-0.6,3.2l-0.2,0.8c-0.1,0.4-0.1,0.7-0.2,1.1c-0.5,2.3-1.3,4.7-2.7,7.4
		L323,50c-0.1,0.3-0.3,0.6-0.4,0.9c-0.3,0.6-0.4,1.2-0.3,1.7l0.4,2.9c0.2,1.2,0.4,2.3,0.5,3.4c0.1,1.4,1.2,2.2,2.4,3
		c0.1,0,0.1,0,0.4-0.1c0.6-0.4,1.2-0.8,1.8-1.4c0.7-0.7,1.4-1.7,1.9-2.6c0.3-0.4,0.5-0.8,0.8-1.2l0.4-0.6c0.1-0.3,0.4-0.6,0.6-0.9
		c1.9-2.6,3.5-5.5,5.2-9.1c0.1-0.2,0.2-0.5,0.4-0.6c0.4-0.5,1.1-0.6,1.5-0.2C339.1,45.4,339.3,46,339,46.5z M309.8,58.4
		c0-0.1-0.1-0.2-0.2-0.3h-0.1c0,0,0,0-0.1,0c-0.1,0-0.2,0.1-0.2,0.1c0,0.1,0,0.1,0.1,0.2c0,0.1,0.1,0.1,0.2,0.2l0.1-0.6v0.6
		L309.8,58.4L309.8,58.4z M310.7,53.3c0-0.1,0-0.1-0.1-0.3c-0.1,0-0.1-0.1-0.2-0.1c-0.1,0.1-0.2,0.1-0.3,0.1v0.1
		c-0.1,0.1-0.1,0.1,0,0.2l0.2,0.1l0.1-0.6L310.7,53.3C310.6,53.4,310.6,53.3,310.7,53.3z M317.4,54.9l-0.2-1.7
		c-0.1-1.3-0.3-2.5-0.6-3.7c-0.3-0.9-0.5-1.9-0.7-2.9c-0.1-0.5-0.2-1-0.3-1.5l-0.4-1.4c0,0-0.1,0-0.1,0h-0.1
		c-0.3,0.1-0.4,0.3-0.5,0.5c-0.1,0.2-0.2,0.4-0.3,0.5c-0.2,0.4-0.4,0.9-0.5,1.2c-1.3,3.9-1.7,7.8-1.9,11.2c-0.1,0.9,0,1.7,0.1,2.7
		v0.1c0,0.3,0.1,0.4,0.3,0.5c0.1,0.1,0.2,0.1,0.4,0.2c0.1,0.1,0.4,0.2,0.5,0.4l0.1,0.1c0,0,0.1-0.1,0.1-0.1c1.7-1.6,2.9-3,3.8-4.5
		C317.4,55.8,317.5,55.4,317.4,54.9z M321.8,20.5c0.1-0.1,0.1-0.3,0.1-0.3c-0.8-0.1-0.6-0.3-0.1-0.5c0.1-0.1,0.2-0.2,0.2-0.3
		c-0.1-0.2-0.4-0.4-0.6-0.4c-0.1,0.1-0.3,0.2-0.2,0.4c-0.4,1.2-0.8,2.4-1,3.6l-1.7,7.8c-0.2,1.4-0.5,2.7-0.7,4h0.1
		c-0.1,0.6-0.1,1.1-0.1,1.7c0,0.1,0.1,0.2,0.2,0.3c0.1-0.1,0.3-0.1,0.4-0.2c0.1-0.2,0.1-0.4,0.1-0.6c0.1-0.7,0.2-1.5,0.4-2.2
		c0-0.1,0.1-0.3,0.1-0.4c-0.3-0.9,0.1-1.6,0.4-2.2c0.1-0.4,0.2-0.6,0.1-1c-0.2-0.8-0.1-1.5,0.6-2.1c0.2-0.1,0.3-0.4,0.3-0.6
		c-0.5-1.2-0.2-2.3,0.6-3.3c0.1-0.2,0.1-0.4,0.1-0.6C320.5,22.3,321,21.4,321.8,20.5z M321.3,48c1.2-2.4,2.3-4.7,2.7-7.3l0.2-1.1
		c0.1-0.6,0.3-1.3,0.5-1.9c0.3-1.4,0.6-2.7,0.9-4.2c0.4-1.9,0.6-3.8,0.9-5.8c0.2-1.1,0.4-2.2,0.5-3.2c0.3-2,0.4-4,0.1-6.2l-0.4,0.8
		c-0.8,2.4-1.4,5-2.1,8.5c-0.3,2-0.7,3.6-1.3,5.1c-0.4,1-0.8,2.2-0.9,3.5l-0.4,3.5c-0.3,1.9-0.6,3.7-0.6,5.7c0,0.6-0.1,1.3-0.1,2V48
		z M321.6,17.9h-0.1l0.1,0.4c0.1-0.1,0.1-0.2,0.3-0.3c0.1-0.1,0.1-0.2,0.3-0.4c-0.1-0.1,0.1-0.2,0.1-0.4l-0.2-0.1
		c-0.2,0.1-0.4,0.1-0.5,0.3C321.5,17.6,321.6,17.7,321.6,17.9z"/>
	<path fill="#FFFFFF" d="M340.2,64.9c-1.4-0.4-2.6-1.5-3.4-3.1c-1-2.2-2.2-5.2-2-8.5c0.2-2.1,0.6-4,1.1-5.5l0.3-0.7
		c0.3-1.1,0.7-2.2,1.2-3.2c1.2-2.8,3-5.2,5.2-7c1.1-0.9,2.2-1.2,3.4-1.4l0.1-0.1c0.3-0.1,0.6,0,0.9,0c1.7,0.3,4,2.4,4.4,4
		c0.1,0.5,0.1,0.9,0,1.3v0.1c-0.4,1.3-0.7,2.7-1.5,3.9c-3.5,5.5-10.2,7.8-7.3,15c0.4,1,2.1,2.3,3.5,2.4c0.2,0,0.4-0.1,0.6-0.1
		c0.6-0.1,1.1-0.5,1.5-1l0.6-0.6c0.4-0.5,0.9-1,1.4-1.6c1.7-2,3.5-4.3,5-6.8l0.6-1.3c0.1-0.4,0.3-0.6,0.4-1c0.3-0.6,0.9-0.9,1.6-0.6
		c0.3,0.1,0.6,0.4,0.7,0.7c0.1,0.4,0.1,0.9-0.1,1.2c-1.7,2.9-3.4,5.5-5.3,7.9c-0.3,0.4-0.6,0.7-0.9,1c-0.5,0.5-0.9,1-1.3,1.5
		c-1.1,1.4-2.5,2.3-4,3.1l-0.5,0.2c-0.6,0.4-1.4,0.6-2.1,0.6h-0.4h-0.1C342.4,65.5,341.3,65.2,340.2,64.9z M342.4,49.5
		c2.4-1.9,4.2-3.9,5.5-6c0.5-0.8,0.8-1.7,1.1-2.6l0.1-0.7c-0.1-1.3-0.6-1.3-0.7-1.3c-0.1,0-0.4,0.1-0.6,0.2
		c-0.6,0.3-1.1,0.6-1.4,1.1c-0.8,1.1-1.6,2.3-2.4,4s-1.4,3.5-1.9,5.5C342.2,49.7,342.3,49.6,342.4,49.5z"/>
	<path fill="#FFFFFF" d="M366.3,66.8c-2-1.4-4-3.1-4.6-6c-0.3-1.5-0.5-3-0.1-4.5c0.1-0.1,0.1-0.1,0.1-0.2c-0.2-1.7,0-3.1,0.6-4.5
		c-0.4-0.3-0.8-0.6-1.2-0.9c-0.5-0.4-1.1-0.9-1.7-1.2c-1.9-1.1-3.6-2.7-4.8-4.7c-1.3-2-1.6-4.3-1.7-6.3v-1.7
		c0.1-0.2,0.1-0.5,0.1-0.7c0-1.3,0.6-2.4,1.2-3.4c0.1-0.2,0.1-0.4,0.3-0.6c1.3-2.5,1.7-2.7,4.5-3.2c1.4-0.2,3.2,0.6,3.8,1.9
		c0.6,1.3,1.4,3,1.1,5c-0.2,1.5-0.5,3-1.1,4.5c-0.1,0.4-0.2,0.7-0.4,1.2c-0.2,0.8-0.4,1.5-0.9,2.3c-0.3,0.5-0.6,1.1-1,1.6
		c-0.1,0.1-0.1,0.3-0.1,0.3c0.1,0,0.1,0.1,0.2,0.1l3.7,1.5l0.7,0.3c0.1,0,0.2,0.1,0.4,0.1l0.6,0.2c2.5,1.2,3.6,3.5,2.8,6
		c-0.5,1.7-1,3.8-0.9,6v0.4c0,0.1,0,0.1,0,0.2c0.1,1.9,1,3.1,2.8,3.6c0.8,0.2,1.4,0.1,2-0.4c0.9-0.7,1.5-1.4,1.9-2.2
		c1.4-2.4,2.6-5.1,3.5-8c0.1-0.5,0.2-1.1,0.4-1.7c0-0.4,0.1-0.6,0.1-1c0.1-0.4,0.1-0.7,0.4-1.1c0.2-0.5,0.8-0.7,1.4-0.6
		c0.2,0.1,0.7,0.3,0.7,1c0.1,0.3,0.1,0.6,0.1,0.9v0.3c0.2,1.8-0.5,3.3-1.2,4.8l-0.4,1.1c-0.9,2.3-1.7,4.1-2.6,5.6
		c-1.2,1.9-2.7,3.1-4.2,4c-0.8,0.4-1.8,1.1-2.9,1.1h-0.2C368.6,67.9,367.4,67.5,366.3,66.8z M359.6,36.4c0-0.5,0-1.1-0.1-1.6
		c-0.1-0.4-0.2-0.5-0.5-0.5h-0.2c-1.7,0.4-2.2,1-2.2,2.3c0,0.1,0,0.4-0.1,0.5c-0.4,2.1,0.3,4,1.2,5.7
		C358.9,41.1,359.5,39.2,359.6,36.4z M363.1,59.2c0.1-0.4,0.2-0.6,0.2-0.9c0.1-0.4,0.2-0.9,0.2-1.4c0.1-0.4-0.1-0.7,0-1.1
		c0-0.6,0.4-1.2,0.2-1.6c-0.5-0.6,0.3-0.9,0.4-1.6c-0.6,0-0.6-0.9-0.5-1.1c0.1-0.4,0.7-0.1,0.1-0.4c-0.2,0.2-0.5,0.5-0.6,0.6
		c-0.1,1.5-0.4,2.4-0.5,4c-0.2,1.2-0.4,2.4-0.6,3.5c-0.1,0.5,0.2,1,0.1,1.6C363,60.3,363,59.7,363.1,59.2z"/>
	<path fill="#FFFFFF" d="M384.3,65.7l-1.2-0.6c-0.2-0.1-0.5-0.2-0.7-0.4l-0.1-0.1c-0.2-0.1-0.5-0.2-0.7-0.5c-1.2-1.4-2.4-3-3.2-4.9
		c-1-2.7-0.9-5.4-0.7-8l0.1-0.6c0-0.6,0.1-1.1,0-1.6c-0.2-1.4-0.1-2.7,0.1-4c0-0.6,0.1-1.1,0.1-1.7c0.1-1.5,0.1-3.2,0.4-5l0.2-1.9
		c0.7-4.5,1.4-9.1,2.6-13.5c0.4-1.2,0.7-2.4,0.9-3.7c0.2-1.1,0.6-2.2,1.3-3.2c-0.2,1.4-0.5,2.7-0.8,4.5c-0.3,1.9-0.7,3.8-1.1,5.7
		c-0.1,0.9,0.1,1.7-0.1,2.6c0.8-0.9,0.9-1.8,1.1-2.7c0.1-0.5,0.3-1,0.4-1.4c0.2-0.7,0.4-1.5,0.4-2.2c0.1-0.6,0-1.3,0.1-1.9
		c0.1-0.8,0.6-1.7,0.5-2.4c-0.4-1.2,0.4-1.4,0.6-2.5c-0.2-0.1-0.4-0.4-0.4-0.7c0.3-0.4,0.5-0.8,0.7-1.2c0.2-0.5,0.5-1,0.9-1.5
		c1.2-1.9,2.9-3.4,4.8-4.2c0.9-0.4,1.9-0.4,3-0.6c0.2,0,0.4,0,0.7-0.1c0.9-0.1,1.7,0.4,2.2,0.7c0.5,0.4,0.8,0.9,0.9,1.4
		c0.1,1.7,0.1,3-0.1,4.1c-0.6,3.9-1.5,7.5-2.7,10.8c-0.9,2.5-1.9,5-3.5,7.3c-0.6,1-1.2,2.2-1.6,3.2c-0.6,1.3-1.3,2.6-2,3.7
		c-0.3,0.4-0.6,0.9-0.8,1.3c-0.1,0.3-0.4,0.6-0.5,0.7l-0.1,0.2c-0.4,0.4-1.1,0.6-1.6,0.2c0-0.1-0.1-0.1-0.1-0.1
		c-0.2,2.6-0.4,5.3-0.3,8.1l-0.1,0.9c-0.1,0.6-0.1,1.4-0.1,2.2c-0.1,2.4,0.1,4.7,0.6,6.7c0.1,0.4,0.3,0.7,0.4,1.2l0.1,0.4
		c0.3,0.6,0.7,1,1.4,1.2c0.4,0.1,0.9,0.4,1.3,0.6c0.9,0.4,1.7,0.3,2.5-0.5l0.7-0.9c1.8-2.3,3.6-4.9,4.3-8.1c0.2-0.8,0.5-1.9,1.2-2.7
		c0.1-0.1,0.4-0.6,0.9-0.6c0.1,0,0.3,0,0.4,0.1c0.6,0.3,0.9,0.8,0.7,1.5c0,0.1-0.1,0.2-0.1,0.3c-0.7,1.4-1.2,2.8-1.5,4.2
		c-0.1,0.4-0.2,0.7-0.4,1l-0.1,0.2c-0.9,1.9-2.1,3.7-3.2,5.3c-0.9,1.2-1.9,2.3-3.1,3.1c-1.1,0.8-2.2,1.2-3.2,1.2
		C385.9,66.4,385.1,66.1,384.3,65.7z M384.6,29.3c0-1.4-0.1-2.8-0.1-4.2c-0.2,1.4-0.4,2.8-0.6,4.2c0,0.1,0.1,0.3,0.3,0.4
		C384.3,29.5,384.6,29.5,384.6,29.3z M384.6,38.7c0.1-0.4,0.4-0.6,0.6-0.9c0.4-0.6,0.8-1.2,1.1-1.9c0.7-1.7,1.7-3.3,2.5-4.8
		c0.4-0.7,0.7-1.4,1.1-2c1.8-3.3,3.2-6.8,4-10.7c0.3-1.2,0.6-2.4,0.8-3.7c0.1-0.6,0.2-1.3,0.4-1.9c0.1-0.7,0.2-1.3,0.1-1.9
		c-0.1-0.1-0.1-0.2-0.1-0.2h-0.1c-0.1,0-0.1,0-0.1,0c-0.2,0-0.4,0.1-0.5,0.2c-2.9,2.8-4.5,5.3-5.3,8.1l-0.6,2.4
		c-0.2,0.8-0.4,1.6-0.6,2.4l-0.1,0.4c-0.4,1.3-0.7,2.7-1.2,4c-1,3-1.5,6.2-1.7,8.6c-0.1,0.7-0.2,1.5-0.3,2.2L384.6,38.7z"/>
	<path fill="#FFFFFF" d="M426,50.7l-0.2,0.9c-0.7,2-1.4,4-2.3,6l-0.6,1.4c-0.1,0.3-0.2,0.6-0.4,0.9l-0.1,0.4
		c-0.1,0.4-0.2,0.7-0.5,1.1c-1.2,1.4-2.6,2.5-4.2,3.4c-0.4,0.2-0.9,0.4-1.4,0.4c-0.4,0-0.9-0.1-1.4-0.3c-2.5-1-3.7-2.9-3.8-5.6
		c-0.1-0.4-0.1-0.7,0-1.2v-0.9c-0.1-1.2,0.1-2.6,0.5-4c0.2-0.6,0.3-1.3,0.4-1.9l-0.1,0.1c-1,3.1-3.2,5.6-6.7,7.8
		c-5,3.2-9.6-2.6-10-7.2c-0.1-1.9-0.2-4.3,0.5-6.7c0.2-0.9,0.6-1.7,0.9-2.5l0.3-0.7c0.4-0.7,1.1-1.2,1.7-0.9
		c0.3,0.1,0.6,0.1,0.9,0.2c3.7,0.7,2.5,4,2,6.8c-0.5,2.9-0.4,5,1.1,7.6c0.3,0.6,1,1,1.7,1c0.4,0,0.9-0.1,1.2-0.4
		c1.9-1.3,3.3-3,4.2-5.2c0.4-1.1,0.9-2.2,1.5-3.2c1.4-2.7,2.2-7.7,5.6-8.4l0.3-0.1c0.5-0.1,0.9,0.2,1.2,0.8c0.6,1,0.8,2.1,0.6,3.2
		c-0.2,2-0.8,3.8-1.4,5.5c-0.9,2.7-3,8-1.7,10.9c1.4,3.2,3.7,1.7,4.7-0.9c0.2-0.5,0.4-0.9,0.6-1.4c0.9-2,1.7-4.1,2.2-6.3
		c0.1-0.3,0.2-0.6,0.4-1.1c0.2-0.4,0.7-0.6,1.2-0.5S426.1,50.2,426,50.7z"/>
	<path fill="#FFFFFF" d="M427.2,67.3c-1-0.3-1.9-0.9-2.7-1.4c-0.2-0.2-0.5-0.4-0.8-0.5c-0.4-0.3-0.6-0.7-0.8-1.1l-0.2-0.4
		c-0.4-0.9-0.9-1.7-1.2-2.7c-0.4-1.4-0.4-2.8,0.1-4.3c0.1-1.4,0.5-3,1.6-3c0.6,0,1.1,0.7,1.4,1.3l0.1,0.3l-0.1,0.2
		c-0.6,1.2-0.9,2.4-0.9,3.8c0,1.5,0.6,2.7,2,3.3c1.5,0.7,2.9,0.8,4.2,0.1c0.2-0.1,0.4-0.2,0.7-0.4c0.5-0.4,1.1-0.7,1.5-1.2
		c0.4-0.3,0.6-0.6,0.8-0.9c1.2-2.2,1.6-4,1.3-5.9c0-0.1,0-0.2-0.1-0.3c0-0.4-0.1-0.8,0-1.2l-0.8-0.8h0.4c-0.6-1.3-1.4-2.5-2.1-3.7
		c-0.9-1.5-1.8-3-2.5-4.7l-1.2-2.2c-0.6-1.1-1.2-2.2-1.7-3.4c-0.9-2.3-1-4.5-0.4-6.6c0.2-0.6,0.4-1.1,0.7-1.5c1-1.7,2.2-2.8,3.6-3.5
		c1.6-0.8,3.2-0.7,4.9,0.4c0.7,0.4,1.4,1,1.9,1.7c0.5,0.6,0.9,1.5,0.9,2.7c0.1,1.7-0.4,3.2-1.4,4.7c-0.4,0.4-0.9,0.5-1.4,0.1
		c-0.2-0.1-0.4-0.6-0.4-0.9l0.2-0.9l0.1-0.2l0.2-0.6c0.1-0.4,0.2-0.7,0.4-1.1c0.1-0.5,0.1-1.2-0.6-1.8c-0.7-0.6-1.5-0.7-2.3-0.3
		c-1.8,0.9-2.6,2.7-2,4.8l0.6,1.7c0.1,0.4,0.3,0.7,0.4,1.2c0.3,0.6,0.6,1.4,0.9,2.2c0.1,0.4,0.4,0.8,0.7,1.2
		c0.6,0.9,1.2,1.7,1.7,2.5c0.4,0.5,0.7,0.9,1,1.4c1.3,1.8,2.5,3.9,3.7,6.3c0.5,1.1,0.6,2.2,0.6,3.2c0.1,2.4-0.4,4.5-1.6,6.4
		c-0.1,0.1-0.1,0.4-0.1,0.5c-0.1,0.2-0.2,0.4-0.3,0.6c-1,1.9-2.6,4.2-5.6,5c-0.9,0.2-1.9,0.4-2.8,0.4
		C429.1,67.8,428,67.6,427.2,67.3z"/>
	<path fill="#FFFFFF" d="M445.4,62.3c-0.5-0.2-0.9-0.6-1.2-0.9c-2.1-2.5-3-5.2-2.8-8.1c0.1-0.6,0.1-1.1,0.1-1.7
		c-0.1-0.3-0.1-0.6-0.1-0.9c0-2.5,0.4-5,0.8-7.5l0.4-2.6l0.5-3.3c0.2-1.9,0.5-3.7,0.7-5.5c0-0.1,0.1-0.1,0.1-0.1h-0.1
		c-1.1,0.5-1.9,1.2-2.7,2.1c-0.4,0.4-0.9,0.9-1.5,0.9c-0.4,0-0.6-0.2-0.8-0.5c-0.4-1,0.3-1.7,0.6-1.9l0.1-0.1c1.1-1,2.2-2,3.7-2.5
		c0.8-0.3,1.2-0.8,1.5-1.8c1-4.2,1.9-7.8,2.7-11.2l1.5-5l0.3-1c0.2-0.6,0.5-1.2,0.7-1.6c0.7-1.3,2.3-1.8,3.7-1.1
		c0.8,0.4,0.9,1,0.9,1.4c0.1,0.7,0.1,1.5-0.1,2.3c-0.2,0.9-0.5,1.7-0.7,2.5c-0.5,1.7-0.9,3.5-1.4,5.3c-0.5,2.1-1,4.2-1.4,6.4
		l-0.4,1.8c1.3-0.2,2.4-0.6,3.5-1.4l0.8-0.6l2.3-1.5c0.4-0.3,1.1-0.1,1.4,0.3c0.3,0.4,0.3,0.9,0,1.2c-0.4,0.5-0.8,0.8-1.3,1.1
		c-0.5,0.2-0.9,0.5-1.4,0.8c-1.5,0.9-3.1,1.8-4.9,2.2c-0.7,0.1-1,0.6-1.2,1.4l-0.4,2.8c-0.4,2.2-0.8,4.4-1.1,6.6
		c-0.6,3.3-1.2,7.1-1.5,10.9c-0.1,1.7,0.1,3.4,0.3,5l0.1,0.2c0.1,0.5,0.4,1,0.6,1.6l0.2,0.4c0.1,0.4,0.6,0.6,1.1,0.8h0.1
		c0.7,0.3,1.2,0.4,1.4,0.4c0.2,0,0.4-0.1,1.2-1.1c0.6-0.9,1-1.7,1.3-2.4l0.6-1.6c0.4-0.9,1.8-3.5,2-4.5c0.1-0.6,0.9-1,1.5-0.7
		c0.4,0.2,0.6,0.6,0.6,1c0,0.3-0.1,0.6-0.2,1c-0.3,0.9-1.7,3.5-2.1,4.5c-0.2,0.5-0.4,1.1-0.8,1.6c-0.3,0.4-0.5,0.8-0.7,1.2l-0.1,0.2
		c-1.2,2.3-3.1,3.6-5.5,3.6C447.4,62.9,446.4,62.7,445.4,62.3z M447.8,25.9c0.2-0.5,0.4-0.9,0.5-1.4c0.2-0.8,0.4-1.5,0.5-2.2
		c0.2-0.6,0.1-1.3,0.3-1.9c0.2-0.9,0.7-1.7,0.6-2.4c-0.3-1.2,0.5-1.3,0.9-2.4c-0.6-0.3-0.4-1.6-0.2-1.9c0.1-0.6,0.8-0.1,0.3-0.6
		c-0.3,0.3-0.7,0.6-0.8,0.9c-0.6,2.4-1,3.9-1.6,6.3c-0.4,1.9-1,3.7-1.4,5.6c-0.2,0.9-0.1,1.7-0.3,2.6
		C447.4,27.7,447.5,26.8,447.8,25.9z"/>
</g>
</svg>
